<svg width="16" height="16" viewBox="0 0 16 16" fill="none" xmlns="http://www.w3.org/2000/svg">
<mask id="mask0_14450_8627" style="mask-type:alpha" maskUnits="userSpaceOnUse" x="0" y="0" width="16" height="16">
<rect width="16" height="16" fill="#D9D9D9"/>
</mask>
<g mask="url(#mask0_14450_8627)">
<path d="M6.2 11.8668C5.8112 11.8668 5.48053 11.7308 5.208 11.4588C4.936 11.1863 4.8 10.8556 4.8 10.4668V2.73398C4.8 2.34518 4.936 2.01452 5.208 1.74198C5.48053 1.46998 5.8112 1.33398 6.2 1.33398H11.9336C12.3224 1.33398 12.6528 1.46998 12.9248 1.74198C13.1973 2.01452 13.3336 2.34518 13.3336 2.73398V10.4668C13.3336 10.8556 13.1973 11.1863 12.9248 11.4588C12.6528 11.7308 12.3224 11.8668 11.9336 11.8668H6.2ZM6.2 10.4668H11.9336V2.73398H6.2V10.4668ZM3.4 14.6668C3.0112 14.6668 2.68053 14.5308 2.408 14.2588C2.136 13.9863 2 13.6556 2 13.2668V4.75078C2 4.56145 2.06933 4.39745 2.208 4.25878C2.3472 4.11958 2.5112 4.04998 2.7 4.04998C2.8888 4.04998 3.0528 4.11958 3.192 4.25878C3.33067 4.39745 3.4 4.56145 3.4 4.75078V13.2668H9.9168C10.1056 13.2668 10.2693 13.3364 10.408 13.4756C10.5472 13.6143 10.6168 13.778 10.6168 13.9668C10.6168 14.1556 10.5472 14.3196 10.408 14.4588C10.2693 14.5975 10.1056 14.6668 9.9168 14.6668H3.4Z" fill="#777E90"/>
</g>
</svg>
