<svg width="18" height="18" viewBox="0 0 18 18" fill="none" xmlns="http://www.w3.org/2000/svg">
<path d="M10.625 7.40001C10.194 7.40001 9.78069 7.23144 9.47594 6.93138C9.1712 6.63132 8.99999 6.22436 8.99999 5.80001V1.00001H4.125C3.69402 1.00001 3.2807 1.16858 2.97595 1.46864C2.6712 1.7687 2.5 2.17567 2.5 2.60001V15.4C2.5 15.8243 2.6712 16.2313 2.97595 16.5314C3.2807 16.8314 3.69402 17 4.125 17H13.875C14.306 17 14.7193 16.8314 15.024 16.5314C15.3288 16.2313 15.5 15.8243 15.5 15.4V7.40001H10.625Z" fill="#464646"/>
<path d="M10.625 7.40001C10.194 7.40001 9.78069 7.23144 9.47594 6.93138C9.1712 6.63132 8.99999 6.22436 8.99999 5.80001V1.00001H4.125C3.69402 1.00001 3.2807 1.16858 2.97595 1.46864C2.6712 1.7687 2.5 2.17567 2.5 2.60001V15.4C2.5 15.8243 2.6712 16.2313 2.97595 16.5314C3.2807 16.8314 3.69402 17 4.125 17H13.875C14.306 17 14.7193 16.8314 15.024 16.5314C15.3288 16.2313 15.5 15.8243 15.5 15.4V7.40001H10.625Z" fill="#434F64"/>
<path d="M10.625 5.00001C10.625 5.21218 10.7106 5.41567 10.863 5.56569C11.0153 5.71572 11.222 5.80001 11.4375 5.80001H15.5C15.5006 5.69472 15.4801 5.59035 15.4397 5.49288C15.3992 5.39541 15.3397 5.30676 15.2644 5.23201L11.2019 1.23201C11.1259 1.15787 11.0359 1.09921 10.9369 1.0594C10.8379 1.01958 10.7319 0.999405 10.625 1.00001V5.00001Z" fill="#464646"/>
<path d="M10.625 5.00001C10.625 5.21218 10.7106 5.41567 10.863 5.56569C11.0153 5.71572 11.222 5.80001 11.4375 5.80001H15.5C15.5006 5.69472 15.4801 5.59035 15.4397 5.49288C15.3992 5.39541 15.3397 5.30676 15.2644 5.23201L11.2019 1.23201C11.1259 1.15787 11.0359 1.09921 10.9369 1.0594C10.8379 1.01958 10.7319 0.999405 10.625 1.00001V5.00001Z" fill="#434F64"/>
</svg>
