<svg width="18" height="18" viewBox="0 0 18 18" fill="none" xmlns="http://www.w3.org/2000/svg">
<path d="M9 1C4.6 1 1 4.6 1 9C1 13.4 4.6 17 9 17C13.4 17 17 13.4 17 9C17 4.6 13.4 1 9 1ZM9 3.66667C10.4667 3.66667 11.6667 5.13333 11.6667 7C11.6667 8.86667 10.4667 10.3333 9 10.3333C7.53333 10.3333 6.33333 8.86667 6.33333 7C6.33333 5.13333 7.53333 3.66667 9 3.66667ZM13.4 14C12.2667 15 10.6667 15.6667 9 15.6667C7.33333 15.6667 5.73333 15 4.6 14C4.33333 13.7333 4.26667 13.3333 4.53333 13.0667C5.26667 12.2 6.26667 11.6 7.33333 11.2667C7.86667 11.5333 8.4 11.6667 9 11.6667C9.6 11.6667 10.1333 11.5333 10.6667 11.2667C11.8 11.6 12.7333 12.2 13.4667 13.0667C13.7333 13.3333 13.7333 13.7333 13.4 14Z" fill="#464646"/>
<path d="M9 1C4.6 1 1 4.6 1 9C1 13.4 4.6 17 9 17C13.4 17 17 13.4 17 9C17 4.6 13.4 1 9 1ZM9 3.66667C10.4667 3.66667 11.6667 5.13333 11.6667 7C11.6667 8.86667 10.4667 10.3333 9 10.3333C7.53333 10.3333 6.33333 8.86667 6.33333 7C6.33333 5.13333 7.53333 3.66667 9 3.66667ZM13.4 14C12.2667 15 10.6667 15.6667 9 15.6667C7.33333 15.6667 5.73333 15 4.6 14C4.33333 13.7333 4.26667 13.3333 4.53333 13.0667C5.26667 12.2 6.26667 11.6 7.33333 11.2667C7.86667 11.5333 8.4 11.6667 9 11.6667C9.6 11.6667 10.1333 11.5333 10.6667 11.2667C11.8 11.6 12.7333 12.2 13.4667 13.0667C13.7333 13.3333 13.7333 13.7333 13.4 14Z" fill="#434F64"/>
</svg>
