<svg width="18" height="18" viewBox="0 0 18 18" fill="none" xmlns="http://www.w3.org/2000/svg">
<path d="M9 1C4.582 1 1 4.582 1 9C1 13.418 4.582 17 9 17C13.418 17 17 13.418 17 9C17 4.582 13.418 1 9 1ZM8 9H10C11.103 9 12 9.897 12 11V12C12 13.103 11.103 14 10 14V15H9V14H8C6.897 14 6 13.103 6 12H7C7 12.551 7.448 13 8 13H9H10C10.552 13 11 12.551 11 12V11C11 10.449 10.552 10 10 10H8C6.897 10 6 9.103 6 8V7C6 5.897 6.897 5 8 5H9V4H10V5C11.103 5 12 5.897 12 7H11C11 6.449 10.552 6 10 6H8C7.448 6 7 6.449 7 7V8C7 8.551 7.448 9 8 9Z" fill="#464646"/>
<path d="M9 1C4.582 1 1 4.582 1 9C1 13.418 4.582 17 9 17C13.418 17 17 13.418 17 9C17 4.582 13.418 1 9 1ZM8 9H10C11.103 9 12 9.897 12 11V12C12 13.103 11.103 14 10 14V15H9V14H8C6.897 14 6 13.103 6 12H7C7 12.551 7.448 13 8 13H9H10C10.552 13 11 12.551 11 12V11C11 10.449 10.552 10 10 10H8C6.897 10 6 9.103 6 8V7C6 5.897 6.897 5 8 5H9V4H10V5C11.103 5 12 5.897 12 7H11C11 6.449 10.552 6 10 6H8C7.448 6 7 6.449 7 7V8C7 8.551 7.448 9 8 9Z" fill="#434F64"/>
</svg>
