<svg width="15" height="15" viewBox="0 0 15 15" fill="none" xmlns="http://www.w3.org/2000/svg">
<mask id="mask0_14514_8820" style="mask-type:alpha" maskUnits="userSpaceOnUse" x="0" y="0" width="15" height="15">
<rect width="15" height="15" fill="#D9D9D9"/>
</mask>
<g mask="url(#mask0_14514_8820)">
<path d="M11.5625 11.125V9.6875C11.5625 9.60417 11.5312 9.53125 11.4688 9.46875C11.4062 9.40625 11.3333 9.375 11.25 9.375C11.1667 9.375 11.0938 9.40625 11.0312 9.46875C10.9688 9.53125 10.9375 9.60417 10.9375 9.6875V11.125C10.9375 11.2083 10.9531 11.2865 10.9844 11.3594C11.0156 11.4323 11.0625 11.5 11.125 11.5625L12.0781 12.5156C12.1406 12.5781 12.2135 12.6094 12.2969 12.6094C12.3802 12.6094 12.4531 12.5781 12.5156 12.5156C12.5781 12.4531 12.6094 12.3802 12.6094 12.2969C12.6094 12.2135 12.5781 12.1406 12.5156 12.0781L11.5625 11.125ZM11.25 14.375C10.3854 14.375 9.64844 14.0703 9.03906 13.4609C8.42969 12.8516 8.125 12.1146 8.125 11.25C8.125 10.3854 8.42969 9.64844 9.03906 9.03906C9.64844 8.42969 10.3854 8.125 11.25 8.125C12.1146 8.125 12.8516 8.42969 13.4609 9.03906C14.0703 9.64844 14.375 10.3854 14.375 11.25C14.375 12.1146 14.0703 12.8516 13.4609 13.4609C12.8516 14.0703 12.1146 14.375 11.25 14.375ZM5 5.625H10C10.1771 5.625 10.3255 5.5651 10.4453 5.44531C10.5651 5.32552 10.625 5.17708 10.625 5C10.625 4.82292 10.5651 4.67448 10.4453 4.55469C10.3255 4.4349 10.1771 4.375 10 4.375H5C4.82292 4.375 4.67448 4.4349 4.55469 4.55469C4.4349 4.67448 4.375 4.82292 4.375 5C4.375 5.17708 4.4349 5.32552 4.55469 5.44531C4.67448 5.5651 4.82292 5.625 5 5.625ZM7.29688 13.125H3.125C2.78125 13.125 2.48698 13.0026 2.24219 12.7578C1.9974 12.513 1.875 12.2188 1.875 11.875V3.125C1.875 2.78125 1.9974 2.48698 2.24219 2.24219C2.48698 1.9974 2.78125 1.875 3.125 1.875H11.875C12.2188 1.875 12.513 1.9974 12.7578 2.24219C13.0026 2.48698 13.125 2.78125 13.125 3.125V7.3125C12.8229 7.16667 12.5182 7.05729 12.2109 6.98438C11.9036 6.91146 11.5833 6.875 11.25 6.875C11.1354 6.875 11.0286 6.8776 10.9297 6.88281C10.8307 6.88802 10.7292 6.90104 10.625 6.92188C10.5312 6.90104 10.4271 6.88802 10.3125 6.88281C10.1979 6.8776 10.0938 6.875 10 6.875H5C4.82292 6.875 4.67448 6.9349 4.55469 7.05469C4.4349 7.17448 4.375 7.32292 4.375 7.5C4.375 7.67708 4.4349 7.82552 4.55469 7.94531C4.67448 8.0651 4.82292 8.125 5 8.125H8.20312C8.01562 8.30208 7.84635 8.49479 7.69531 8.70312C7.54427 8.91146 7.41146 9.13542 7.29688 9.375H5C4.82292 9.375 4.67448 9.4349 4.55469 9.55469C4.4349 9.67448 4.375 9.82292 4.375 10C4.375 10.1771 4.4349 10.3255 4.55469 10.4453C4.67448 10.5651 4.82292 10.625 5 10.625H6.92188C6.90104 10.7292 6.88802 10.8307 6.88281 10.9297C6.8776 11.0286 6.875 11.1354 6.875 11.25C6.875 11.5938 6.90625 11.9141 6.96875 12.2109C7.03125 12.5078 7.14062 12.8125 7.29688 13.125Z" fill="#1877F2"/>
</g>
</svg>
