<svg width="18" height="18" viewBox="0 0 18 18" fill="none" xmlns="http://www.w3.org/2000/svg">
<path d="M8.60637 1.08085C8.85637 0.973051 9.14387 0.973051 9.39387 1.08085L16.3939 4.08094C16.8314 4.26875 17.0751 4.7375 16.9782 5.2C16.8845 5.66563 16.4751 5.97188 15.972 6V6.25C15.972 6.66563 15.6657 7 15.222 7H2.722C2.33575 7 1.972 6.66563 1.972 6.25V6C1.52543 5.97188 1.116 5.66563 1.02052 5.2C0.92506 4.7375 1.16978 4.26875 1.60606 4.08094L8.60637 1.08085ZM9.00012 5C9.55325 5 10.0001 4.55313 10.0001 4C10.0001 3.44782 9.55325 3 9.00012 3C8.447 3 8.00012 3.44782 8.00012 4C8.00012 4.55313 8.447 5 9.00012 5ZM4.972 14H6.222V8H8.222V14H9.75012V8H11.7501V14H13.0001V8H15.0001V14.1344C15.0189 14.1438 15.0376 14.1281 15.0564 14.1688L16.5564 15.1688C16.922 15.4125 17.0845 15.8688 16.9564 16.2906C16.8282 16.7125 16.4407 17 16.0001 17H1.972C1.5595 17 1.17068 16.7125 1.043 16.2906C0.915279 15.8688 1.07872 15.4125 1.44543 15.1688L2.94543 14.1688C2.96325 14.1281 2.98168 14.1438 2.972 14.1344V8H4.972V14Z" fill="#464646"/>
<path d="M8.60637 1.08085C8.85637 0.973051 9.14387 0.973051 9.39387 1.08085L16.3939 4.08094C16.8314 4.26875 17.0751 4.7375 16.9782 5.2C16.8845 5.66563 16.4751 5.97188 15.972 6V6.25C15.972 6.66563 15.6657 7 15.222 7H2.722C2.33575 7 1.972 6.66563 1.972 6.25V6C1.52543 5.97188 1.116 5.66563 1.02052 5.2C0.92506 4.7375 1.16978 4.26875 1.60606 4.08094L8.60637 1.08085ZM9.00012 5C9.55325 5 10.0001 4.55313 10.0001 4C10.0001 3.44782 9.55325 3 9.00012 3C8.447 3 8.00012 3.44782 8.00012 4C8.00012 4.55313 8.447 5 9.00012 5ZM4.972 14H6.222V8H8.222V14H9.75012V8H11.7501V14H13.0001V8H15.0001V14.1344C15.0189 14.1438 15.0376 14.1281 15.0564 14.1688L16.5564 15.1688C16.922 15.4125 17.0845 15.8688 16.9564 16.2906C16.8282 16.7125 16.4407 17 16.0001 17H1.972C1.5595 17 1.17068 16.7125 1.043 16.2906C0.915279 15.8688 1.07872 15.4125 1.44543 15.1688L2.94543 14.1688C2.96325 14.1281 2.98168 14.1438 2.972 14.1344V8H4.972V14Z" fill="#434F64"/>
</svg>
