<svg width="20" height="20" viewBox="0 0 20 20" fill="none" xmlns="http://www.w3.org/2000/svg">
<mask id="mask0_14455_8657" style="mask-type:alpha" maskUnits="userSpaceOnUse" x="0" y="0" width="20" height="20">
<rect width="20" height="20" fill="#D9D9D9"/>
</mask>
<g mask="url(#mask0_14455_8657)">
<path d="M3.5 16C3.09733 16 2.74667 15.8507 2.448 15.552C2.14933 15.2533 2 14.9027 2 14.5V5.5C2 5.09733 2.14933 4.74667 2.448 4.448C2.74667 4.14933 3.09733 4 3.5 4H16.5C16.9167 4 17.2707 4.14933 17.562 4.448C17.854 4.74667 18 5.09733 18 5.5V14.5C18 14.9027 17.854 15.2533 17.562 15.552C17.2707 15.8507 16.9167 16 16.5 16H3.5ZM3.5 10H16.5V7H3.5V10Z" fill="#1C1B1F"/>
</g>
</svg>
