<svg width="120" height="54" viewBox="0 0 120 54" fill="none" xmlns="http://www.w3.org/2000/svg">
<path opacity="0.6" d="M56.765 20.2572C57.0608 20.212 57.2915 20.0826 57.4568 19.8692C57.6221 19.6558 57.6833 19.4085 57.6403 19.1274C57.5972 18.8463 57.4649 18.6287 57.2433 18.4745C57.0217 18.3203 56.763 18.2659 56.4671 18.3112C56.1712 18.3565 55.9406 18.4858 55.7753 18.6992C55.6099 18.9126 55.5488 19.1599 55.5918 19.441C55.6348 19.7221 55.7671 19.9397 55.9887 20.0939C56.2103 20.2481 56.4691 20.3025 56.765 20.2572ZM55.064 22.8412C54.6884 22.8987 54.3475 22.8208 54.0411 22.6077C53.7348 22.3946 53.5544 22.1096 53.4997 21.7528L52.904 17.8607C52.8494 17.5039 52.9364 17.178 53.165 16.883C53.3935 16.588 53.6956 16.4118 54.0711 16.3543L58.8509 15.6227C59.2265 15.5653 59.5674 15.6431 59.8737 15.8562C60.1801 16.0694 60.3605 16.3543 60.4151 16.7111L61.0108 20.6032C61.0655 20.96 60.9785 21.2859 60.7499 21.5809C60.5214 21.8759 60.2193 22.0521 59.8438 22.1096L55.064 22.8412ZM49.9985 26.272C49.6229 26.3295 49.282 26.2517 48.9757 26.0385C48.6693 25.8254 48.4889 25.5404 48.4343 25.1837L47.0443 16.1021C46.9897 15.7453 47.0766 15.4194 47.3052 15.1244C47.5337 14.8294 47.8358 14.6531 48.2114 14.5957L57.7709 13.1325C58.1465 13.075 58.4874 13.1529 58.7938 13.366C59.1001 13.5791 59.2806 13.8641 59.3352 14.2209L53.8725 15.0569C53.0645 15.1806 52.4441 15.5218 52.0113 16.0804C51.5785 16.639 51.4209 17.3021 51.5384 18.0697L52.1341 21.9618C52.2516 22.7295 52.6004 23.3151 53.1804 23.7187C53.7605 24.1223 54.4545 24.2622 55.2625 24.1385L60.7252 23.3025C60.7798 23.6592 60.6928 23.9851 60.4642 24.2801C60.2357 24.5751 59.9336 24.7514 59.5581 24.8088L49.9985 26.272Z" fill="url(#paint0_linear_14513_8705)"/>
<path opacity="0.2" d="M36.6325 35.873C36.7735 35.7916 36.8649 35.6805 36.9065 35.5396C36.9481 35.3988 36.9303 35.2614 36.8529 35.1274C36.7756 34.9934 36.6655 34.9093 36.5227 34.8749C36.3799 34.8405 36.238 34.8641 36.097 34.9455C35.956 35.0269 35.8646 35.138 35.823 35.2789C35.7814 35.4197 35.7992 35.5571 35.8766 35.6911C35.9539 35.8251 36.064 35.9092 36.2068 35.9436C36.3496 35.978 36.4915 35.9544 36.6325 35.873ZM36.2809 37.5188C36.1019 37.6222 35.9137 37.6501 35.7164 37.6026C35.519 37.5551 35.3712 37.4463 35.273 37.2763L34.202 35.4212C34.1038 35.2512 34.0835 35.0688 34.141 34.8741C34.1986 34.6794 34.3169 34.5304 34.4959 34.4271L36.774 33.1118C36.953 33.0084 37.1412 32.9805 37.3386 33.028C37.536 33.0755 37.6838 33.1843 37.7819 33.3543L38.853 35.2094C38.9512 35.3794 38.9715 35.5618 38.9139 35.7565C38.8564 35.9512 38.7381 36.1002 38.5591 36.2035L36.2809 37.5188ZM34.3913 40.2588C34.2123 40.3621 34.0241 40.39 33.8268 40.3425C33.6294 40.295 33.4816 40.1862 33.3834 40.0162L30.8844 35.6877C30.7862 35.5176 30.7659 35.3353 30.8234 35.1406C30.881 34.9459 30.9992 34.7969 31.1782 34.6935L35.7346 32.0629C35.9136 31.9596 36.1018 31.9317 36.2991 31.9792C36.4965 32.0267 36.6443 32.1355 36.7425 32.3055L34.1389 33.8087C33.7538 34.031 33.5067 34.3266 33.3977 34.6952C33.2887 35.0639 33.3398 35.4312 33.5511 35.797L34.6221 37.6521C34.8333 38.0179 35.1258 38.2459 35.4996 38.3358C35.8734 38.4257 36.2528 38.3596 36.6379 38.1372L39.2415 36.634C39.3397 36.8041 39.36 36.9864 39.3025 37.1811C39.2449 37.3758 39.1266 37.5248 38.9476 37.6282L34.3913 40.2588Z" fill="url(#paint1_linear_14513_8705)"/>
<path opacity="0.16" d="M3.45251 40.4733C3.53226 40.4272 3.58391 40.3644 3.60745 40.2848C3.631 40.2051 3.6209 40.1274 3.57716 40.0516C3.53341 39.9759 3.47117 39.9283 3.39042 39.9088C3.30967 39.8894 3.22942 39.9027 3.14967 39.9488C3.06992 39.9948 3.01827 40.0577 2.99473 40.1373C2.97118 40.2169 2.98128 40.2946 3.02502 40.3704C3.06877 40.4462 3.13101 40.4938 3.21176 40.5132C3.29251 40.5326 3.37275 40.5193 3.45251 40.4733ZM3.25368 41.404C3.15246 41.4625 3.04603 41.4782 2.93441 41.4514C2.82279 41.4245 2.73922 41.363 2.6837 41.2668L2.07803 40.2178C2.02251 40.1216 2.01102 40.0185 2.04357 39.9084C2.07612 39.7983 2.143 39.714 2.24423 39.6556L3.53254 38.9118C3.63377 38.8533 3.74019 38.8375 3.85181 38.8644C3.96343 38.8913 4.047 38.9528 4.10252 39.0489L4.70819 40.098C4.76371 40.1942 4.7752 40.2973 4.74265 40.4074C4.71011 40.5175 4.64322 40.6018 4.542 40.6602L3.25368 41.404ZM2.18511 42.9534C2.08388 43.0119 1.97746 43.0277 1.86584 43.0008C1.75422 42.974 1.67065 42.9124 1.61513 42.8163L0.201891 40.3685C0.146371 40.2723 0.134884 40.1692 0.167432 40.0591C0.199979 39.949 0.266865 39.8647 0.368089 39.8063L2.94472 38.3187C3.04594 38.2602 3.15236 38.2444 3.26398 38.2713C3.37561 38.2982 3.45918 38.3597 3.5147 38.4558L2.04234 39.3059C1.82455 39.4316 1.68484 39.5988 1.62321 39.8072C1.56158 40.0157 1.59049 40.2234 1.70994 40.4303L2.31561 41.4794C2.43506 41.6863 2.60047 41.8151 2.81184 41.866C3.02321 41.9169 3.23779 41.8794 3.45557 41.7537L4.92793 40.9036C4.98345 40.9998 4.99494 41.1029 4.96239 41.213C4.92984 41.3231 4.86296 41.4074 4.76173 41.4658L2.18511 42.9534Z" fill="url(#paint2_linear_14513_8705)"/>
<path d="M118.625 37.408C111.323 35.4516 106.98 27.9277 108.936 20.6262C110.892 13.3247 118.416 8.98084 125.718 10.9373C133.019 12.8937 137.363 20.4175 135.407 27.719C133.45 35.0205 125.926 39.3644 118.625 37.408Z" fill="url(#paint3_linear_14513_8705)"/>
<path d="M126.612 23.1283C127.307 23.3145 128.009 22.8998 128.193 22.2159L128.308 21.7858C128.757 20.1093 127.756 18.3752 126.079 17.926L125.241 17.7014L125.596 16.3779C125.782 15.683 125.367 14.9808 124.683 14.7976C124 14.6143 123.286 15.0261 123.103 15.7099L122.748 17.0335L121.91 16.8089C120.234 16.3597 118.5 17.3609 118.05 19.0373L117.524 21.0006C117.075 22.6771 118.076 24.4112 119.753 24.8604L123.922 25.9775C124.22 26.0573 124.397 26.365 124.315 26.6738L123.789 28.637C123.709 28.9348 123.398 29.1235 123.1 29.0437L118.931 27.9266C118.633 27.8468 118.456 27.5391 118.539 27.2303L118.654 26.8001C118.84 26.1053 118.425 25.4031 117.741 25.2199C117.058 25.0366 116.344 25.4484 116.161 26.1322L116.046 26.5624C115.597 28.2389 116.598 29.973 118.274 30.4222L119.113 30.6468L118.758 31.9703C118.572 32.6652 118.987 33.3674 119.67 33.5506C120.354 33.7338 121.067 33.3221 121.251 32.6382L121.605 31.3147L122.444 31.5393C124.12 31.9885 125.854 30.9873 126.303 29.3108L126.829 27.3476C127.279 25.6711 126.277 23.937 124.601 23.4878L120.432 22.3707C120.134 22.2909 119.956 21.9832 120.039 21.6744L120.565 19.7112C120.645 19.4134 120.956 19.2247 121.253 19.3045L125.422 20.4216C125.72 20.5014 125.898 20.8091 125.815 21.1179L125.7 21.548C125.503 22.2399 125.917 22.9421 126.612 23.1283Z" fill="white"/>
<path d="M93.6847 38.1231C89.5132 42.2945 82.733 42.2945 78.5616 38.1231C74.3901 33.9516 74.3901 27.1714 78.5616 23C82.733 18.8285 89.5132 18.8285 93.6847 23C97.8561 27.1714 97.8561 33.9516 93.6847 38.1231Z" fill="url(#paint4_linear_14513_8705)"/>
<path d="M87.1492 27.1525C87.5462 26.7555 87.5399 26.1191 87.1492 25.7284L86.9035 25.4827C85.9457 24.5249 84.383 24.5249 83.4252 25.4827L82.9463 25.9616L82.1901 25.2054C81.7931 24.8084 81.1567 24.8147 80.766 25.2054C80.3754 25.5961 80.3754 26.2388 80.766 26.6295L81.5222 27.3856L81.0433 27.8645C80.0855 28.8223 80.0855 30.3851 81.0433 31.3429L82.1649 32.4645C83.1227 33.4223 84.6854 33.4223 85.6432 32.4645L88.0251 30.0826C88.1953 29.9125 88.4725 29.9125 88.649 30.0889L89.7706 31.2105C89.9407 31.3807 89.947 31.6642 89.7769 31.8344L87.395 34.2162C87.2249 34.3864 86.9476 34.3864 86.7712 34.2099L86.5254 33.9642C86.1284 33.5672 85.492 33.5735 85.1013 33.9642C84.7106 34.3549 84.7106 34.9976 85.1013 35.3883L85.3471 35.634C86.3049 36.5918 87.8676 36.5918 88.8254 35.634L89.3043 35.1551L90.0604 35.9113C90.4574 36.3083 91.0939 36.302 91.4845 35.9113C91.8752 35.5206 91.8752 34.8779 91.4845 34.4872L90.7284 33.731L91.2073 33.2521C92.1651 32.2944 92.1651 30.7316 91.2073 29.7738L90.0856 28.6522C89.1279 27.6944 87.5651 27.6944 86.6073 28.6522L84.2254 31.0341C84.0553 31.2042 83.7781 31.2042 83.6016 31.0278L82.48 29.9062C82.3099 29.736 82.3036 29.4525 82.4737 29.2823L84.8556 26.9004C85.0257 26.7303 85.303 26.7303 85.4794 26.9067L85.7252 27.1525C86.1158 27.5558 86.7523 27.5495 87.1492 27.1525Z" fill="white"/>
<g opacity="0.5" clip-path="url(#clip0_14513_8705)">
<path d="M62.3131 46.4689C60.1377 47.7249 57.3491 46.9776 56.0931 44.8022C54.8371 42.6268 55.5843 39.8382 57.7597 38.5822C59.9352 37.3262 62.7238 38.0734 63.9798 40.2488C65.2357 42.4243 64.4885 45.2129 62.3131 46.4689Z" fill="url(#paint5_linear_14513_8705)"/>
<path d="M60.8353 41.2366C61.0423 41.1171 61.1099 40.8546 60.9923 40.6509L60.9183 40.5227C60.6299 40.0232 59.9872 39.851 59.4877 40.1394L59.2379 40.2836L59.0102 39.8892C58.8907 39.6822 58.6283 39.6147 58.4245 39.7323C58.2208 39.8499 58.15 40.1143 58.2676 40.318L58.4953 40.7123L58.2455 40.8565C57.746 41.1449 57.5738 41.7876 57.8622 42.2871L58.1999 42.8721C58.4883 43.3716 59.131 43.5438 59.6305 43.2554L60.8726 42.5382C60.9614 42.487 61.0754 42.5176 61.1285 42.6096L61.4662 43.1945C61.5175 43.2832 61.4888 43.4006 61.4001 43.4518L60.1579 44.1689C60.0692 44.2202 59.9552 44.1896 59.902 44.0976L59.8281 43.9694C59.7085 43.7624 59.4461 43.6949 59.2423 43.8125C59.0386 43.9301 58.9678 44.1945 59.0854 44.3982L59.1594 44.5264C59.4478 45.0259 60.0905 45.1981 60.59 44.9097L60.8397 44.7655L61.0674 45.1598C61.1869 45.3669 61.4494 45.4344 61.6531 45.3168C61.8569 45.1992 61.9277 44.9348 61.8101 44.7311L61.5824 44.3367L61.8321 44.1925C62.3316 43.9042 62.5039 43.2614 62.2155 42.7619L61.8778 42.177C61.5894 41.6775 60.9466 41.5053 60.4472 41.7937L59.205 42.5108C59.1163 42.5621 59.0022 42.5315 58.9491 42.4395L58.6114 41.8546C58.5602 41.7658 58.5888 41.6485 58.6776 41.5973L59.9197 40.8801C60.0084 40.8289 60.1225 40.8595 60.1756 40.9515L60.2496 41.0796C60.3658 41.2886 60.6283 41.3561 60.8353 41.2366Z" fill="white"/>
</g>
<g opacity="0.3" clip-path="url(#clip1_14513_8705)">
<path d="M16.6267 33.5786C15.3846 34.2957 13.7924 33.8691 13.0753 32.627C12.3582 31.3849 12.7848 29.7927 14.0269 29.0756C15.269 28.3585 16.8612 28.7851 17.5783 30.0272C18.2955 31.2693 17.8688 32.8615 16.6267 33.5786Z" fill="url(#paint6_linear_14513_8705)"/>
<path d="M15.7821 30.5913C15.9003 30.523 15.9389 30.3732 15.8718 30.2568L15.8295 30.1837C15.6649 29.8985 15.2979 29.8001 15.0127 29.9648L14.8701 30.0471L14.7401 29.822C14.6718 29.7038 14.522 29.6652 14.4057 29.7324C14.2893 29.7995 14.2489 29.9505 14.3161 30.0668L14.446 30.2919L14.3035 30.3743C14.0183 30.5389 13.9199 30.9059 14.0846 31.1911L14.2774 31.5251C14.4421 31.8103 14.809 31.9086 15.0942 31.7439L15.8035 31.3345C15.8541 31.3052 15.9192 31.3227 15.9496 31.3752L16.1424 31.7092C16.1716 31.7598 16.1553 31.8268 16.1046 31.8561L15.3954 32.2655C15.3447 32.2948 15.2796 32.2773 15.2493 32.2248L15.207 32.1516C15.1388 32.0334 14.9889 31.9949 14.8726 32.062C14.7563 32.1292 14.7158 32.2801 14.783 32.3965L14.8252 32.4696C14.9899 32.7548 15.3569 32.8532 15.6421 32.6885L15.7847 32.6062L15.9147 32.8313C15.9829 32.9495 16.1328 32.9881 16.2491 32.9209C16.3654 32.8538 16.4059 32.7028 16.3387 32.5865L16.2087 32.3614L16.3513 32.279C16.6365 32.1144 16.7348 31.7474 16.5702 31.4622L16.3773 31.1282C16.2127 30.843 15.8457 30.7447 15.5605 30.9094L14.8513 31.3188C14.8006 31.3481 14.7355 31.3306 14.7052 31.2781L14.5124 30.9441C14.4831 30.8935 14.4995 30.8265 14.5501 30.7972L15.2594 30.3878C15.31 30.3585 15.3751 30.376 15.4055 30.4285L15.4477 30.5017C15.5141 30.6209 15.6639 30.6595 15.7821 30.5913Z" fill="white"/>
</g>
<defs>
<linearGradient id="paint0_linear_14513_8705" x1="47.8146" y1="11.5114" x2="55.0562" y2="30.8133" gradientUnits="userSpaceOnUse">
<stop stop-color="#17E180"/>
<stop offset="1" stop-color="#009883"/>
</linearGradient>
<linearGradient id="paint1_linear_14513_8705" x1="30.3677" y1="33.2086" x2="37.8523" y2="41.5612" gradientUnits="userSpaceOnUse">
<stop stop-color="#17E180"/>
<stop offset="1" stop-color="#009883"/>
</linearGradient>
<linearGradient id="paint2_linear_14513_8705" x1="-0.0902798" y1="38.9665" x2="4.14228" y2="43.69" gradientUnits="userSpaceOnUse">
<stop stop-color="#17E180"/>
<stop offset="1" stop-color="#009883"/>
</linearGradient>
<linearGradient id="paint3_linear_14513_8705" x1="117.286" y1="1.21103" x2="115.739" y2="48.7787" gradientUnits="userSpaceOnUse">
<stop stop-color="#17E180"/>
<stop offset="1" stop-color="#009883"/>
</linearGradient>
<linearGradient id="paint4_linear_14513_8705" x1="86.1231" y1="47.9401" x2="86.1231" y2="19.6811" gradientUnits="userSpaceOnUse">
<stop stop-color="#F3AA0F"/>
<stop offset="1" stop-color="#FED46E"/>
</linearGradient>
<linearGradient id="paint5_linear_14513_8705" x1="58.1212" y1="49.6732" x2="61.2355" y2="38.0505" gradientUnits="userSpaceOnUse">
<stop stop-color="#F3AA0F"/>
<stop offset="1" stop-color="#FED46E"/>
</linearGradient>
<linearGradient id="paint6_linear_14513_8705" x1="14.2333" y1="35.4082" x2="16.0115" y2="28.772" gradientUnits="userSpaceOnUse">
<stop stop-color="#F3AA0F"/>
<stop offset="1" stop-color="#FED46E"/>
</linearGradient>
<clipPath id="clip0_14513_8705">
<rect width="13.6601" height="13.6601" fill="white" transform="translate(50.7051 40.0256) rotate(-30)"/>
</clipPath>
<clipPath id="clip1_14513_8705">
<rect width="7.79948" height="7.79948" fill="white" transform="translate(10 29.8997) rotate(-30)"/>
</clipPath>
</defs>
</svg>
