<svg width="391" height="324" viewBox="0 0 391 324" fill="none" xmlns="http://www.w3.org/2000/svg">
<rect y="2" width="391" height="322" rx="20" fill="url(#paint0_linear_14657_9699)"/>
<g clip-path="url(#clip0_14657_9699)">
<path d="M192.309 246.941L44.8095 160.175C40.1103 157.518 36.0875 153.241 40.6621 150.433L188.696 65.5007C190.921 64.128 194.294 63.2335 196.546 64.5354L351.406 153.985C356.105 156.695 356.941 164.285 352.242 166.995L211.756 246.8C208.808 248.507 205.462 249.418 202.051 249.443C198.64 249.468 195.282 248.605 192.309 246.941Z" fill="url(#paint1_linear_14657_9699)"/>
<path opacity="0.32" d="M206.674 213.978L235.759 230.593L280.579 203.386L250.061 186.01" fill="url(#paint2_linear_14657_9699)"/>
<path d="M121.644 8.77581C121.998 8.77581 122.337 8.63585 122.588 8.38671C122.838 8.13758 122.979 7.79968 122.979 7.44735C122.979 7.09502 122.838 6.75713 122.588 6.50799C122.337 6.25886 121.998 6.1189 121.644 6.1189C121.29 6.1189 120.95 6.25886 120.7 6.50799C120.449 6.75713 120.309 7.09502 120.309 7.44735C120.309 7.79968 120.449 8.13758 120.7 8.38671C120.95 8.63585 121.29 8.77581 121.644 8.77581Z" fill="#E6E6E6"/>
<g filter="url(#filter0_d_14657_9699)">
<path d="M142.621 153.02L143.289 153.409L209.709 191.952L211.543 189.437L217.034 188.109L217.061 185.948L222.668 184.849L223.869 182.582L227.856 182.201L229.699 179.234L232.751 178.561L234.816 176.294L239.426 175.612L241.491 172.486L174.777 134.545L171.635 133.934L170.825 136.812L168.823 135.263L167.336 138.167H164.515L163.83 140.833L160.163 141.196L159.878 143.1L156.211 143.827L155.321 146.182L152.651 145.74L151.655 148.388L147.605 147.741L147.16 149.787L144.196 150.743" fill="#CCCCCC" fill-opacity="0.63" shape-rendering="crispEdges"/>
</g>
<path d="M265.539 196.124V198.692L264.756 197.408L265.539 196.124Z" fill="#756373"/>
<path d="M157.279 181.599V184.07L159.282 182.741L157.279 181.599Z" fill="#756373"/>
<path d="M158.899 186.745L221.136 222.223C222.209 222.841 223.426 223.167 224.665 223.167C225.905 223.167 227.122 222.841 228.194 222.223L263.954 201.366C264.442 201.086 264.847 200.682 265.129 200.196C265.411 199.711 265.559 199.16 265.559 198.599C265.559 198.038 265.411 197.487 265.129 197.001C264.847 196.515 264.442 196.112 263.954 195.831L201.45 159.91C200.514 159.367 199.449 159.081 198.366 159.081C197.282 159.081 196.218 159.367 195.282 159.91L158.908 181.165C158.409 181.442 157.993 181.846 157.704 182.336C157.414 182.826 157.261 183.384 157.26 183.952C157.259 184.521 157.41 185.079 157.698 185.57C157.986 186.061 158.401 186.466 158.899 186.745Z" fill="#513F2C"/>
<path d="M158.9 184.282L221.137 219.761C222.21 220.379 223.427 220.705 224.666 220.705C225.906 220.705 227.123 220.379 228.195 219.761L263.955 198.904C264.443 198.624 264.848 198.22 265.13 197.734C265.411 197.248 265.56 196.697 265.56 196.137C265.56 195.576 265.411 195.025 265.13 194.539C264.848 194.053 264.443 193.65 263.955 193.369L201.451 157.412C200.515 156.869 199.45 156.583 198.367 156.583C197.283 156.583 196.219 156.869 195.283 157.412L158.909 178.667C158.401 178.942 157.977 179.347 157.682 179.84C157.386 180.334 157.229 180.898 157.229 181.472C157.228 182.047 157.382 182.611 157.676 183.106C157.971 183.6 158.393 184.007 158.9 184.282Z" fill="url(#paint3_linear_14657_9699)"/>
<path d="M166.081 181.245L177.01 187.604C177.271 187.762 177.571 187.846 177.878 187.846C178.184 187.846 178.484 187.762 178.745 187.604L184.833 183.76C184.971 183.675 185.085 183.556 185.164 183.415C185.243 183.274 185.284 183.115 185.284 182.954C185.284 182.792 185.243 182.634 185.164 182.493C185.085 182.352 184.971 182.233 184.833 182.148L173.379 175.594C173.139 175.457 172.865 175.391 172.589 175.404C172.314 175.416 172.047 175.507 171.821 175.665L166.045 179.695C165.922 179.785 165.823 179.903 165.756 180.04C165.688 180.176 165.655 180.327 165.658 180.479C165.662 180.631 165.702 180.78 165.776 180.913C165.849 181.046 165.954 181.16 166.081 181.245Z" fill="white"/>
<path d="M218.902 209.266C222.087 209.266 224.669 207.458 224.669 205.228C224.669 202.997 222.087 201.189 218.902 201.189C215.717 201.189 213.135 202.997 213.135 205.228C213.135 207.458 215.717 209.266 218.902 209.266Z" fill="#FF4700"/>
<path d="M225.115 212.765C228.3 212.765 230.882 210.956 230.882 208.726C230.882 206.496 228.3 204.688 225.115 204.688C221.93 204.688 219.348 206.496 219.348 208.726C219.348 210.956 221.93 212.765 225.115 212.765Z" fill="#FFDF24"/>
<path d="M178.586 167.216L248.673 207.778L259.505 201.464L188.518 161.397L178.586 167.216Z" fill="#513F2C"/>
<path opacity="0.32" d="M325.284 180.129C330.937 176.203 336.923 172.774 343.173 169.882L311.276 156.597L300.756 164.24C308.17 168.97 315.61 173.646 322.935 178.49C323.727 179.048 324.501 179.553 325.284 180.129Z" fill="url(#paint4_linear_14657_9699)"/>
<path opacity="0.32" d="M81.1758 165.197L110.973 181.599L172.481 145.545L144.464 129.594" fill="url(#paint5_linear_14657_9699)"/>
<path d="M79.0039 124.245V162.159C79.0056 162.729 79.1585 163.288 79.4472 163.78C79.7359 164.272 80.1501 164.679 80.6479 164.961C81.1457 165.242 81.7093 165.387 82.2818 165.382C82.8543 165.377 83.4152 165.222 83.9078 164.931L140.45 131.436C140.932 131.15 141.331 130.744 141.609 130.258C141.887 129.772 142.033 129.223 142.034 128.664V90.0506C142.033 89.4821 141.882 88.9236 141.596 88.4317C141.309 87.9398 140.897 87.5318 140.402 87.2488C139.906 86.9659 139.344 86.818 138.773 86.8201C138.202 86.8222 137.641 86.9742 137.148 87.2609L81.7362 119.498C80.9042 119.983 80.2142 120.677 79.7349 121.51C79.2555 122.342 79.0035 123.285 79.0039 124.245Z" fill="#11B49B"/>
<path d="M81.4336 125.184V163.098C81.4352 163.668 81.5882 164.227 81.8769 164.719C82.1656 165.211 82.5798 165.618 83.0776 165.899C83.5753 166.181 84.139 166.326 84.7115 166.321C85.284 166.316 85.8449 166.16 86.3375 165.87L142.879 132.375C143.362 132.089 143.761 131.683 144.039 131.197C144.316 130.711 144.463 130.162 144.463 129.603V90.9893C144.463 90.4208 144.312 89.8624 144.025 89.3704C143.739 88.8785 143.327 88.4705 142.832 88.1875C142.336 87.9046 141.774 87.7567 141.203 87.7588C140.631 87.7609 140.071 87.913 139.577 88.1996L84.1659 120.437C83.3338 120.922 82.6439 121.615 82.1646 122.448C81.6852 123.281 81.4332 124.224 81.4336 125.184Z" fill="url(#paint6_linear_14657_9699)"/>
<path d="M140.006 127.574C141.207 124.543 140.504 121.429 138.437 120.618C136.37 119.808 133.721 121.607 132.521 124.638C131.321 127.669 132.023 130.783 134.09 131.593C136.157 132.404 138.806 130.604 140.006 127.574Z" fill="#FBF472"/>
<path d="M134.272 130.745C135.472 127.715 134.77 124.601 132.703 123.79C130.636 122.979 127.987 124.779 126.787 127.81C125.586 130.841 126.289 133.955 128.356 134.765C130.423 135.576 133.072 133.776 134.272 130.745Z" fill="#E2347C"/>
<path d="M88.4831 122.828C89.1951 122.421 89.6757 122.633 89.827 123.404L89.2841 123.9C89.1417 123.475 88.8747 123.368 88.4831 123.59C88.1878 123.77 87.9549 124.036 87.8156 124.351C87.6308 124.751 87.5395 125.187 87.5486 125.627C87.5052 125.97 87.5978 126.316 87.8067 126.592C87.8993 126.668 88.0158 126.71 88.136 126.71C88.2563 126.71 88.3727 126.668 88.4653 126.592C88.6788 126.454 88.8611 126.273 89.0005 126.061C89.14 125.849 89.2335 125.611 89.2752 125.361L89.8181 125.237C89.7609 125.673 89.6056 126.091 89.3637 126.459C89.1217 126.827 88.7994 127.136 88.4208 127.363C88.2644 127.484 88.0718 127.55 87.8735 127.55C87.6752 127.55 87.4825 127.484 87.3261 127.363C87.1561 127.173 87.0292 126.949 86.9539 126.706C86.8787 126.463 86.8569 126.206 86.89 125.954C86.8825 125.287 87.0383 124.627 87.3439 124.033C87.5988 123.53 87.9944 123.112 88.4831 122.828Z" fill="white"/>
<path d="M91.9262 123.368L92.8162 124.838L92.1398 125.228L91.2498 123.811L90.9294 123.988V125.901L90.3242 126.247V121.818L91.5168 121.136C92.1487 120.773 92.5047 121.074 92.5047 121.836C92.5193 122.402 92.3118 122.952 91.9262 123.368ZM91.5524 122.89C91.6794 122.82 91.7836 122.715 91.853 122.588C91.9223 122.461 91.9539 122.317 91.944 122.173C91.944 121.836 91.8165 121.742 91.5613 121.889L90.9739 122.226V123.227L91.5613 122.89" fill="white"/>
<path d="M95.2911 119.011V119.773L93.876 120.57L93.8671 121.5L94.9974 120.862V121.624L93.8671 122.261L93.8582 123.483L95.3178 122.66V123.421L93.2441 124.591L93.2708 120.153L95.2911 119.011Z" fill="white"/>
<path d="M96.9113 118.09C97.6856 117.656 98.4332 117.895 98.4243 119.445C98.4531 120.046 98.3276 120.644 98.0598 121.183C97.792 121.722 97.3906 122.185 96.8935 122.527L95.8789 123.103V118.674L96.9113 118.09ZM97.4364 121.172C97.6899 120.76 97.8167 120.282 97.8013 119.799C97.8013 119.232 97.6678 118.914 97.4453 118.834C97.3212 118.803 97.1918 118.798 97.0658 118.821C96.9399 118.844 96.8204 118.894 96.7155 118.967L96.493 119.091V122.004L96.7155 121.88C97.0159 121.708 97.2695 121.464 97.4542 121.172" fill="white"/>
<path d="M99.5889 116.567L99.5622 121.004L98.957 121.349L98.9748 116.912L99.5889 116.567Z" fill="white"/>
<path d="M102.518 114.902V115.663L101.611 116.177L101.593 119.852L100.988 120.198L101.005 116.522L100.098 117.036L100.107 116.274L102.518 114.902Z" fill="white"/>
<path d="M105.481 113.13C106.193 112.723 106.673 112.935 106.825 113.706L106.282 114.202C106.139 113.777 105.872 113.671 105.481 113.892C105.186 114.073 104.954 114.339 104.813 114.654C104.628 115.053 104.537 115.489 104.546 115.929C104.503 116.272 104.595 116.618 104.804 116.894C104.898 116.969 105.014 117.01 105.134 117.01C105.253 117.01 105.37 116.969 105.463 116.894C105.676 116.756 105.859 116.576 105.998 116.364C106.138 116.152 106.231 115.913 106.273 115.663L106.816 115.539C106.76 115.969 106.609 116.381 106.373 116.746C106.138 117.11 105.824 117.418 105.454 117.647C105.298 117.768 105.105 117.834 104.907 117.834C104.708 117.834 104.516 117.768 104.359 117.647C104.189 117.457 104.062 117.233 103.987 116.99C103.912 116.747 103.89 116.491 103.923 116.239C103.915 115.571 104.071 114.911 104.377 114.317C104.625 113.826 105.008 113.414 105.481 113.13Z" fill="white"/>
<path d="M108.703 111.359L109.789 115.167L109.139 115.539L108.908 114.654L107.867 115.247L107.626 116.434L106.977 116.806L108.107 111.74L108.703 111.359ZM108.045 114.353L108.73 113.963L108.392 112.626L108.036 114.397" fill="white"/>
<path d="M111.773 112.094L112.663 113.564L111.986 113.954L111.096 112.537L110.785 112.714V114.627L110.18 114.972V110.544L111.363 109.871C111.995 109.508 112.351 109.809 112.351 110.571C112.364 111.134 112.156 111.68 111.773 112.094ZM111.399 111.616C111.524 111.546 111.626 111.442 111.693 111.317C111.761 111.191 111.792 111.049 111.782 110.907C111.782 110.571 111.657 110.473 111.408 110.624L110.82 110.96V111.961L111.408 111.625" fill="white"/>
<path d="M114.141 108.304C114.906 107.87 115.654 108.109 115.645 109.668C115.672 110.267 115.546 110.863 115.278 111.401C115.011 111.938 114.61 112.399 114.114 112.741L113.1 113.316V108.888L114.141 108.304ZM114.666 111.386C114.918 110.972 115.044 110.496 115.031 110.013C115.031 109.446 114.897 109.127 114.675 109.048C114.551 109.016 114.421 109.012 114.295 109.035C114.169 109.058 114.05 109.107 113.945 109.18L113.723 109.313V112.227L113.945 112.094C114.245 111.921 114.499 111.678 114.684 111.386" fill="white"/>
<path d="M88.1621 134.545V141.63C88.161 141.929 88.2391 142.223 88.3886 142.482C88.5382 142.742 88.7538 142.957 89.0137 143.107C89.2737 143.257 89.5688 143.337 89.8693 143.337C90.1698 143.337 90.4651 143.259 90.7253 143.109L100.667 137.459C100.934 137.313 101.157 137.1 101.314 136.84C101.47 136.58 101.554 136.283 101.557 135.98V128.744C101.556 128.441 101.475 128.144 101.32 127.884C101.166 127.623 100.944 127.408 100.679 127.261C100.413 127.113 100.112 127.04 99.8083 127.047C99.5042 127.054 99.2076 127.141 98.9489 127.3L89.0076 133.101C88.7537 133.249 88.5425 133.46 88.3944 133.713C88.2463 133.966 88.1663 134.252 88.1621 134.545Z" fill="#D1D1F5"/>
<path d="M105.446 128.567L105.677 128.434L105.383 132.862L104.858 133.172L105.081 129.86L104.484 130.692L104.547 129.833L105.446 128.567Z" fill="white"/>
<path d="M107.11 127.54H107.181C107.724 127.221 108.018 127.54 107.965 128.31C107.927 128.727 107.818 129.134 107.644 129.515L106.843 131.348L107.867 130.737L107.813 131.463L105.953 132.526V132.207L107.128 129.55C107.271 129.254 107.364 128.937 107.404 128.611C107.404 128.248 107.315 128.106 107.083 128.248C106.969 128.347 106.876 128.468 106.808 128.603C106.741 128.739 106.702 128.886 106.692 129.036L106.22 129.187C106.257 128.835 106.366 128.495 106.541 128.186C106.678 127.93 106.873 127.709 107.11 127.54Z" fill="white"/>
<path d="M108.713 126.619L110.377 125.627V125.91L109.603 127.726L109.718 127.637C110.163 127.38 110.404 127.743 110.359 128.523C110.335 128.959 110.216 129.385 110.012 129.771C109.864 130.073 109.644 130.335 109.371 130.533L109.282 130.586C109.015 130.755 108.793 130.763 108.633 130.631C108.538 130.533 108.467 130.415 108.426 130.286C108.384 130.157 108.372 130.021 108.392 129.887L108.9 129.488C108.9 129.878 109.078 130.002 109.327 129.86C109.474 129.737 109.593 129.584 109.675 129.411C109.758 129.239 109.803 129.05 109.807 128.859C109.807 128.354 109.674 128.195 109.407 128.354C109.318 128.418 109.24 128.496 109.175 128.585L108.997 128.266L109.62 126.796L108.73 127.345L108.713 126.619Z" fill="white"/>
<path d="M112.547 127.097L112.868 126.902L112.823 127.637L112.494 127.823L112.44 128.647L111.915 128.957L111.969 128.133L110.723 128.877V128.47L112.156 124.537L112.707 124.21L112.547 127.097ZM112.022 127.407L112.129 125.724L111.399 127.779L112.013 127.407" fill="white"/>
<path d="M116.135 124.962L116.464 124.768L116.411 125.503L116.09 125.689L116.037 126.521L115.521 126.831L115.574 126.008L114.328 126.751V126.353L115.77 122.421L116.322 122.093L116.135 124.962ZM115.61 125.272L115.725 123.581L114.996 125.644L115.61 125.272Z" fill="white"/>
<path d="M117.389 121.455L118.893 120.57L118.84 121.305L117.772 121.942L117.638 122.908C117.735 122.768 117.856 122.645 117.994 122.545H118.065C118.653 122.19 118.955 122.545 118.866 123.474C118.843 123.911 118.731 124.339 118.537 124.732C118.393 125.044 118.173 125.315 117.896 125.52L117.789 125.529C117.706 125.601 117.601 125.645 117.491 125.655C117.381 125.664 117.27 125.639 117.175 125.582C117.087 125.488 117.021 125.376 116.981 125.253C116.941 125.131 116.928 125.002 116.944 124.874L117.451 124.44C117.451 124.821 117.611 124.936 117.843 124.794C117.989 124.669 118.105 124.512 118.183 124.336C118.26 124.159 118.296 123.968 118.288 123.776C118.288 123.271 118.172 123.111 117.887 123.28H117.843C117.623 123.459 117.451 123.69 117.344 123.953L117.024 124.05L117.389 121.455Z" fill="white"/>
<path d="M121.084 121.181C121.178 121.306 121.245 121.449 121.281 121.602C121.316 121.754 121.319 121.913 121.288 122.066C121.258 122.485 121.14 122.892 120.941 123.262C120.793 123.569 120.573 123.836 120.3 124.041L120.22 124.094C120.127 124.173 120.009 124.216 119.887 124.216C119.764 124.216 119.646 124.173 119.553 124.094C119.454 123.972 119.383 123.829 119.346 123.676C119.309 123.522 119.307 123.363 119.339 123.209C119.361 122.906 119.427 122.607 119.535 122.323L120.532 119.498L121.11 119.153L120.372 121.172H120.443C120.71 121.012 120.923 121.012 121.084 121.181ZM120.763 122.367C120.763 121.925 120.621 121.765 120.363 121.925C120.224 122.041 120.112 122.186 120.033 122.35C119.955 122.513 119.913 122.691 119.909 122.872C119.909 123.297 120.06 123.466 120.309 123.315C120.449 123.197 120.563 123.05 120.642 122.886C120.722 122.721 120.766 122.541 120.772 122.359" fill="white"/>
<path d="M121.822 118.816L123.584 117.762L123.566 118.099L122.196 122.855L121.68 123.156L122.917 118.869L121.769 119.551L121.822 118.816Z" fill="white"/>
<path d="M126.378 118.063C126.628 118.134 126.734 118.409 126.699 118.896C126.674 119.304 126.556 119.701 126.352 120.056C126.205 120.339 125.995 120.585 125.738 120.773L125.658 120.827C125.565 120.899 125.451 120.939 125.333 120.939C125.215 120.939 125.1 120.899 125.008 120.827C124.913 120.712 124.845 120.578 124.81 120.434C124.774 120.29 124.772 120.139 124.803 119.994C124.827 119.529 124.984 119.08 125.257 118.701C125.088 118.595 125.017 118.356 125.043 117.975C125.068 117.624 125.169 117.283 125.337 116.974C125.466 116.708 125.659 116.477 125.898 116.301H125.96C126.209 116.159 126.396 116.15 126.539 116.301C126.619 116.401 126.676 116.517 126.706 116.64C126.737 116.764 126.741 116.893 126.717 117.018C126.691 117.389 126.575 117.748 126.378 118.063ZM126.174 119.215C126.188 119.146 126.187 119.075 126.172 119.006C126.156 118.938 126.127 118.873 126.085 118.816C126.014 118.754 125.916 118.754 125.791 118.816C125.674 118.901 125.579 119.014 125.515 119.144C125.427 119.308 125.376 119.489 125.364 119.675C125.349 119.744 125.35 119.815 125.365 119.884C125.381 119.953 125.41 120.017 125.453 120.074C125.524 120.136 125.622 120.145 125.738 120.074C125.855 119.989 125.95 119.876 126.014 119.746C126.102 119.582 126.154 119.401 126.165 119.215M126.218 117.32C126.218 116.983 126.111 116.85 125.898 116.974C125.79 117.065 125.703 117.177 125.641 117.304C125.58 117.431 125.546 117.569 125.542 117.709C125.542 118.046 125.649 118.196 125.853 118.072C125.964 117.979 126.053 117.864 126.116 117.735C126.179 117.605 126.214 117.463 126.218 117.32Z" fill="white"/>
<path d="M128.942 114.902C129.041 115.024 129.112 115.167 129.149 115.321C129.186 115.474 129.188 115.633 129.156 115.787C129.138 116.09 129.075 116.389 128.969 116.673L127.972 119.489L127.385 119.835L128.123 117.815H128.061C127.794 117.975 127.577 117.975 127.411 117.815C127.319 117.689 127.253 117.546 127.22 117.393C127.186 117.241 127.185 117.083 127.216 116.93C127.255 116.528 127.38 116.138 127.58 115.787C127.729 115.48 127.948 115.213 128.221 115.008L128.301 114.955C128.386 114.874 128.495 114.824 128.612 114.814C128.729 114.805 128.846 114.835 128.942 114.902ZM128.631 116.071C128.631 115.646 128.479 115.477 128.221 115.637C128.082 115.756 127.969 115.902 127.889 116.067C127.809 116.231 127.765 116.411 127.758 116.593C127.758 117.036 127.901 117.195 128.168 117.027C128.307 116.91 128.419 116.765 128.497 116.602C128.576 116.439 128.618 116.26 128.622 116.08" fill="white"/>
<path d="M129.645 114.158L131.416 113.104L131.39 113.431L130.028 118.187L129.512 118.488L130.749 114.202L129.601 114.893L129.645 114.158Z" fill="white"/>
<path d="M133.4 112.245C133.497 112.368 133.567 112.511 133.604 112.664C133.641 112.817 133.644 112.976 133.613 113.13C133.597 113.433 133.534 113.732 133.426 114.016L132.43 116.832L131.842 117.178L132.581 115.158H132.519C132.252 115.327 132.029 115.327 131.869 115.158C131.779 115.031 131.716 114.887 131.682 114.735C131.648 114.583 131.645 114.426 131.673 114.273C131.712 113.872 131.833 113.483 132.029 113.13C132.177 112.823 132.396 112.556 132.67 112.351L132.75 112.298C133.008 112.112 133.231 112.103 133.4 112.245ZM133.088 113.423C133.088 112.997 132.937 112.829 132.679 112.989C132.539 113.107 132.426 113.254 132.347 113.418C132.267 113.583 132.222 113.762 132.216 113.945C132.216 114.388 132.358 114.547 132.625 114.379C132.764 114.262 132.877 114.117 132.955 113.954C133.033 113.79 133.076 113.612 133.079 113.431" fill="white"/>
<path d="M95.9408 147.936L95.122 150.442L95.9764 152.143L95.3801 152.559L94.8105 151.416L94.1697 153.391L93.5645 153.808L94.5346 150.85L93.8048 149.406L94.4011 148.999L94.8461 149.884L95.3534 148.343L95.9408 147.936Z" fill="white"/>
<path d="M100.888 144.535L100.069 147.041L100.924 148.742L100.318 149.158L99.7577 148.016L99.108 149.991L98.5117 150.407L99.4729 147.449L98.752 146.005L99.3483 145.598L99.7933 146.484L100.301 144.943L100.888 144.535Z" fill="white"/>
<path d="M98.4154 146.235L97.5966 148.742L98.451 150.442L97.8458 150.858L97.2851 149.716L96.6354 151.691L96.0391 152.107L97.0003 149.149L96.2794 147.705L96.8757 147.298L97.3207 148.184L97.828 146.643L98.4154 146.235Z" fill="white"/>
<path d="M104.396 142.117L103.577 144.632L104.431 146.333L103.826 146.749L103.266 145.607L102.616 147.582L102.02 147.989L102.99 145.04L102.26 143.587L102.856 143.18L103.301 144.074L103.808 142.525L104.396 142.117Z" fill="white"/>
<path d="M106.87 140.417L106.052 142.932L106.906 144.632L106.301 145.049L105.74 143.897L105.09 145.881L104.494 146.289L105.464 143.339L104.734 141.887L105.331 141.48L105.776 142.365L106.283 140.824L106.87 140.417Z" fill="white"/>
<path d="M109.344 138.716L108.525 141.232L109.38 142.932L108.783 143.339L108.214 142.197L107.573 144.172L106.959 144.588L107.929 141.639L107.208 140.186L107.804 139.779L108.249 140.665L108.757 139.124L109.344 138.716Z" fill="white"/>
<path opacity="0.32" d="M233.268 160.662L259.505 176.409L299.617 152.887L271.6 136.936" fill="url(#paint7_linear_14657_9699)"/>
<path d="M175.036 57.4414C173.71 58.3506 172.638 59.5801 171.92 61.0146C171.202 62.4491 170.863 64.0415 170.933 65.6424C171.191 73.2146 172.891 74.6759 172.891 74.6759L185.022 68.7687L202.617 55.9712C202.617 55.9712 187.789 52.349 175.036 57.4414Z" fill="#666666"/>
<path d="M153.462 99.403C153.462 99.403 150.632 109.933 165.112 120.871C179.592 131.808 233.268 160.662 233.268 160.662L273.096 137.255V119.17L168.966 83.6121" fill="#E6E6E6"/>
<path d="M273.094 119.17L214.532 76.4206C214.532 76.4206 205.401 68.5916 197.373 69.3355C189.345 70.0794 157.27 91.4764 157.27 91.4764L236.417 142.356L273.094 119.17Z" fill="#333333"/>
<path d="M204.031 110.296L213.91 118.054L238.314 103.468L229.04 96.1526L204.031 110.296Z" fill="#70F9E9"/>
<path d="M191.402 103.778L235.733 137.255L265.539 120.286L221.173 86.8091L191.402 103.778Z" fill="url(#paint8_linear_14657_9699)"/>
<path d="M236.418 140.762L188.02 104.788C188.02 104.788 166.953 84.4711 158.872 90.5377C158.872 90.5377 154.244 92.2027 153.461 99.3941C153.461 99.3941 160.074 93.9385 166.998 98.1542C173.922 102.37 234.843 148.919 234.843 148.919L236.418 140.762Z" fill="#666666"/>
<path d="M236.419 140.762L273.096 119.17V126.132L234.844 148.928L236.419 140.762Z" fill="#515151"/>
<path d="M234.843 148.928L233.268 160.663C233.268 160.663 273.095 138.114 273.095 137.255V126.132L234.843 148.928Z" fill="#CCCCCC"/>
<path d="M189.766 92.9419L209.915 81.9866C209.915 81.9866 209.63 62.5557 201.905 50.6882C201.199 49.6488 200.14 48.8975 198.922 48.5722C197.704 48.2469 196.409 48.3692 195.275 48.9169L177.314 57.3659C177.314 57.3659 184.194 53.3097 189.766 92.9419Z" fill="#E6E6E6"/>
<path d="M188.803 69.3179L201.708 62.2771" stroke="#999999" stroke-width="1.015" stroke-miterlimit="10"/>
<path d="M189.711 72.2847L202.625 65.2439" stroke="#999999" stroke-width="1.015" stroke-miterlimit="10"/>
<path d="M190.227 75.1541L203.14 68.1133" stroke="#999999" stroke-width="1.015" stroke-miterlimit="10"/>
<path d="M192.061 87.137L204.966 80.0962" stroke="#999999" stroke-width="1.015" stroke-miterlimit="10"/>
<path d="M241.83 113.378C241.091 117.47 234.505 119.728 227.127 118.426C219.749 117.124 214.364 112.741 215.103 108.684C215.842 104.628 222.428 102.334 229.806 103.636C237.184 104.938 242.577 109.287 241.83 113.378Z" fill="white"/>
<path d="M225.676 114.45H231.576L229.218 105.859" stroke="url(#paint9_linear_14657_9699)" stroke-width="2" stroke-miterlimit="10"/>
<rect width="22.9892" height="2.92891" transform="matrix(0.866871 -0.498533 0.866871 0.498533 160.98 155.391)" fill="white"/>
<rect width="22.9892" height="2.92891" transform="matrix(0.866871 -0.498533 0.866871 0.498533 154.699 152.053)" fill="white"/>
<rect width="22.9892" height="2.92891" transform="matrix(0.866871 -0.498533 0.866871 0.498533 166.844 158.728)" fill="white"/>
<rect width="22.9892" height="2.92891" transform="matrix(0.866871 -0.498533 0.866871 0.498533 173.545 162.483)" fill="white"/>
<path opacity="0.5" d="M174.728 160.097C175.037 160.982 172.939 162.521 170.041 163.531C167.143 164.54 164.538 164.645 164.228 163.756C163.918 162.872 166.016 161.332 168.914 160.322C171.813 159.313 174.418 159.209 174.728 160.097Z" fill="#242993"/>
<path d="M167.391 156.872L167.424 155.963L167.638 155.429L167.772 155.871L167.391 156.872Z" fill="#DD821F"/>
<path d="M176.99 157.048L177.028 156.155C177.028 156.155 176.27 156.91 176.27 156.927C176.27 156.943 176.994 157.048 176.994 157.048H176.99Z" fill="#FFD85A"/>
<path d="M172.122 159.701C169.471 159.638 167.368 158.295 167.423 155.963C167.477 153.631 169.672 151.795 172.323 151.858C174.974 151.92 177.077 153.86 177.022 156.192C176.968 158.524 174.773 159.763 172.122 159.701V159.701Z" fill="#FFD85A"/>
<path d="M172.089 161.211C169.438 161.148 167.335 159.209 167.39 156.876C167.444 154.544 169.639 152.709 172.29 152.771C174.941 152.834 177.044 154.774 176.989 157.106C176.935 159.438 174.74 161.274 172.089 161.211V161.211Z" fill="#FFD85A"/>
<path d="M168.839 153.948C167.968 154.69 167.415 155.721 167.39 156.876C167.335 159.208 169.438 161.148 172.089 161.211C173.4 161.24 174.598 160.806 175.486 160.08L168.843 153.952L168.839 153.948Z" fill="#DD821F"/>
<path d="M172.092 161.019C169.559 160.961 167.548 159.104 167.603 156.877C167.657 154.649 169.751 152.892 172.285 152.955C174.819 153.013 176.829 154.87 176.775 157.098C176.72 159.325 174.626 161.082 172.092 161.019Z" fill="#F9BF30"/>
<path d="M172.111 160.227C170.079 160.176 168.463 158.691 168.509 156.902C168.551 155.112 170.234 153.702 172.27 153.752C174.301 153.802 175.918 155.287 175.872 157.077C175.83 158.867 174.146 160.277 172.111 160.227Z" fill="#F2B42A"/>
<path d="M175.871 157.077C175.871 157.002 175.871 156.931 175.871 156.856C175.704 158.537 174.074 159.83 172.127 159.784C170.179 159.738 168.617 158.366 168.529 156.68C168.521 156.751 168.517 156.826 168.513 156.902C168.471 158.691 170.083 160.176 172.114 160.227C174.146 160.277 175.829 158.866 175.875 157.077H175.871Z" fill="#FFD85A"/>
<path d="M172.893 157.26L172.139 156.563C171.41 156.726 170.057 157.035 168.973 157.289C169.241 158.095 169.898 158.762 170.757 159.117L172.893 157.264V157.26Z" fill="#FFD85A"/>
<path d="M171.707 159.363C171.828 159.375 171.95 159.388 172.071 159.388C172.959 159.409 173.772 159.121 174.379 158.629L173.148 157.49L171.707 159.359V159.363Z" fill="#FFD85A"/>
<path d="M171.331 155.817L169.907 154.503C169.429 154.92 169.002 155.379 168.885 155.992L171.331 155.817Z" fill="#FFD85A"/>
<path d="M172.073 154.14C174.104 154.19 175.721 155.675 175.675 157.465C175.666 157.828 175.591 158.174 175.457 158.495C175.708 158.07 175.855 157.59 175.867 157.077C175.909 155.287 174.297 153.802 172.266 153.752C170.645 153.714 169.246 154.603 168.727 155.871C169.351 154.812 170.624 154.106 172.073 154.14Z" fill="#DD821F"/>
<path d="M167.424 155.963C167.415 156.309 167.382 156.56 167.466 156.885C167.57 156.543 167.801 155.521 167.801 155.521L168.165 154.707L168.471 154.457L168.986 154.081L169.028 152.909C168.069 153.656 167.453 154.741 167.424 155.963Z" fill="#DD821F"/>
<path d="M176.717 155.842L176.738 155.6C176.738 155.567 176.767 155.537 176.796 155.537H176.813C176.847 155.537 176.872 155.567 176.872 155.6L176.851 155.842C176.851 155.875 176.821 155.904 176.792 155.904H176.775C176.742 155.904 176.717 155.875 176.717 155.842Z" fill="#DD821F"/>
<path d="M176.293 154.924L176.318 154.49C176.318 154.453 176.352 154.419 176.385 154.419H176.427C176.465 154.419 176.494 154.453 176.494 154.494L176.469 154.928C176.469 154.966 176.435 154.999 176.402 154.999H176.36C176.322 154.999 176.293 154.966 176.293 154.924Z" fill="#DD821F"/>
<path d="M175.707 154.119L175.732 153.702C175.732 153.656 175.77 153.622 175.812 153.622H175.887C175.929 153.622 175.963 153.66 175.963 153.706L175.937 154.123C175.937 154.169 175.9 154.202 175.858 154.202H175.782C175.741 154.202 175.707 154.165 175.707 154.119Z" fill="#DD821F"/>
<path d="M174.832 153.472L174.857 152.963C174.857 152.917 174.895 152.884 174.937 152.884H175.012C175.054 152.884 175.088 152.922 175.088 152.967L175.062 153.476C175.062 153.522 175.025 153.556 174.983 153.556H174.907C174.866 153.556 174.832 153.518 174.832 153.472Z" fill="#DD821F"/>
<path d="M173.953 153.047L173.982 152.463C173.982 152.417 174.02 152.383 174.062 152.383H174.137C174.179 152.383 174.213 152.421 174.213 152.467L174.183 153.051C174.183 153.097 174.146 153.13 174.104 153.13H174.029C173.987 153.13 173.953 153.093 173.953 153.047Z" fill="#DD821F"/>
<path d="M173.068 152.784L173.098 152.221C173.098 152.175 173.135 152.141 173.177 152.141H173.253C173.295 152.141 173.328 152.179 173.328 152.225L173.299 152.788C173.299 152.834 173.261 152.867 173.219 152.867H173.144C173.102 152.867 173.068 152.83 173.068 152.784Z" fill="#DD821F"/>
<path d="M172.182 152.696L172.211 152.125C172.211 152.079 172.249 152.045 172.291 152.045H172.366C172.408 152.045 172.441 152.083 172.441 152.129L172.412 152.7C172.412 152.746 172.374 152.78 172.332 152.78H172.257C172.215 152.78 172.182 152.742 172.182 152.696Z" fill="#DD821F"/>
<path d="M171.289 152.717L171.318 152.183C171.318 152.137 171.356 152.104 171.398 152.104H171.473C171.515 152.104 171.549 152.141 171.549 152.187L171.524 152.721C171.524 152.767 171.486 152.8 171.444 152.8H171.369C171.327 152.8 171.293 152.763 171.293 152.717H171.289Z" fill="#DD821F"/>
<path d="M170.393 152.909L170.418 152.392C170.418 152.346 170.455 152.312 170.497 152.312H170.573C170.615 152.312 170.648 152.35 170.648 152.396L170.623 152.913C170.623 152.959 170.585 152.993 170.543 152.993H170.468C170.426 152.993 170.393 152.955 170.393 152.909Z" fill="#DD821F"/>
<path d="M169.492 153.347L169.522 152.788C169.522 152.742 169.559 152.709 169.601 152.709H169.676C169.718 152.709 169.752 152.746 169.752 152.792L169.723 153.351C169.723 153.397 169.685 153.43 169.643 153.43H169.568C169.526 153.43 169.492 153.393 169.492 153.347Z" fill="#DD821F"/>
<path opacity="0.5" d="M131.724 196.81C132.034 197.694 129.935 199.234 127.037 200.243C124.139 201.253 121.534 201.353 121.224 200.469C120.914 199.584 123.012 198.045 125.91 197.035C128.809 196.026 131.414 195.925 131.724 196.81Z" fill="#242993"/>
<path d="M124.387 193.585L124.42 192.676L124.634 192.142L124.768 192.584L124.387 193.585Z" fill="#DD821F"/>
<path d="M133.986 193.76L134.024 192.867C134.024 192.867 133.266 193.623 133.266 193.639C133.266 193.656 133.99 193.76 133.99 193.76H133.986Z" fill="#FFD85A"/>
<path d="M129.118 196.414C126.467 196.351 124.365 195.008 124.419 192.676C124.473 190.343 126.668 188.508 129.319 188.57C131.97 188.633 134.073 190.573 134.018 192.905C133.964 195.237 131.769 196.476 129.118 196.414V196.414Z" fill="#FFD85A"/>
<path d="M129.081 197.924C126.43 197.861 124.327 195.921 124.382 193.589C124.436 191.257 126.631 189.421 129.282 189.484C131.933 189.547 134.036 191.486 133.981 193.819C133.927 196.151 131.732 197.986 129.081 197.924Z" fill="#FFD85A"/>
<path d="M125.835 190.66C124.964 191.403 124.411 192.433 124.386 193.589C124.331 195.921 126.434 197.861 129.085 197.924C130.396 197.953 131.594 197.519 132.482 196.793L125.839 190.665L125.835 190.66Z" fill="#DD821F"/>
<path d="M129.085 197.736C126.551 197.678 124.54 195.821 124.595 193.593C124.649 191.366 126.743 189.609 129.277 189.672C131.811 189.73 133.822 191.587 133.767 193.814C133.713 196.042 131.619 197.799 129.085 197.736V197.736Z" fill="#F9BF30"/>
<path d="M129.107 196.939C127.075 196.889 125.459 195.404 125.505 193.614C125.547 191.824 127.23 190.414 129.266 190.464C131.301 190.514 132.914 192 132.868 193.789C132.826 195.579 131.142 196.989 129.107 196.939Z" fill="#F2B42A"/>
<path d="M132.867 193.789C132.867 193.714 132.867 193.643 132.867 193.568C132.7 195.25 131.071 196.543 129.123 196.497C127.176 196.451 125.613 195.079 125.525 193.393C125.517 193.464 125.513 193.539 125.509 193.614C125.467 195.404 127.079 196.889 129.11 196.939C131.142 196.989 132.825 195.579 132.872 193.789H132.867Z" fill="#FFD85A"/>
<path d="M129.889 193.973L129.135 193.276C128.406 193.439 127.054 193.748 125.969 194.002C126.237 194.807 126.894 195.475 127.753 195.829L129.889 193.977V193.973Z" fill="#FFD85A"/>
<path d="M128.703 196.076C128.825 196.088 128.946 196.101 129.067 196.101C129.955 196.121 130.768 195.834 131.375 195.341L130.144 194.202L128.703 196.071V196.076Z" fill="#FFD85A"/>
<path d="M128.327 192.529L126.903 191.215C126.425 191.633 125.998 192.091 125.881 192.705L128.327 192.529Z" fill="#FFD85A"/>
<path d="M129.069 190.853C131.1 190.903 132.717 192.388 132.671 194.178C132.663 194.54 132.587 194.887 132.453 195.208C132.704 194.782 132.851 194.303 132.864 193.79C132.905 192 131.293 190.515 129.262 190.465C127.641 190.427 126.242 191.316 125.723 192.584C126.347 191.524 127.62 190.819 129.069 190.853V190.853Z" fill="#DD821F"/>
<path d="M124.42 192.676C124.412 193.022 124.378 193.272 124.462 193.598C124.567 193.256 124.797 192.233 124.797 192.233L125.161 191.42L125.467 191.17L125.982 190.794L126.024 189.622C125.065 190.369 124.449 191.453 124.42 192.676V192.676Z" fill="#DD821F"/>
<path d="M133.709 192.555L133.73 192.313C133.73 192.279 133.759 192.25 133.789 192.25H133.805C133.839 192.25 133.864 192.279 133.864 192.313L133.843 192.555C133.843 192.588 133.814 192.617 133.784 192.617H133.768C133.734 192.617 133.709 192.588 133.709 192.555Z" fill="#DD821F"/>
<path d="M133.289 191.637L133.314 191.203C133.314 191.165 133.348 191.132 133.381 191.132H133.423C133.461 191.132 133.49 191.165 133.49 191.207L133.465 191.641C133.465 191.678 133.431 191.712 133.398 191.712H133.356C133.318 191.712 133.289 191.678 133.289 191.637Z" fill="#DD821F"/>
<path d="M132.703 190.831L132.728 190.414C132.728 190.368 132.766 190.335 132.808 190.335H132.883C132.925 190.335 132.959 190.373 132.959 190.418L132.933 190.836C132.933 190.881 132.896 190.915 132.854 190.915H132.779C132.737 190.915 132.703 190.877 132.703 190.831Z" fill="#DD821F"/>
<path d="M131.828 190.185L131.853 189.676C131.853 189.63 131.891 189.597 131.933 189.597H132.008C132.05 189.597 132.084 189.634 132.084 189.68L132.058 190.189C132.058 190.235 132.021 190.268 131.979 190.268H131.904C131.862 190.268 131.828 190.231 131.828 190.185Z" fill="#DD821F"/>
<path d="M130.949 189.759L130.979 189.175C130.979 189.129 131.016 189.096 131.058 189.096H131.134C131.175 189.096 131.209 189.133 131.209 189.179L131.18 189.763C131.18 189.809 131.142 189.843 131.1 189.843H131.025C130.983 189.843 130.949 189.805 130.949 189.759Z" fill="#DD821F"/>
<path d="M130.064 189.501L130.094 188.937C130.094 188.892 130.131 188.858 130.173 188.858H130.249C130.291 188.858 130.324 188.896 130.324 188.942L130.295 189.505C130.295 189.551 130.257 189.584 130.215 189.584H130.14C130.098 189.584 130.064 189.547 130.064 189.501Z" fill="#DD821F"/>
<path d="M129.174 189.409L129.203 188.837C129.203 188.791 129.241 188.758 129.283 188.758H129.358C129.4 188.758 129.434 188.796 129.434 188.841L129.404 189.413C129.404 189.459 129.366 189.492 129.325 189.492H129.249C129.207 189.492 129.174 189.455 129.174 189.409Z" fill="#DD821F"/>
<path d="M128.285 189.43L128.314 188.896C128.314 188.85 128.352 188.816 128.394 188.816H128.469C128.511 188.816 128.545 188.854 128.545 188.9L128.516 189.434C128.516 189.48 128.478 189.513 128.436 189.513H128.361C128.319 189.513 128.285 189.476 128.285 189.43Z" fill="#DD821F"/>
<path d="M127.389 189.622L127.414 189.104C127.414 189.059 127.451 189.025 127.493 189.025H127.569C127.611 189.025 127.644 189.063 127.644 189.109L127.619 189.626C127.619 189.672 127.581 189.705 127.539 189.705H127.464C127.422 189.705 127.389 189.668 127.389 189.622Z" fill="#DD821F"/>
<path d="M126.488 190.06L126.518 189.501C126.518 189.455 126.555 189.421 126.597 189.421H126.673C126.714 189.421 126.748 189.459 126.748 189.505L126.719 190.064C126.719 190.11 126.681 190.143 126.639 190.143H126.564C126.522 190.143 126.488 190.106 126.488 190.06Z" fill="#DD821F"/>
<path opacity="0.5" d="M326.058 194.311C326.368 195.195 324.269 196.735 321.371 197.744C318.473 198.754 315.868 198.858 315.558 197.97C315.248 197.085 317.346 195.546 320.244 194.536C323.143 193.527 325.748 193.422 326.058 194.311Z" fill="#242993"/>
<path d="M318.717 191.086L318.755 190.177L318.964 189.643L319.102 190.085L318.717 191.086Z" fill="#DD821F"/>
<path d="M328.32 191.261L328.358 190.368C328.358 190.368 327.6 191.124 327.6 191.14C327.6 191.157 328.324 191.261 328.324 191.261H328.32Z" fill="#FFD85A"/>
<path d="M323.452 193.91C320.801 193.848 318.699 192.504 318.753 190.172C318.807 187.84 321.002 186.005 323.653 186.067C326.304 186.13 328.407 188.07 328.352 190.402C328.298 192.734 326.103 193.973 323.452 193.91V193.91Z" fill="#FFD85A"/>
<path d="M323.415 195.421C320.764 195.358 318.661 193.418 318.716 191.086C318.77 188.754 320.965 186.918 323.616 186.981C326.267 187.043 328.37 188.983 328.315 191.315C328.261 193.647 326.066 195.483 323.415 195.421V195.421Z" fill="#FFD85A"/>
<path d="M320.165 188.157C319.294 188.9 318.741 189.93 318.716 191.086C318.661 193.418 320.764 195.358 323.415 195.42C324.726 195.454 325.924 195.016 326.812 194.29L320.169 188.161L320.165 188.157Z" fill="#DD821F"/>
<path d="M323.419 195.233C320.885 195.174 318.874 193.318 318.929 191.09C318.983 188.862 321.077 187.106 323.611 187.169C326.145 187.231 328.155 189.084 328.101 191.311C328.047 193.539 325.952 195.295 323.419 195.233Z" fill="#F9BF30"/>
<path d="M323.441 194.436C321.409 194.386 319.793 192.901 319.839 191.111C319.881 189.321 321.564 187.911 323.6 187.961C325.631 188.011 327.248 189.497 327.202 191.286C327.16 193.076 325.476 194.486 323.441 194.436Z" fill="#F2B42A"/>
<path d="M327.197 191.29C327.197 191.215 327.197 191.144 327.197 191.069C327.03 192.751 325.401 194.044 323.453 193.998C321.506 193.952 319.943 192.579 319.855 190.894C319.847 190.965 319.843 191.04 319.839 191.115C319.797 192.905 321.409 194.39 323.441 194.44C325.472 194.49 327.156 193.08 327.202 191.29H327.197Z" fill="#FFD85A"/>
<path d="M324.223 191.474L323.469 190.777C322.74 190.94 321.387 191.249 320.303 191.503C320.571 192.308 321.228 192.976 322.087 193.33L324.223 191.478V191.474Z" fill="#FFD85A"/>
<path d="M323.033 193.572C323.155 193.585 323.276 193.597 323.398 193.597C324.285 193.618 325.098 193.326 325.705 192.838L324.474 191.699L323.033 193.568V193.572Z" fill="#FFD85A"/>
<path d="M322.657 190.03L321.233 188.716C320.755 189.133 320.328 189.592 320.211 190.206L322.657 190.03Z" fill="#FFD85A"/>
<path d="M323.403 188.349C325.434 188.399 327.051 189.885 327.005 191.674C326.997 192.037 326.921 192.384 326.787 192.705C327.038 192.279 327.185 191.799 327.198 191.286C327.239 189.497 325.627 188.011 323.596 187.961C321.975 187.924 320.576 188.812 320.057 190.081C320.681 189.021 321.954 188.316 323.403 188.349V188.349Z" fill="#DD821F"/>
<path d="M318.754 190.177C318.746 190.523 318.712 190.773 318.796 191.099C318.901 190.757 319.131 189.734 319.131 189.734L319.495 188.921L319.801 188.671L320.316 188.295L320.358 187.123C319.399 187.87 318.783 188.954 318.754 190.177V190.177Z" fill="#DD821F"/>
<path d="M328.043 190.056L328.064 189.814C328.064 189.78 328.093 189.751 328.123 189.751H328.139C328.173 189.751 328.198 189.78 328.198 189.814L328.177 190.056C328.177 190.089 328.148 190.118 328.118 190.118H328.102C328.068 190.118 328.043 190.089 328.043 190.056Z" fill="#DD821F"/>
<path d="M327.619 189.133L327.644 188.7C327.644 188.662 327.678 188.629 327.711 188.629H327.753C327.791 188.629 327.82 188.662 327.82 188.704L327.795 189.138C327.795 189.175 327.762 189.209 327.728 189.209H327.686C327.648 189.209 327.619 189.175 327.619 189.133Z" fill="#DD821F"/>
<path d="M327.037 188.332L327.062 187.915C327.062 187.869 327.1 187.836 327.142 187.836H327.217C327.259 187.836 327.293 187.873 327.293 187.919L327.267 188.337C327.267 188.382 327.23 188.416 327.188 188.416H327.112C327.071 188.416 327.037 188.378 327.037 188.332Z" fill="#DD821F"/>
<path d="M326.162 187.682L326.187 187.173C326.187 187.127 326.225 187.094 326.267 187.094H326.342C326.384 187.094 326.418 187.131 326.418 187.177L326.392 187.686C326.392 187.732 326.355 187.765 326.313 187.765H326.238C326.196 187.765 326.162 187.728 326.162 187.682Z" fill="#DD821F"/>
<path d="M325.279 187.256L325.309 186.672C325.309 186.626 325.346 186.593 325.388 186.593H325.464C325.505 186.593 325.539 186.63 325.539 186.676L325.51 187.26C325.51 187.306 325.472 187.34 325.43 187.34H325.355C325.313 187.34 325.279 187.302 325.279 187.256Z" fill="#DD821F"/>
<path d="M324.395 186.997L324.424 186.434C324.424 186.388 324.462 186.355 324.503 186.355H324.579C324.621 186.355 324.654 186.393 324.654 186.438L324.625 187.002C324.625 187.048 324.587 187.081 324.545 187.081H324.47C324.428 187.081 324.395 187.043 324.395 186.997Z" fill="#DD821F"/>
<path d="M323.508 186.91L323.537 186.338C323.537 186.292 323.575 186.259 323.617 186.259H323.692C323.734 186.259 323.767 186.297 323.767 186.342L323.738 186.914C323.738 186.96 323.7 186.993 323.659 186.993H323.583C323.541 186.993 323.508 186.956 323.508 186.91Z" fill="#DD821F"/>
<path d="M322.616 186.926L322.641 186.392C322.641 186.347 322.678 186.313 322.72 186.313H322.796C322.837 186.313 322.871 186.351 322.871 186.397L322.842 186.931C322.842 186.977 322.804 187.01 322.762 187.01H322.687C322.645 187.01 322.611 186.972 322.611 186.926H322.616Z" fill="#DD821F"/>
<path d="M321.719 187.123L321.744 186.605C321.744 186.559 321.782 186.526 321.823 186.526H321.899C321.941 186.526 321.974 186.564 321.974 186.61L321.949 187.127C321.949 187.173 321.911 187.206 321.87 187.206H321.794C321.752 187.206 321.719 187.169 321.719 187.123Z" fill="#DD821F"/>
<path d="M320.818 187.557L320.848 186.997C320.848 186.952 320.885 186.918 320.927 186.918H321.003C321.045 186.918 321.078 186.956 321.078 187.002L321.049 187.561C321.049 187.607 321.011 187.64 320.969 187.64H320.894C320.852 187.64 320.818 187.602 320.818 187.557Z" fill="#DD821F"/>
<path opacity="0.5" d="M78.5322 218.921C78.8421 219.805 76.7438 221.345 73.8456 222.354C70.9473 223.364 68.3422 223.464 68.0323 222.579C67.7224 221.695 69.8207 220.156 72.7189 219.146C75.6172 218.136 78.2223 218.036 78.5322 218.921Z" fill="#242993"/>
<path d="M71.1953 215.696L71.2288 214.786L71.4424 214.252L71.5764 214.695L71.1953 215.696Z" fill="#DD821F"/>
<path d="M80.7946 215.871L80.8323 214.978C80.8323 214.978 80.0742 215.733 80.0742 215.75C80.0742 215.767 80.7988 215.871 80.7988 215.871H80.7946Z" fill="#FFD85A"/>
<path d="M75.9268 218.524C73.2756 218.462 71.1731 217.118 71.2276 214.786C71.282 212.454 73.4767 210.619 76.1278 210.681C78.779 210.744 80.8815 212.684 80.827 215.016C80.7726 217.348 78.5779 218.587 75.9268 218.524V218.524Z" fill="#FFD85A"/>
<path d="M75.8897 220.035C73.2385 219.972 71.136 218.032 71.1905 215.7C71.2449 213.368 73.4396 211.532 76.0907 211.595C78.7419 211.657 80.8444 213.597 80.7899 215.929C80.7355 218.261 78.5408 220.097 75.8897 220.035Z" fill="#FFD85A"/>
<path d="M72.6435 212.771C71.7724 213.514 71.2195 214.544 71.1944 215.7C71.1399 218.032 73.2424 219.972 75.8936 220.034C77.2045 220.064 78.4024 219.63 79.2903 218.904L72.6477 212.775L72.6435 212.771Z" fill="#DD821F"/>
<path d="M75.8932 219.847C73.3593 219.788 71.349 217.932 71.4034 215.704C71.4579 213.476 73.552 211.72 76.0859 211.783C78.6198 211.841 80.6301 213.698 80.5757 215.925C80.5212 218.153 78.4271 219.909 75.8932 219.847V219.847Z" fill="#F9BF30"/>
<path d="M75.9153 219.05C73.8841 219 72.2674 217.515 72.3135 215.725C72.3553 213.935 74.039 212.525 76.0745 212.575C78.11 212.625 79.7224 214.111 79.6764 215.9C79.6345 217.69 77.9508 219.1 75.9153 219.05Z" fill="#F2B42A"/>
<path d="M79.6759 215.9C79.6759 215.825 79.6759 215.754 79.6759 215.679C79.5084 217.36 77.8792 218.654 75.9317 218.608C73.9841 218.562 72.4219 217.189 72.334 215.504C72.3256 215.575 72.3214 215.65 72.3172 215.725C72.2753 217.515 73.8878 219 75.9191 219.05C77.9504 219.1 79.6341 217.69 79.6801 215.9H79.6759Z" fill="#FFD85A"/>
<path d="M76.6975 216.084L75.9436 215.387C75.2149 215.55 73.8621 215.858 72.7773 216.113C73.0454 216.918 73.7029 217.586 74.5615 217.94L76.6975 216.088V216.084Z" fill="#FFD85A"/>
<path d="M75.5117 218.186C75.6332 218.199 75.7546 218.211 75.8761 218.211C76.764 218.232 77.5765 217.944 78.1838 217.452L76.9525 216.313L75.5117 218.182V218.186Z" fill="#FFD85A"/>
<path d="M75.1354 214.64L73.7114 213.326C73.2339 213.743 72.8067 214.202 72.6895 214.816L75.1354 214.64Z" fill="#FFD85A"/>
<path d="M75.8776 212.963C77.9089 213.013 79.5256 214.499 79.4795 216.288C79.4712 216.651 79.3958 216.998 79.2617 217.319C79.513 216.893 79.6596 216.413 79.6722 215.9C79.7141 214.111 78.1016 212.625 76.0703 212.575C74.4495 212.538 73.0506 213.426 72.5312 214.695C73.1553 213.635 74.4285 212.93 75.8776 212.963V212.963Z" fill="#DD821F"/>
<path d="M71.2285 214.786C71.2202 215.133 71.1866 215.383 71.2704 215.708C71.3751 215.366 71.6055 214.344 71.6055 214.344L71.9698 213.531L72.2756 213.28L72.7907 212.905L72.8326 211.733C71.8735 212.479 71.2579 213.564 71.2285 214.786V214.786Z" fill="#DD821F"/>
<path d="M80.5176 214.665L80.5385 214.423C80.5385 214.39 80.5678 214.361 80.5972 214.361H80.6139C80.6474 214.361 80.6725 214.39 80.6725 214.423L80.6516 214.665C80.6516 214.699 80.6223 214.728 80.593 214.728H80.5762C80.5427 214.728 80.5176 214.699 80.5176 214.665Z" fill="#DD821F"/>
<path d="M80.0977 213.747L80.1228 213.314C80.1228 213.276 80.1563 213.243 80.1898 213.243H80.2317C80.2694 213.243 80.2987 213.276 80.2987 213.318L80.2736 213.752C80.2736 213.789 80.2401 213.823 80.2066 213.823H80.1647C80.127 213.823 80.0977 213.789 80.0977 213.747Z" fill="#DD821F"/>
<path d="M79.5117 212.942L79.5368 212.525C79.5368 212.479 79.5745 212.446 79.6164 212.446H79.6918C79.7337 212.446 79.7672 212.483 79.7672 212.529L79.7421 212.946C79.7421 212.992 79.7044 213.026 79.6625 213.026H79.5871C79.5452 213.026 79.5117 212.988 79.5117 212.942Z" fill="#DD821F"/>
<path d="M78.6367 212.296L78.6618 211.787C78.6618 211.741 78.6995 211.708 78.7414 211.708H78.8168C78.8587 211.708 78.8922 211.745 78.8922 211.791L78.8671 212.3C78.8671 212.346 78.8294 212.379 78.7875 212.379H78.7121C78.6702 212.379 78.6367 212.342 78.6367 212.296Z" fill="#DD821F"/>
<path d="M77.7578 211.87L77.7871 211.286C77.7871 211.24 77.8248 211.207 77.8667 211.207H77.9421C77.984 211.207 78.0175 211.244 78.0175 211.29L77.9882 211.874C77.9882 211.92 77.9505 211.954 77.9086 211.954H77.8332C77.7913 211.954 77.7578 211.916 77.7578 211.87Z" fill="#DD821F"/>
<path d="M76.873 211.611L76.9024 211.048C76.9024 211.002 76.9401 210.969 76.9819 210.969H77.0573C77.0992 210.969 77.1327 211.007 77.1327 211.052L77.1034 211.616C77.1034 211.662 77.0657 211.695 77.0238 211.695H76.9484C76.9066 211.695 76.873 211.657 76.873 211.611Z" fill="#DD821F"/>
<path d="M75.9824 211.52L76.0117 210.948C76.0117 210.902 76.0494 210.869 76.0913 210.869H76.1667C76.2086 210.869 76.2421 210.906 76.2421 210.952L76.2128 211.524C76.2128 211.57 76.1751 211.603 76.1332 211.603H76.0578C76.0159 211.603 75.9824 211.566 75.9824 211.52Z" fill="#DD821F"/>
<path d="M75.0938 211.541L75.1231 211.007C75.1231 210.961 75.1608 210.927 75.2026 210.927H75.278C75.3199 210.927 75.3534 210.965 75.3534 211.011L75.3241 211.545C75.3241 211.591 75.2864 211.624 75.2445 211.624H75.1691C75.1273 211.624 75.0938 211.586 75.0938 211.541Z" fill="#DD821F"/>
<path d="M74.1973 211.733L74.2224 211.215C74.2224 211.169 74.2601 211.136 74.302 211.136H74.3774C74.4192 211.136 74.4527 211.174 74.4527 211.219L74.4276 211.737C74.4276 211.783 74.3899 211.816 74.348 211.816H74.2727C74.2308 211.816 74.1973 211.778 74.1973 211.733Z" fill="#DD821F"/>
<path d="M73.2969 212.171L73.3262 211.611C73.3262 211.566 73.3639 211.532 73.4058 211.532H73.4811C73.523 211.532 73.5565 211.57 73.5565 211.616L73.5272 212.175C73.5272 212.221 73.4895 212.254 73.4476 212.254H73.3723C73.3304 212.254 73.2969 212.216 73.2969 212.171Z" fill="#DD821F"/>
</g>
<defs>
<filter id="filter0_d_14657_9699" x="125.621" y="126.934" width="132.869" height="92.0181" filterUnits="userSpaceOnUse" color-interpolation-filters="sRGB">
<feFlood flood-opacity="0" result="BackgroundImageFix"/>
<feColorMatrix in="SourceAlpha" type="matrix" values="0 0 0 0 0 0 0 0 0 0 0 0 0 0 0 0 0 0 127 0" result="hardAlpha"/>
<feOffset dy="10"/>
<feGaussianBlur stdDeviation="8.5"/>
<feComposite in2="hardAlpha" operator="out"/>
<feColorMatrix type="matrix" values="0 0 0 0 0 0 0 0 0 0 0 0 0 0 0 0 0 0 0.08 0"/>
<feBlend mode="normal" in2="BackgroundImageFix" result="effect1_dropShadow_14657_9699"/>
<feBlend mode="normal" in="SourceGraphic" in2="effect1_dropShadow_14657_9699" result="shape"/>
</filter>
<linearGradient id="paint0_linear_14657_9699" x1="195.5" y1="2" x2="195.5" y2="324" gradientUnits="userSpaceOnUse">
<stop stop-color="#10CC81" stop-opacity="0.1"/>
<stop offset="1" stop-color="white" stop-opacity="0"/>
</linearGradient>
<linearGradient id="paint1_linear_14657_9699" x1="109.465" y1="104.297" x2="265.176" y2="193.683" gradientUnits="userSpaceOnUse">
<stop stop-color="#E7FAF4"/>
<stop offset="1" stop-color="#E7FAF4" stop-opacity="0"/>
</linearGradient>
<linearGradient id="paint2_linear_14657_9699" x1="250.782" y1="219.761" x2="245.674" y2="211.768" gradientUnits="userSpaceOnUse">
<stop stop-color="white" stop-opacity="0"/>
<stop offset="0.98" stop-color="#1B9B48" stop-opacity="0.14"/>
</linearGradient>
<linearGradient id="paint3_linear_14657_9699" x1="169.247" y1="139.707" x2="184.748" y2="251.917" gradientUnits="userSpaceOnUse">
<stop stop-color="#17E180"/>
<stop offset="1" stop-color="#009883"/>
</linearGradient>
<linearGradient id="paint4_linear_14657_9699" x1="326.071" y1="174.412" x2="323.476" y2="169.995" gradientUnits="userSpaceOnUse">
<stop stop-color="white" stop-opacity="0"/>
<stop offset="0.98" stop-color="#1B9B48" stop-opacity="0.14"/>
</linearGradient>
<linearGradient id="paint5_linear_14657_9699" x1="135.669" y1="168.964" x2="129.859" y2="159.337" gradientUnits="userSpaceOnUse">
<stop stop-color="white" stop-opacity="0"/>
<stop offset="0.98" stop-color="#1B9B48" stop-opacity="0.14"/>
</linearGradient>
<linearGradient id="paint6_linear_14657_9699" x1="88.426" y1="67.0823" x2="126.004" y2="196.255" gradientUnits="userSpaceOnUse">
<stop stop-color="#17E180"/>
<stop offset="1" stop-color="#009883"/>
</linearGradient>
<linearGradient id="paint7_linear_14657_9699" x1="272.866" y1="166.819" x2="268.37" y2="159.685" gradientUnits="userSpaceOnUse">
<stop stop-color="white" stop-opacity="0"/>
<stop offset="0.98" stop-color="#1B9B48" stop-opacity="0.14"/>
</linearGradient>
<linearGradient id="paint8_linear_14657_9699" x1="199.627" y1="73.5325" x2="213.563" y2="161.282" gradientUnits="userSpaceOnUse">
<stop stop-color="#17E180"/>
<stop offset="1" stop-color="#009883"/>
</linearGradient>
<linearGradient id="paint9_linear_14657_9699" x1="226.33" y1="103.598" x2="230.997" y2="117.333" gradientUnits="userSpaceOnUse">
<stop stop-color="#17E180"/>
<stop offset="1" stop-color="#009883"/>
</linearGradient>
<clipPath id="clip0_14657_9699">
<rect width="356" height="267" fill="white" transform="translate(19)"/>
</clipPath>
</defs>
</svg>
