<svg width="20" height="20" viewBox="0 0 20 20" fill="none" xmlns="http://www.w3.org/2000/svg">
<mask id="mask0_14283_14835" style="mask-type:alpha" maskUnits="userSpaceOnUse" x="0" y="0" width="20" height="20">
<rect width="20" height="20" fill="#D9D9D9"/>
</mask>
<g mask="url(#mask0_14283_14835)">
<path d="M7.52294 12.4335L15.0805 5.32046C15.3075 5.10682 15.5707 5 15.87 5C16.1694 5 16.4325 5.10682 16.6595 5.32046C16.8865 5.5341 17 5.78179 17 6.06353C17 6.34528 16.8865 6.59297 16.6595 6.80661L8.29609 14.6781C8.0691 14.8927 7.80593 15 7.50658 15C7.20724 15 6.94407 14.8927 6.71708 14.6781L3.34048 11.5015C3.11349 11.287 3 11.0388 3 10.7571C3 10.4753 3.11349 10.2276 3.34048 10.014C3.56747 9.80035 3.83064 9.69353 4.12999 9.69353C4.42934 9.69353 4.69301 9.80035 4.92099 10.014L7.52294 12.4335Z" fill="white"/>
</g>
</svg>
