<svg width="14" height="14" viewBox="0 0 14 14" fill="none" xmlns="http://www.w3.org/2000/svg">
<mask id="mask0_14433_8583" style="mask-type:alpha" maskUnits="userSpaceOnUse" x="0" y="0" width="14" height="14">
<rect width="14" height="14" transform="matrix(-1 0 0 1 14 0)" fill="#D9D9D9"/>
</mask>
<g mask="url(#mask0_14433_8583)">
<path d="M9.81573 12.2934C9.97113 12.138 10.0488 11.9584 10.0488 11.7544C10.0488 11.55 9.97113 11.3701 9.81573 11.2147L5.60103 7.00005L9.83043 2.77065C9.97603 2.62505 10.0488 2.45005 10.0488 2.24565C10.0488 2.04172 9.97113 1.86205 9.81573 1.70665C9.66966 1.56058 9.49209 1.48755 9.28303 1.48755C9.07396 1.48755 8.89663 1.56058 8.75103 1.70665L3.89443 6.56255C3.82676 6.63068 3.77823 6.70115 3.74883 6.77395C3.71989 6.84675 3.70543 6.92212 3.70543 7.00005C3.70543 7.07798 3.71989 7.15335 3.74883 7.22615C3.77823 7.29895 3.82676 7.36942 3.89443 7.43755L8.76573 12.3081C8.92113 12.464 9.09846 12.537 9.29773 12.5272C9.49699 12.5174 9.66966 12.4395 9.81573 12.2934Z" fill="#777E90"/>
</g>
</svg>
