<svg width="20" height="20" viewBox="0 0 20 20" fill="none" xmlns="http://www.w3.org/2000/svg">
<mask id="mask0_13206_12006" style="mask-type:alpha" maskUnits="userSpaceOnUse" x="0" y="0" width="20" height="20">
<rect width="20" height="20" fill="#D9D9D9"/>
</mask>
<g mask="url(#mask0_13206_12006)">
<path d="M14 16C14.1387 16 14.2567 15.9513 14.354 15.854C14.4513 15.7567 14.5 15.6387 14.5 15.5V14.5C14.5 14.3613 14.4513 14.2433 14.354 14.146C14.2567 14.0487 14.1387 14 14 14C13.8613 14 13.7433 14.0487 13.646 14.146C13.5487 14.2433 13.5 14.3613 13.5 14.5V15.5C13.5 15.6387 13.5487 15.7567 13.646 15.854C13.7433 15.9513 13.8613 16 14 16ZM14 13C14.1387 13 14.2567 12.955 14.354 12.865C14.4513 12.7743 14.5 12.6527 14.5 12.5C14.5 12.3613 14.4513 12.2433 14.354 12.146C14.2567 12.0487 14.1387 12 14 12C13.8473 12 13.7257 12.0487 13.635 12.146C13.545 12.2433 13.5 12.3613 13.5 12.5C13.5 12.6527 13.545 12.7743 13.635 12.865C13.7257 12.955 13.8473 13 14 13ZM14 18C12.8887 18 11.9443 17.611 11.167 16.833C10.389 16.0557 10 15.1113 10 14C10 12.8887 10.389 11.9443 11.167 11.167C11.9443 10.389 12.8887 10 14 10C15.1113 10 16.0557 10.389 16.833 11.167C17.611 11.9443 18 12.8887 18 14C18 15.1113 17.611 16.0557 16.833 16.833C16.0557 17.611 15.1113 18 14 18ZM10.75 7H13.5L10 3.5V6.25C10 6.458 10.073 6.635 10.219 6.781C10.365 6.927 10.542 7 10.75 7ZM4.5 18C4.08333 18 3.72933 17.854 3.438 17.562C3.146 17.2707 3 16.9167 3 16.5V3.5C3 3.08333 3.146 2.72933 3.438 2.438C3.72933 2.146 4.08333 2 4.5 2H10.375C10.5697 2 10.7573 2.03467 10.938 2.104C11.118 2.17333 11.2847 2.28467 11.438 2.438L14.562 5.562C14.7153 5.71533 14.8267 5.88233 14.896 6.063C14.9653 6.243 15 6.43033 15 6.625V8.583C14.8333 8.55567 14.67 8.535 14.51 8.521C14.3507 8.507 14.1877 8.5 14.021 8.5C13.1597 8.5 12.361 8.677 11.625 9.031C10.889 9.385 10.264 9.87467 9.75 10.5H6.75C6.542 10.5 6.365 10.573 6.219 10.719C6.073 10.865 6 11.042 6 11.25C6 11.458 6.073 11.635 6.219 11.781C6.365 11.927 6.542 12 6.75 12H8.875C8.77767 12.236 8.70133 12.479 8.646 12.729C8.59 12.979 8.54833 13.236 8.521 13.5H6.75C6.542 13.5 6.365 13.573 6.219 13.719C6.073 13.865 6 14.042 6 14.25C6 14.458 6.073 14.635 6.219 14.781C6.365 14.927 6.542 15 6.75 15H8.583C8.69433 15.5833 8.889 16.1283 9.167 16.635C9.44433 17.1423 9.79833 17.5973 10.229 18H4.5Z" fill="#777E90"/>
</g>
</svg>
