<svg width="20" height="20" viewBox="0 0 20 20" fill="none" xmlns="http://www.w3.org/2000/svg">
<g clip-path="url(#clip0_14350_8700)">
<mask id="mask0_14350_8700" style="mask-type:alpha" maskUnits="userSpaceOnUse" x="0" y="1" width="20" height="20">
<rect y="1" width="20" height="20" fill="#D9D9D9"/>
</mask>
<g mask="url(#mask0_14350_8700)">
<path d="M13.8333 14.375C14.1806 14.375 14.4757 14.2535 14.7187 14.0104C14.9618 13.7674 15.0833 13.4722 15.0833 13.125C15.0833 12.7778 14.9618 12.4826 14.7187 12.2396C14.4757 11.9965 14.1806 11.875 13.8333 11.875C13.4861 11.875 13.191 11.9965 12.9479 12.2396C12.7049 12.4826 12.5833 12.7778 12.5833 13.125C12.5833 13.4722 12.7049 13.7674 12.9479 14.0104C13.191 14.2535 13.4861 14.375 13.8333 14.375ZM13.8333 16.875C14.2639 16.875 14.6597 16.7743 15.0208 16.5729C15.3819 16.3715 15.6736 16.1042 15.8958 15.7708C15.5903 15.5903 15.2639 15.4514 14.9167 15.3542C14.5694 15.2569 14.2083 15.2083 13.8333 15.2083C13.4583 15.2083 13.0972 15.2569 12.75 15.3542C12.4028 15.4514 12.0764 15.5903 11.7708 15.7708C11.9931 16.1042 12.2847 16.3715 12.6458 16.5729C13.0069 16.7743 13.4028 16.875 13.8333 16.875ZM13.8333 18.5417C12.6806 18.5417 11.6979 18.1354 10.8854 17.3229C10.0729 16.5104 9.66667 15.5278 9.66667 14.375C9.66667 13.2222 10.0729 12.2396 10.8854 11.4271C11.6979 10.6146 12.6806 10.2083 13.8333 10.2083C14.9861 10.2083 15.9687 10.6146 16.7812 11.4271C17.5937 12.2396 18 13.2222 18 14.375C18 15.5278 17.5937 16.5104 16.7812 17.3229C15.9687 18.1354 14.9861 18.5417 13.8333 18.5417ZM9.46875 18.4792C9.40625 18.4792 9.34028 18.4653 9.27083 18.4375C7.45139 17.8819 5.95139 16.7569 4.77083 15.0625C3.59028 13.3681 3 11.5 3 9.45833V5.52083C3 5.17361 3.10069 4.86111 3.30208 4.58333C3.50347 4.30556 3.76389 4.10417 4.08333 3.97917L9.08333 2.10417C9.27778 2.03472 9.47222 2 9.66667 2C9.86111 2 10.0556 2.03472 10.25 2.10417L15.25 3.97917C15.5694 4.10417 15.8299 4.30556 16.0312 4.58333C16.2326 4.86111 16.3333 5.17361 16.3333 5.52083V9.10417C15.9306 8.92361 15.5243 8.78472 15.1146 8.6875C14.7049 8.59028 14.2778 8.54167 13.8333 8.54167C12.2222 8.54167 10.8472 9.11111 9.70833 10.25C8.56944 11.3889 8 12.7639 8 14.375C8 15.1667 8.13889 15.9063 8.41667 16.5938C8.69444 17.2813 9.11806 17.9097 9.6875 18.4792H9.46875Z" fill="#777E90"/>
</g>
</g>
<defs>
<clipPath id="clip0_14350_8700">
<rect width="20" height="20" fill="white"/>
</clipPath>
</defs>
</svg>
