<svg width="20" height="20" viewBox="0 0 20 20" fill="none" xmlns="http://www.w3.org/2000/svg">
<g clip-path="url(#clip0_14350_8690)">
<mask id="mask0_14350_8690" style="mask-type:alpha" maskUnits="userSpaceOnUse" x="0" y="0" width="20" height="20">
<path d="M20 0H0V20H20V0Z" fill="#7B52F7"/>
</mask>
<g mask="url(#mask0_14350_8690)">
<path d="M12.084 12.542C12.5567 12.542 12.9597 12.3753 13.293 12.042C13.6263 11.7087 13.793 11.3057 13.793 10.833C13.793 10.361 13.6263 9.95833 13.293 9.62499C12.9597 9.29166 12.5567 9.12499 12.084 9.12499C11.876 9.12499 11.6783 9.15966 11.491 9.22899V9.22899C11.1533 9.35354 10.7726 9.41831 10.4501 9.25859L8.88702 8.48457C8.82942 8.45604 8.79297 8.39732 8.79297 8.33304V8.33304C8.79297 8.26923 8.82889 8.21086 8.88586 8.1821L10.4481 7.39347C10.7716 7.2302 11.1555 7.29019 11.491 7.42699V7.42699C11.6783 7.50366 11.876 7.54199 12.084 7.54199C12.5567 7.54199 12.9597 7.37533 13.293 7.04199C13.6263 6.70866 13.793 6.30566 13.793 5.83299C13.793 5.36099 13.6263 4.95833 13.293 4.62499C12.9597 4.29166 12.5567 4.12499 12.084 4.12499C11.612 4.12499 11.2093 4.29166 10.876 4.62499C10.5427 4.95833 10.376 5.36099 10.376 5.83299V5.83299C10.376 5.8973 10.3395 5.95605 10.2819 5.98459L8.71883 6.75861C8.39619 6.91838 8.01561 6.85396 7.67797 6.72899V6.72899C7.49064 6.65966 7.29264 6.62499 7.08397 6.62499C6.61197 6.62499 6.20931 6.79166 5.87597 7.12499C5.54264 7.45833 5.37597 7.86099 5.37597 8.33299C5.37597 8.80566 5.54264 9.20866 5.87597 9.54199C6.20931 9.87533 6.61197 10.042 7.08397 10.042C7.29264 10.042 7.49064 10.0073 7.67797 9.93799V9.93799C8.01532 9.81194 8.39601 9.74852 8.71874 9.90834L10.2828 10.6828C10.3399 10.7111 10.376 10.7693 10.376 10.833V10.833C10.376 11.3057 10.5427 11.7087 10.876 12.042C11.2093 12.3753 11.612 12.542 12.084 12.542ZM3.37507 16.6259C2.74511 17.2559 1.66797 16.8097 1.66797 15.9188V3.41699C1.66797 2.93099 1.83797 2.51766 2.17797 2.17699C2.51864 1.83699 2.93197 1.66699 3.41797 1.66699H16.584C17.07 1.66699 17.4833 1.83699 17.824 2.17699C18.164 2.51766 18.334 2.93099 18.334 3.41699V13.25C18.334 13.736 18.164 14.1493 17.824 14.49C17.4833 14.83 17.07 15 16.584 15H5.41518C5.14997 15 4.89561 15.1054 4.70808 15.2929L3.37507 16.6259Z" fill="#777E90"/>
</g>
</g>
<defs>
<clipPath id="clip0_14350_8690">
<rect width="20" height="20" fill="white"/>
</clipPath>
</defs>
</svg>
