<svg width="16" height="16" viewBox="0 0 16 16" fill="none" xmlns="http://www.w3.org/2000/svg">
<mask id="mask0_14508_8680" style="mask-type:alpha" maskUnits="userSpaceOnUse" x="0" y="0" width="16" height="16">
<rect width="16" height="16" fill="#D9D9D9"/>
</mask>
<g mask="url(#mask0_14508_8680)">
<path d="M8.00038 11.3336C8.18918 11.3336 8.35318 11.264 8.49238 11.1248C8.63105 10.9862 8.70038 10.8224 8.70038 10.6336V8.01682C8.70038 7.82802 8.63105 7.66695 8.49238 7.53362C8.35318 7.40028 8.18918 7.33362 8.00038 7.33362C7.81158 7.33362 7.64758 7.40295 7.50838 7.54162C7.36972 7.68082 7.30038 7.84482 7.30038 8.03362V10.6496C7.30038 10.839 7.36972 11.0003 7.50838 11.1336C7.64758 11.267 7.81158 11.3336 8.00038 11.3336ZM8.00038 5.98322C8.18918 5.98322 8.35318 5.91388 8.49238 5.77522C8.63105 5.63602 8.70038 5.47202 8.70038 5.28322C8.70038 5.09442 8.63105 4.93068 8.49238 4.79202C8.35318 4.65282 8.18918 4.58322 8.00038 4.58322C7.81158 4.58322 7.64758 4.65282 7.50838 4.79202C7.36972 4.93068 7.30038 5.09442 7.30038 5.28322C7.30038 5.47202 7.36972 5.63602 7.50838 5.77522C7.64758 5.91388 7.81158 5.98322 8.00038 5.98322ZM8.00038 14.6664C7.07825 14.6664 6.21158 14.4915 5.40038 14.1416C4.58918 13.7918 3.88358 13.3168 3.28358 12.7168C2.68358 12.1168 2.20865 11.4112 1.85878 10.6C1.50892 9.78882 1.33398 8.92215 1.33398 8.00002C1.33398 7.07788 1.50892 6.21122 1.85878 5.40002C2.20865 4.58882 2.68358 3.88322 3.28358 3.28322C3.88358 2.68322 4.58918 2.20828 5.40038 1.85842C6.21158 1.50855 7.07825 1.33362 8.00038 1.33362C8.92252 1.33362 9.78918 1.50855 10.6004 1.85842C11.4116 2.20828 12.1172 2.68322 12.7172 3.28322C13.3172 3.88322 13.7921 4.58882 14.142 5.40002C14.4919 6.21122 14.6668 7.07788 14.6668 8.00002C14.6668 8.92215 14.4919 9.78882 14.142 10.6C13.7921 11.4112 13.3172 12.1168 12.7172 12.7168C12.1172 13.3168 11.4116 13.7918 10.6004 14.1416C9.78918 14.4915 8.92252 14.6664 8.00038 14.6664Z" fill="#F0B10D"/>
</g>
</svg>
