<svg width="20" height="20" viewBox="0 0 20 20" fill="none" xmlns="http://www.w3.org/2000/svg">
<g opacity="0.5">
<mask id="mask0_14508_8677" style="mask-type:alpha" maskUnits="userSpaceOnUse" x="0" y="0" width="20" height="20">
<rect width="20" height="20" fill="#D9D9D9"/>
</mask>
<g mask="url(#mask0_14508_8677)">
<path d="M3.41797 16.667C2.93197 16.667 2.51864 16.4967 2.17797 16.156C1.83797 15.816 1.66797 15.403 1.66797 14.917V11.562C2.11197 11.59 2.4973 11.4477 2.82397 11.135C3.14997 10.823 3.31297 10.4447 3.31297 10C3.31297 9.55534 3.14997 9.18034 2.82397 8.87501C2.4973 8.56967 2.11197 8.43067 1.66797 8.45801V5.08301C1.66797 4.59701 1.83797 4.18401 2.17797 3.84401C2.51864 3.50334 2.93197 3.33301 3.41797 3.33301H16.584C17.07 3.33301 17.4833 3.50334 17.824 3.84401C18.164 4.18401 18.334 4.59701 18.334 5.08301V8.45801C17.89 8.43067 17.5046 8.56967 17.178 8.87501C16.852 9.18034 16.689 9.55534 16.689 10C16.689 10.4447 16.852 10.823 17.178 11.135C17.5046 11.4477 17.89 11.59 18.334 11.562V14.917C18.334 15.403 18.164 15.816 17.824 16.156C17.4833 16.4967 17.07 16.667 16.584 16.667H3.41797ZM10.022 14.167C10.258 14.167 10.4626 14.08 10.636 13.906C10.81 13.7327 10.897 13.528 10.897 13.292C10.897 13.056 10.81 12.851 10.636 12.677C10.4626 12.5037 10.258 12.417 10.022 12.417C9.78597 12.417 9.58097 12.5037 9.40697 12.677C9.23364 12.851 9.14697 13.056 9.14697 13.292C9.14697 13.528 9.23364 13.7327 9.40697 13.906C9.58097 14.08 9.78597 14.167 10.022 14.167ZM10.022 10.875C10.258 10.875 10.4626 10.7883 10.636 10.615C10.81 10.441 10.897 10.236 10.897 10C10.897 9.76401 10.81 9.55901 10.636 9.38501C10.4626 9.21167 10.258 9.12501 10.022 9.12501C9.78597 9.12501 9.58097 9.21167 9.40697 9.38501C9.23364 9.55901 9.14697 9.76401 9.14697 10C9.14697 10.236 9.23364 10.441 9.40697 10.615C9.58097 10.7883 9.78597 10.875 10.022 10.875ZM10.022 7.58301C10.258 7.58301 10.4626 7.49634 10.636 7.32301C10.81 7.14901 10.897 6.94401 10.897 6.70801C10.897 6.47201 10.81 6.26734 10.636 6.09401C10.4626 5.92001 10.258 5.83301 10.022 5.83301C9.78597 5.83301 9.58097 5.92001 9.40697 6.09401C9.23364 6.26734 9.14697 6.47201 9.14697 6.70801C9.14697 6.94401 9.23364 7.14901 9.40697 7.32301C9.58097 7.49634 9.78597 7.58301 10.022 7.58301Z" fill="#777E90"/>
</g>
</g>
</svg>
