<svg width="20" height="20" viewBox="0 0 20 20" fill="none" xmlns="http://www.w3.org/2000/svg">
<mask id="mask0_14507_8671" style="mask-type:alpha" maskUnits="userSpaceOnUse" x="0" y="0" width="20" height="20">
<rect width="20" height="20" fill="#D9D9D9"/>
</mask>
<g mask="url(#mask0_14507_8671)">
<path d="M5.24103 9.93587H6.49101V8.6859H5.24103V9.93587ZM5.24103 13.0929H11.8436V11.8429H5.24103V13.0929ZM13.5103 13.0929H14.7602V11.8429H13.5103V13.0929ZM8.15767 9.93587H14.7602V8.6859H8.15767V9.93587ZM3.5904 16.25C3.16946 16.25 2.81315 16.1041 2.52148 15.8125C2.22982 15.5208 2.08398 15.1645 2.08398 14.7435V5.25642C2.08398 4.83547 2.22982 4.47917 2.52148 4.1875C2.81315 3.89583 3.16946 3.75 3.5904 3.75H16.4109C16.8318 3.75 17.1881 3.89583 17.4798 4.1875C17.7714 4.47917 17.9173 4.83547 17.9173 5.25642V14.7435C17.9173 15.1645 17.7714 15.5208 17.4798 15.8125C17.1881 16.1041 16.8318 16.25 16.4109 16.25H3.5904Z" fill="#777E90"/>
</g>
</svg>
