<svg width="20" height="20" viewBox="0 0 20 20" fill="none" xmlns="http://www.w3.org/2000/svg">
<mask id="mask0_14507_8665" style="mask-type:alpha" maskUnits="userSpaceOnUse" x="0" y="0" width="20" height="20">
<rect width="20" height="20" fill="#D9D9D9"/>
</mask>
<g mask="url(#mask0_14507_8665)">
<path d="M2.70898 17.1474V5.89742H6.04232V2.56409H13.9589V9.23075H17.2923V17.1474H11.0423V13.8141H8.95894V17.1474H2.70898ZM3.95894 15.8974H6.04232V13.8141H3.95894V15.8974ZM3.95894 12.5641H6.04232V10.4807H3.95894V12.5641ZM3.95894 9.23075H6.04232V7.1474H3.95894V9.23075ZM7.29228 12.5641H9.37565V10.4807H7.29228V12.5641ZM7.29228 9.23075H9.37565V7.1474H7.29228V9.23075ZM7.29228 5.89742H9.37565V3.81407H7.29228V5.89742ZM10.6256 12.5641H12.709V10.4807H10.6256V12.5641ZM10.6256 9.23075H12.709V7.1474H10.6256V9.23075ZM10.6256 5.89742H12.709V3.81407H10.6256V5.89742ZM13.9589 15.8974H16.0423V13.8141H13.9589V15.8974ZM13.9589 12.5641H16.0423V10.4807H13.9589V12.5641Z" fill="#777E90"/>
</g>
</svg>
