<svg width="20" height="20" viewBox="0 0 20 20" fill="none" xmlns="http://www.w3.org/2000/svg">
<mask id="mask0_14504_8659" style="mask-type:alpha" maskUnits="userSpaceOnUse" x="0" y="0" width="20" height="20">
<rect width="20" height="20" fill="#D9D9D9"/>
</mask>
<g mask="url(#mask0_14504_8659)">
<path d="M5.01988 14.4103C5.72821 13.8847 6.49985 13.4696 7.33478 13.1651C8.16971 12.8606 9.05833 12.7084 10.0006 12.7084C10.9429 12.7084 11.8316 12.8606 12.6665 13.1651C13.5014 13.4696 14.273 13.8847 14.9814 14.4103C15.4995 13.8408 15.9101 13.1817 16.213 12.4327C16.5159 11.6838 16.6673 10.8729 16.6673 10C16.6673 8.1528 16.018 6.57988 14.7194 5.28127C13.4208 3.98266 11.8479 3.33335 10.0006 3.33335C8.15341 3.33335 6.58049 3.98266 5.28188 5.28127C3.98327 6.57988 3.33396 8.1528 3.33396 10C3.33396 10.8729 3.48541 11.6838 3.7883 12.4327C4.09119 13.1817 4.50171 13.8408 5.01988 14.4103ZM10.0006 10.625C9.23995 10.625 8.59839 10.3638 8.07596 9.84135C7.55353 9.31892 7.29232 8.67737 7.29232 7.91669C7.29232 7.15601 7.55353 6.51445 8.07596 5.99202C8.59839 5.46959 9.23995 5.20837 10.0006 5.20837C10.7613 5.20837 11.4029 5.46959 11.9253 5.99202C12.4477 6.51445 12.7089 7.15601 12.7089 7.91669C12.7089 8.67737 12.4477 9.31892 11.9253 9.84135C11.4029 10.3638 10.7613 10.625 10.0006 10.625ZM10.0006 17.9167C8.90127 17.9167 7.87003 17.7099 6.9069 17.2965C5.94376 16.883 5.10589 16.32 4.39328 15.6074C3.68068 14.8948 3.11765 14.0569 2.70419 13.0938C2.29072 12.1306 2.08398 11.0994 2.08398 10C2.08398 8.90066 2.29072 7.86942 2.70419 6.90629C3.11765 5.94315 3.68068 5.10528 4.39328 4.39267C5.10589 3.68007 5.94376 3.11704 6.9069 2.70358C7.87003 2.29011 8.90127 2.08337 10.0006 2.08337C11.1 2.08337 12.1312 2.29011 13.0944 2.70358C14.0575 3.11704 14.8954 3.68007 15.608 4.39267C16.3206 5.10528 16.8836 5.94315 17.2971 6.90629C17.7105 7.86942 17.9173 8.90066 17.9173 10C17.9173 11.0994 17.7105 12.1306 17.2971 13.0938C16.8836 14.0569 16.3206 14.8948 15.608 15.6074C14.8954 16.32 14.0575 16.883 13.0944 17.2965C12.1312 17.7099 11.1 17.9167 10.0006 17.9167Z" fill="#777E90"/>
</g>
</svg>
