<svg width="20" height="20" viewBox="0 0 20 20" fill="none" xmlns="http://www.w3.org/2000/svg">
<mask id="mask0_14507_8668" style="mask-type:alpha" maskUnits="userSpaceOnUse" x="0" y="0" width="20" height="20">
<rect width="20" height="20" fill="#D9D9D9"/>
</mask>
<g mask="url(#mask0_14507_8668)">
<path d="M15.834 6.77887C15.1983 6.77887 14.6574 6.55585 14.2114 6.10981C13.7653 5.66376 13.5423 5.1229 13.5423 4.48722C13.5423 3.85154 13.7653 3.31068 14.2114 2.86464C14.6574 2.41858 15.1983 2.19556 15.834 2.19556C16.4696 2.19556 17.0105 2.41858 17.4565 2.86464C17.9026 3.31068 18.1256 3.85154 18.1256 4.48722C18.1256 5.1229 17.9026 5.66376 17.4565 6.10981C17.0105 6.55585 16.4696 6.77887 15.834 6.77887ZM3.5904 16.25C3.16946 16.25 2.81315 16.1042 2.52148 15.8125C2.22982 15.5208 2.08398 15.1645 2.08398 14.7436V5.25645C2.08398 4.83551 2.22982 4.4792 2.52148 4.18754C2.81315 3.89587 3.16946 3.75004 3.5904 3.75004H11.9429C11.9034 3.95837 11.8823 4.16536 11.8797 4.37102C11.877 4.57668 11.8927 4.78635 11.9269 5.00002C11.9868 5.43378 12.1104 5.84029 12.2979 6.21956C12.4854 6.59883 12.7228 6.93698 13.0102 7.23399L10.0006 9.16668L3.46217 5.00002L3.33396 6.20191L10.0006 10.4647L13.9958 7.91506C14.264 8.08388 14.5522 8.21449 14.8604 8.30691C15.1686 8.39933 15.4931 8.44554 15.834 8.44554C16.1983 8.44554 16.5596 8.39345 16.9181 8.28929C17.2765 8.18512 17.6096 8.02888 17.9173 7.82056V14.7436C17.9173 15.1645 17.7714 15.5208 17.4798 15.8125C17.1881 16.1042 16.8318 16.25 16.4109 16.25H3.5904Z" fill="#777E90"/>
</g>
</svg>
