<svg width="20" height="20" viewBox="0 0 20 20" fill="none" xmlns="http://www.w3.org/2000/svg">
<mask id="mask0_14507_8674" style="mask-type:alpha" maskUnits="userSpaceOnUse" x="0" y="0" width="20" height="20">
<rect width="20" height="20" fill="#D9D9D9"/>
</mask>
<g mask="url(#mask0_14507_8674)">
<path d="M9.99998 15.5769C8.11109 14.1698 6.70137 12.8071 5.77083 11.4888C4.84028 10.1704 4.375 8.88241 4.375 7.62485C4.375 6.67501 4.5454 5.84222 4.88621 5.12648C5.22703 4.41074 5.66542 3.81089 6.20137 3.32692C6.73733 2.84294 7.34028 2.47997 8.01023 2.23798C8.68017 1.99599 9.34342 1.875 9.99998 1.875C10.6565 1.875 11.3198 1.99599 11.9897 2.23798C12.6597 2.47997 13.2626 2.84294 13.7986 3.32692C14.3345 3.81089 14.7729 4.41074 15.1137 5.12648C15.4546 5.84222 15.625 6.67501 15.625 7.62485C15.625 8.88241 15.1597 10.1704 14.2291 11.4888C13.2986 12.8071 11.8889 14.1698 9.99998 15.5769ZM9.99998 8.95829C10.4049 8.95829 10.7492 8.81647 11.0328 8.53281C11.3165 8.24917 11.4583 7.9049 11.4583 7.49998C11.4583 7.09506 11.3165 6.75079 11.0328 6.46715C10.7492 6.18349 10.4049 6.04167 9.99998 6.04167C9.59506 6.04167 9.25078 6.18349 8.96715 6.46715C8.68349 6.75079 8.54167 7.09506 8.54167 7.49998C8.54167 7.9049 8.68349 8.24917 8.96715 8.53281C9.25078 8.81647 9.59506 8.95829 9.99998 8.95829ZM4.375 18.125V16.875H15.625V18.125H4.375Z" fill="#777E90"/>
</g>
</svg>
