<svg width="20" height="20" viewBox="0 0 20 20" fill="none" xmlns="http://www.w3.org/2000/svg">
<mask id="mask0_14507_8662" style="mask-type:alpha" maskUnits="userSpaceOnUse" x="0" y="0" width="20" height="20">
<rect width="20" height="20" fill="#D9D9D9"/>
</mask>
<g mask="url(#mask0_14507_8662)">
<path d="M16.1931 17.0353C14.5724 17.0353 12.9675 16.6507 11.3783 15.8814C9.78907 15.1122 8.37027 14.1034 7.12189 12.855C5.87348 11.6066 4.86334 10.1892 4.09145 8.60262C3.31955 7.0161 2.93359 5.41247 2.93359 3.79175C2.93359 3.54175 3.01693 3.33341 3.18359 3.16675C3.35026 3.00008 3.55859 2.91675 3.80859 2.91675H6.52649C6.74231 2.91675 6.93062 2.98325 7.09141 3.11627C7.25218 3.24928 7.35181 3.42103 7.39028 3.6315L7.86784 6.08339C7.90096 6.28852 7.89748 6.47495 7.85743 6.64269C7.81736 6.81042 7.72948 6.95679 7.5938 7.08179L5.68995 8.95519C6.34807 10.0727 7.13066 11.0823 8.03772 11.984C8.94477 12.8857 9.97416 13.6721 11.1259 14.343L12.9881 12.4488C13.1237 12.3131 13.2843 12.2167 13.4696 12.1595C13.655 12.1024 13.8449 12.0904 14.0393 12.1235L16.3534 12.5946C16.5639 12.6416 16.7356 12.7434 16.8686 12.8999C17.0016 13.0564 17.0681 13.2426 17.0681 13.4584V16.1603C17.0681 16.4103 16.9848 16.6186 16.8181 16.7853C16.6515 16.952 16.4431 17.0353 16.1931 17.0353Z" fill="#777E90"/>
</g>
</svg>
