<svg width="15" height="15" viewBox="0 0 15 15" fill="none" xmlns="http://www.w3.org/2000/svg">
<g clip-path="url(#clip0_14283_14664)">
<path d="M14.7656 7.5C14.7656 11.5127 11.5127 14.7656 7.5 14.7656C3.4873 14.7656 0.234375 11.5127 0.234375 7.5C0.234375 3.4873 3.4873 0.234375 7.5 0.234375C11.5127 0.234375 14.7656 3.4873 14.7656 7.5ZM10.6157 6.46494C10.7603 5.49817 10.0242 4.97845 9.01755 4.63175L9.34409 3.32212L8.54684 3.12346L8.22894 4.39857C8.01935 4.34634 7.80407 4.29709 7.59018 4.24828L7.91036 2.96479L7.11354 2.76612L6.7868 4.07528C6.6133 4.03576 6.443 3.99671 6.27771 3.95563L6.27861 3.95153L5.1791 3.67702L4.96702 4.52845C4.96702 4.52845 5.55855 4.664 5.54607 4.67238C5.86898 4.75298 5.92734 4.96664 5.91756 5.13601L5.54561 6.62795C5.56787 6.63363 5.5967 6.64181 5.62849 6.65452C5.60191 6.64793 5.57353 6.64066 5.54423 6.63363L5.02286 8.72361C4.98334 8.8217 4.8832 8.96883 4.6575 8.91299C4.66544 8.92456 4.07801 8.76835 4.07801 8.76835L3.68221 9.68086L4.71973 9.93946C4.91273 9.98783 5.1019 10.0385 5.28809 10.0861L4.95814 11.4107L5.75449 11.6094L6.08124 10.2988C6.29243 10.3561 6.50423 10.411 6.7166 10.4637L6.39097 11.7681L7.18822 11.9667L7.51816 10.6446C8.87766 10.9019 9.89997 10.7981 10.3303 9.56865C10.677 8.57871 10.313 8.00769 9.59771 7.63532C10.1186 7.51526 10.511 7.17267 10.6157 6.46494ZM8.7941 9.01901C8.54772 10.009 6.88078 9.47379 6.34034 9.33961L6.77815 7.58476C7.31856 7.71961 9.05159 7.98662 8.7941 9.01901ZM9.04069 6.45064C8.8159 7.35111 7.42846 6.89361 6.9784 6.78146L7.37531 5.18985C7.8254 5.302 9.2748 5.51133 9.04069 6.45064Z" fill="url(#paint0_linear_14283_14664)"/>
</g>
<defs>
<linearGradient id="paint0_linear_14283_14664" x1="0.968276" y1="0.200834" x2="18.0775" y2="4.48824" gradientUnits="userSpaceOnUse">
<stop stop-color="#FFCC48"/>
<stop offset="1" stop-color="#E8A802"/>
</linearGradient>
<clipPath id="clip0_14283_14664">
<rect width="15" height="15" fill="white"/>
</clipPath>
</defs>
</svg>
