<svg width="542" height="85" viewBox="0 0 542 85" fill="none" xmlns="http://www.w3.org/2000/svg">
<g clip-path="url(#clip0_14443_8612)">
<rect width="542" height="85" fill="url(#paint0_linear_14443_8612)"/>
<g filter="url(#filter0_d_14443_8612)">
<ellipse cx="483.5" cy="106.5" rx="152.5" ry="145.5" fill="url(#paint1_linear_14443_8612)" fill-opacity="0.1" shape-rendering="crispEdges"/>
</g>
<g clip-path="url(#clip1_14443_8612)">
<g filter="url(#filter1_di_14443_8612)">
<path d="M523.534 16.1657C526.064 16.4525 528.388 17.7946 529.901 19.8416L572.355 77.0103C575.007 80.5858 574.768 85.5506 571.805 88.8744C568.852 92.2383 564.099 92.8277 559.898 90.7088L558.72 92.7498C556.761 96.1431 552.709 97.4435 549.121 95.3721L448.058 37.0237C444.936 35.2207 443.571 30.7928 445.53 27.3996L446.708 25.3585C443.23 23.0444 441.364 18.6329 442.787 14.3857C444.195 10.1641 448.383 7.47947 452.796 7.98262L523.534 16.1657ZM508.244 50.0007C512.716 52.5826 518.436 51.0201 521.043 46.5043C523.646 41.9961 522.144 36.254 517.672 33.6721C513.2 31.0902 507.476 32.6603 504.873 37.1685C502.266 41.6844 503.772 47.4187 508.244 50.0007ZM433.254 104.676L443.36 110.511L471.642 61.5255L487.812 70.8613L459.53 119.847L471.885 126.98L500.167 77.9943L516.337 87.3301L488.055 136.316L498.162 142.151L526.443 93.1649L542.613 102.501L513.698 152.583C513.806 152.747 514.031 152.707 513.991 153.127L521.405 168.293C523.212 171.989 522.375 176.473 519.351 179.319C516.326 182.165 511.838 182.704 508.276 180.647L394.858 115.165C391.523 113.24 389.735 109.078 390.691 105.037C391.647 100.997 395.119 98.0349 399.233 97.7567L416.074 96.5942C416.41 96.3457 416.485 96.5593 416.451 96.4376L445.366 46.3549L461.536 55.6907L433.254 104.676Z" fill="white" fill-opacity="0.2" shape-rendering="crispEdges"/>
</g>
</g>
</g>
<defs>
<filter id="filter0_d_14443_8612" x="236" y="-144" width="495" height="481" filterUnits="userSpaceOnUse" color-interpolation-filters="sRGB">
<feFlood flood-opacity="0" result="BackgroundImageFix"/>
<feColorMatrix in="SourceAlpha" type="matrix" values="0 0 0 0 0 0 0 0 0 0 0 0 0 0 0 0 0 0 127 0" result="hardAlpha"/>
<feOffset dy="-10"/>
<feGaussianBlur stdDeviation="47.5"/>
<feComposite in2="hardAlpha" operator="out"/>
<feColorMatrix type="matrix" values="0 0 0 0 0 0 0 0 0 0 0 0 0 0 0 0 0 0 0.08 0"/>
<feBlend mode="normal" in2="BackgroundImageFix" result="effect1_dropShadow_14443_8612"/>
<feBlend mode="normal" in="SourceGraphic" in2="effect1_dropShadow_14443_8612" result="shape"/>
</filter>
<filter id="filter1_di_14443_8612" x="363.434" y="-9.07776" width="237.762" height="227.966" filterUnits="userSpaceOnUse" color-interpolation-filters="sRGB">
<feFlood flood-opacity="0" result="BackgroundImageFix"/>
<feColorMatrix in="SourceAlpha" type="matrix" values="0 0 0 0 0 0 0 0 0 0 0 0 0 0 0 0 0 0 127 0" result="hardAlpha"/>
<feOffset dy="10"/>
<feGaussianBlur stdDeviation="13.5"/>
<feComposite in2="hardAlpha" operator="out"/>
<feColorMatrix type="matrix" values="0 0 0 0 0.5625 0 0 0 0 0.520312 0 0 0 0 0.520312 0 0 0 0.15 0"/>
<feBlend mode="normal" in2="BackgroundImageFix" result="effect1_dropShadow_14443_8612"/>
<feBlend mode="normal" in="SourceGraphic" in2="effect1_dropShadow_14443_8612" result="shape"/>
<feColorMatrix in="SourceAlpha" type="matrix" values="0 0 0 0 0 0 0 0 0 0 0 0 0 0 0 0 0 0 127 0" result="hardAlpha"/>
<feOffset dy="3"/>
<feGaussianBlur stdDeviation="2"/>
<feComposite in2="hardAlpha" operator="arithmetic" k2="-1" k3="1"/>
<feColorMatrix type="matrix" values="0 0 0 0 0.152535 0 0 0 0 0.795833 0 0 0 0 0.689251 0 0 0 0.52 0"/>
<feBlend mode="normal" in2="shape" result="effect2_innerShadow_14443_8612"/>
</filter>
<linearGradient id="paint0_linear_14443_8612" x1="60.1281" y1="-22.3707" x2="65.6691" y2="129.011" gradientUnits="userSpaceOnUse">
<stop stop-color="#17E180"/>
<stop offset="1" stop-color="#009883"/>
</linearGradient>
<linearGradient id="paint1_linear_14443_8612" x1="403.772" y1="4.90526" x2="434.833" y2="87.5849" gradientUnits="userSpaceOnUse">
<stop stop-color="white"/>
<stop offset="1" stop-color="#35B8D5" stop-opacity="0.91"/>
</linearGradient>
<clipPath id="clip0_14443_8612">
<rect width="542" height="85" fill="white"/>
</clipPath>
<clipPath id="clip1_14443_8612">
<rect width="154" height="169" fill="white" transform="translate(392 -24)"/>
</clipPath>
</defs>
</svg>
