<svg width="14" height="14" viewBox="0 0 14 14" fill="none" xmlns="http://www.w3.org/2000/svg">
<mask id="mask0_14283_14169" style="mask-type:alpha" maskUnits="userSpaceOnUse" x="0" y="0" width="14" height="14">
<rect width="14" height="14" fill="white"/>
</mask>
<g mask="url(#mask0_14283_14169)">
<path d="M6.985 11.2C7.125 11.2 7.2476 11.1476 7.3528 11.0428C7.4576 10.9376 7.51 10.815 7.51 10.675V10.45C8.01 10.36 8.44 10.165 8.8 9.865C9.16 9.565 9.34 9.12 9.34 8.53C9.34 8.11 9.22 7.725 8.98 7.375C8.74 7.025 8.26 6.72 7.54 6.46C6.94 6.26 6.525 6.085 6.295 5.935C6.065 5.785 5.95 5.58 5.95 5.32C5.95 5.06 6.0426 4.855 6.2278 4.705C6.4126 4.555 6.68 4.48 7.03 4.48C7.23 4.48 7.405 4.515 7.555 4.585C7.705 4.655 7.83 4.75 7.93 4.87C8.03 4.99 8.1426 5.0726 8.2678 5.1178C8.3926 5.1626 8.51 5.16 8.62 5.11C8.77 5.05 8.8726 4.9474 8.9278 4.8022C8.9826 4.6574 8.97 4.525 8.89 4.405C8.73 4.175 8.5326 3.98 8.2978 3.82C8.0626 3.66 7.81 3.57 7.54 3.55V3.325C7.54 3.185 7.4874 3.0624 7.3822 2.9572C7.2774 2.8524 7.155 2.8 7.015 2.8C6.875 2.8 6.7526 2.8524 6.6478 2.9572C6.5426 3.0624 6.49 3.185 6.49 3.325V3.55C5.99 3.66 5.6 3.88 5.32 4.21C5.04 4.54 4.9 4.91 4.9 5.32C4.9 5.79 5.0376 6.17 5.3128 6.46C5.5876 6.75 6.02 7 6.61 7.21C7.24 7.44 7.6776 7.645 7.9228 7.825C8.1676 8.005 8.29 8.24 8.29 8.53C8.29 8.86 8.1724 9.1024 7.9372 9.2572C7.7024 9.4124 7.42 9.49 7.09 9.49C6.83 9.49 6.595 9.4274 6.385 9.3022C6.175 9.1774 6 8.99 5.86 8.74C5.78 8.6 5.675 8.505 5.545 8.455C5.415 8.405 5.285 8.405 5.155 8.455C5.015 8.505 4.9126 8.6 4.8478 8.74C4.7826 8.88 4.78 9.015 4.84 9.145C5 9.485 5.215 9.7624 5.485 9.9772C5.755 10.1924 6.08 10.34 6.46 10.42V10.675C6.46 10.815 6.5126 10.9376 6.6178 11.0428C6.7226 11.1476 6.845 11.2 6.985 11.2ZM7 13C6.17 13 5.39 12.8424 4.66 12.5272C3.93 12.2124 3.295 11.785 2.755 11.245C2.215 10.705 1.7876 10.07 1.4728 9.34C1.1576 8.61 1 7.83 1 7C1 6.17 1.1576 5.39 1.4728 4.66C1.7876 3.93 2.215 3.295 2.755 2.755C3.295 2.215 3.93 1.7874 4.66 1.4722C5.39 1.1574 6.17 1 7 1C7.83 1 8.61 1.1574 9.34 1.4722C10.07 1.7874 10.705 2.215 11.245 2.755C11.785 3.295 12.2124 3.93 12.5272 4.66C12.8424 5.39 13 6.17 13 7C13 7.83 12.8424 8.61 12.5272 9.34C12.2124 10.07 11.785 10.705 11.245 11.245C10.705 11.785 10.07 12.2124 9.34 12.5272C8.61 12.8424 7.83 13 7 13Z" fill="#F0B10D"/>
</g>
</svg>
