<svg width="349" height="85" viewBox="0 0 349 85" fill="none" xmlns="http://www.w3.org/2000/svg">
<g clip-path="url(#clip0_14417_8533)">
<rect width="349" height="85" fill="url(#paint0_linear_14417_8533)"/>
<g clip-path="url(#clip1_14417_8533)">
<g opacity="0.28" filter="url(#filter0_i_14417_8533)">
<mask id="mask0_14417_8533" style="mask-type:alpha" maskUnits="userSpaceOnUse" x="226" y="5" width="144" height="144">
<rect x="226.701" y="66.8529" width="101.161" height="101.161" transform="rotate(-37.1933 226.701 66.8529)" fill="#D9D9D9" stroke="url(#paint1_linear_14417_8533)"/>
</mask>
<g mask="url(#mask0_14417_8533)">
<path d="M309.488 84.8548C308.365 85.7072 307.135 86.0407 305.799 85.8551C304.462 85.6742 303.367 85.0221 302.515 83.8987C301.663 82.7754 301.328 81.5443 301.512 80.2055C301.695 78.8712 302.348 77.7779 303.471 76.9255C304.594 76.073 305.824 75.7373 307.161 75.9182C308.498 76.1038 309.592 76.7582 310.444 77.8815C311.297 79.0048 311.631 80.2336 311.449 81.5678C311.265 82.9067 310.612 84.0023 309.488 84.8548ZM293.63 96.8892C292.506 97.7416 291.275 98.0761 289.936 97.8925C288.602 97.7096 287.509 97.0565 286.656 95.9332C285.804 94.8098 285.468 93.5798 285.649 92.2429C285.835 90.9067 286.489 89.8123 287.612 88.9599C288.736 88.1075 289.966 87.7717 291.303 87.9526C292.639 88.1382 293.733 88.7926 294.586 89.9159C295.438 91.0393 295.773 92.268 295.59 93.6022C295.406 94.9411 294.753 96.0368 293.63 96.8892ZM325.347 72.8204C324.224 73.6728 322.994 74.0062 321.658 73.8207C320.321 73.6397 319.226 72.9876 318.374 71.8643C317.521 70.741 317.187 69.5099 317.37 68.171C317.553 66.8368 318.206 65.7435 319.33 64.8911C320.453 64.0386 321.682 63.7039 323.016 63.8868C324.355 64.0703 325.45 64.7238 326.303 65.8471C327.155 66.9704 327.489 68.2002 327.303 69.5364C327.122 70.8733 326.47 71.9679 325.347 72.8204ZM321.523 100.713C320.399 101.566 319.17 101.899 317.833 101.714C316.497 101.533 315.402 100.881 314.549 99.7573C313.697 98.634 313.364 97.4042 313.549 96.068C313.73 94.7312 314.382 93.6365 315.505 92.7841C316.629 91.9316 317.86 91.5972 319.199 91.7808C320.533 91.9637 321.626 92.6168 322.479 93.7401C323.331 94.8634 323.666 96.0922 323.483 97.4264C323.299 98.7653 322.646 99.8609 321.523 100.713ZM305.664 112.748C304.541 113.6 303.31 113.935 301.971 113.751C300.637 113.568 299.543 112.915 298.691 111.792C297.838 110.668 297.504 109.44 297.687 108.105C297.87 106.767 298.524 105.671 299.647 104.819C300.77 103.966 302.001 103.632 303.34 103.815C304.674 103.998 305.768 104.651 306.62 105.775C307.473 106.898 307.807 108.127 307.624 109.461C307.441 110.8 306.787 111.895 305.664 112.748ZM337.381 88.679C336.258 89.5314 335.028 89.8648 333.692 89.6793C332.355 89.4983 331.26 88.8462 330.408 87.7229C329.556 86.5996 329.222 85.3698 329.408 84.0336C329.589 82.6967 330.241 81.6021 331.364 80.7496C332.487 79.8972 333.717 79.5638 335.053 79.7493C336.39 79.9303 337.485 80.5824 338.337 81.7057C339.19 82.829 339.523 84.0588 339.338 85.395C339.157 86.7319 338.505 87.8265 337.381 88.679ZM305.805 137.632C303.624 139.287 301.168 139.928 298.436 139.556C295.706 139.179 293.513 137.901 291.858 135.72L249.738 80.215C248.083 78.0345 247.443 75.5798 247.817 72.8509C248.191 70.1174 249.469 67.9233 251.65 66.2685L255.614 63.2599L252.606 59.2953C250.944 57.1057 251.372 53.9836 253.562 52.322V52.322C255.751 50.6604 258.873 51.0884 260.535 53.2781L263.544 57.2427L295.261 33.1739L292.252 29.2092C290.591 27.0196 291.019 23.8976 293.208 22.236V22.236C295.398 20.5743 298.52 21.0024 300.181 23.192L303.19 27.1566L307.155 24.148C309.335 22.4933 311.792 21.8533 314.526 22.2281C317.255 22.6022 319.447 23.8796 321.101 26.0601L363.222 81.5652C364.876 83.7458 365.518 86.2018 365.146 88.9333C364.769 91.6642 363.49 93.857 361.31 95.5117L305.805 137.632ZM299.787 129.703L355.292 87.5824L325.206 47.9359L269.701 90.0564L299.787 129.703Z" fill="white"/>
</g>
</g>
<g opacity="0.28" filter="url(#filter1_i_14417_8533)">
<path d="M272.504 16.7707C273.361 16.8092 273.775 17.8394 273.182 18.4603L269.414 22.4067C269.247 22.5816 269.149 22.811 269.138 23.0526L268.894 28.5037C268.855 29.3614 267.825 29.7751 267.204 29.1822L263.258 25.4138C263.083 25.2468 262.853 25.1489 262.612 25.138L257.161 24.8938C256.303 24.8553 255.889 23.8251 256.482 23.2041L260.25 19.2577C260.417 19.0829 260.515 18.8534 260.526 18.6119L260.771 13.1607C260.809 12.303 261.839 11.8894 262.46 12.4823L266.407 16.2507C266.581 16.4176 266.811 16.5156 267.052 16.5264L272.504 16.7707Z" fill="#E0FDE7"/>
</g>
<g opacity="0.12" filter="url(#filter2_i_14417_8533)">
<path d="M230.944 60.0397C231.802 60.0781 232.216 61.1084 231.623 61.7293L229.389 64.0682C229.223 64.2431 229.125 64.4725 229.114 64.714L228.969 67.9447C228.931 68.8024 227.9 69.2161 227.279 68.6232L224.94 66.3898C224.766 66.2228 224.536 66.1249 224.295 66.114L221.064 65.9693C220.206 65.9308 219.793 64.9006 220.385 64.2797L222.619 61.9408C222.786 61.7659 222.884 61.5365 222.895 61.2949L223.039 58.0642C223.078 57.2066 224.108 56.7929 224.729 57.3858L227.068 59.6192C227.243 59.7861 227.472 59.8841 227.714 59.8949L230.944 60.0397Z" fill="#E0FDE7"/>
</g>
<g opacity="0.2">
<g filter="url(#filter3_f_14417_8533)">
<ellipse cx="110.586" cy="44.7111" rx="56.1111" ry="14.6704" transform="rotate(-6.88622 110.586 44.7111)" fill="white"/>
</g>
</g>
</g>
</g>
<defs>
<filter id="filter0_i_14417_8533" x="247.713" y="18.2234" width="117.535" height="121.435" filterUnits="userSpaceOnUse" color-interpolation-filters="sRGB">
<feFlood flood-opacity="0" result="BackgroundImageFix"/>
<feBlend mode="normal" in="SourceGraphic" in2="BackgroundImageFix" result="shape"/>
<feColorMatrix in="SourceAlpha" type="matrix" values="0 0 0 0 0 0 0 0 0 0 0 0 0 0 0 0 0 0 127 0" result="hardAlpha"/>
<feOffset dy="-3"/>
<feGaussianBlur stdDeviation="2"/>
<feComposite in2="hardAlpha" operator="arithmetic" k2="-1" k3="1"/>
<feColorMatrix type="matrix" values="0 0 0 0 0 0 0 0 0 0 0 0 0 0 0 0 0 0 0.19 0"/>
<feBlend mode="normal" in2="shape" result="effect1_innerShadow_14417_8533"/>
</filter>
<filter id="filter1_i_14417_8533" x="256.203" y="10.2039" width="17.2578" height="19.2568" filterUnits="userSpaceOnUse" color-interpolation-filters="sRGB">
<feFlood flood-opacity="0" result="BackgroundImageFix"/>
<feBlend mode="normal" in="SourceGraphic" in2="BackgroundImageFix" result="shape"/>
<feColorMatrix in="SourceAlpha" type="matrix" values="0 0 0 0 0 0 0 0 0 0 0 0 0 0 0 0 0 0 127 0" result="hardAlpha"/>
<feOffset dy="-2"/>
<feGaussianBlur stdDeviation="1.5"/>
<feComposite in2="hardAlpha" operator="arithmetic" k2="-1" k3="1"/>
<feColorMatrix type="matrix" values="0 0 0 0 0 0 0 0 0 0 0 0 0 0 0 0 0 0 0.25 0"/>
<feBlend mode="normal" in2="shape" result="effect1_innerShadow_14417_8533"/>
</filter>
<filter id="filter2_i_14417_8533" x="220.107" y="55.1073" width="11.793" height="13.7943" filterUnits="userSpaceOnUse" color-interpolation-filters="sRGB">
<feFlood flood-opacity="0" result="BackgroundImageFix"/>
<feBlend mode="normal" in="SourceGraphic" in2="BackgroundImageFix" result="shape"/>
<feColorMatrix in="SourceAlpha" type="matrix" values="0 0 0 0 0 0 0 0 0 0 0 0 0 0 0 0 0 0 127 0" result="hardAlpha"/>
<feOffset dy="-2"/>
<feGaussianBlur stdDeviation="1.5"/>
<feComposite in2="hardAlpha" operator="arithmetic" k2="-1" k3="1"/>
<feColorMatrix type="matrix" values="0 0 0 0 0 0 0 0 0 0 0 0 0 0 0 0 0 0 0.25 0"/>
<feBlend mode="normal" in2="shape" result="effect1_innerShadow_14417_8533"/>
</filter>
<filter id="filter3_f_14417_8533" x="34.8516" y="8.66394" width="151.469" height="72.0944" filterUnits="userSpaceOnUse" color-interpolation-filters="sRGB">
<feFlood flood-opacity="0" result="BackgroundImageFix"/>
<feBlend mode="normal" in="SourceGraphic" in2="BackgroundImageFix" result="shape"/>
<feGaussianBlur stdDeviation="10" result="effect1_foregroundBlur_14417_8533"/>
</filter>
<linearGradient id="paint0_linear_14417_8533" x1="38.7172" y1="-22.3707" x2="47.3061" y2="128.726" gradientUnits="userSpaceOnUse">
<stop stop-color="#17E180"/>
<stop offset="1" stop-color="#009883"/>
</linearGradient>
<linearGradient id="paint1_linear_14417_8533" x1="237.333" y1="39.8696" x2="277.659" y2="212.647" gradientUnits="userSpaceOnUse">
<stop stop-color="#17E180"/>
<stop offset="1" stop-color="#009883"/>
</linearGradient>
<clipPath id="clip0_14417_8533">
<rect width="349" height="85" fill="white"/>
</clipPath>
<clipPath id="clip1_14417_8533">
<rect width="349" height="85" fill="white"/>
</clipPath>
</defs>
</svg>
