<svg width="20" height="20" viewBox="0 0 20 20" fill="none" xmlns="http://www.w3.org/2000/svg">
<mask id="mask0_14433_8580" style="mask-type:alpha" maskUnits="userSpaceOnUse" x="0" y="0" width="20" height="20">
<rect width="20" height="20" fill="#D9D9D9"/>
</mask>
<g mask="url(#mask0_14433_8580)">
<path d="M2.27018 17.5C1.95074 17.5 1.71463 17.3611 1.56185 17.0833C1.40907 16.8056 1.40907 16.5278 1.56185 16.25L9.27018 2.91667C9.42296 2.63889 9.66601 2.5 9.99935 2.5C10.3327 2.5 10.5757 2.63889 10.7285 2.91667L18.4368 16.25C18.5896 16.5278 18.5896 16.8056 18.4368 17.0833C18.2841 17.3611 18.048 17.5 17.7285 17.5H2.27018ZM9.99935 8.33333C9.76324 8.33333 9.56546 8.41306 9.40601 8.5725C9.24601 8.7325 9.16601 8.93056 9.16601 9.16667V11.6667C9.16601 11.9028 9.24601 12.1006 9.40601 12.26C9.56546 12.42 9.76324 12.5 9.99935 12.5C10.2355 12.5 10.4335 12.42 10.5935 12.26C10.753 12.1006 10.8327 11.9028 10.8327 11.6667V9.16667C10.8327 8.93056 10.753 8.7325 10.5935 8.5725C10.4335 8.41306 10.2355 8.33333 9.99935 8.33333ZM9.99935 15C10.2355 15 10.4335 14.92 10.5935 14.76C10.753 14.6006 10.8327 14.4028 10.8327 14.1667C10.8327 13.9306 10.753 13.7328 10.5935 13.5733C10.4335 13.4133 10.2355 13.3333 9.99935 13.3333C9.76324 13.3333 9.56546 13.4133 9.40601 13.5733C9.24601 13.7328 9.16601 13.9306 9.16601 14.1667C9.16601 14.4028 9.24601 14.6006 9.40601 14.76C9.56546 14.92 9.76324 15 9.99935 15Z" fill="#F0B10D"/>
</g>
</svg>
