<svg width="20" height="20" viewBox="0 0 20 20" fill="none" xmlns="http://www.w3.org/2000/svg">
<mask id="mask0_14433_8577" style="mask-type:alpha" maskUnits="userSpaceOnUse" x="0" y="0" width="20" height="20">
<rect width="20" height="20" fill="white"/>
</mask>
<g mask="url(#mask0_14433_8577)">
<path d="M10.001 14.167C10.237 14.167 10.442 14.08 10.616 13.906C10.7893 13.7327 10.876 13.528 10.876 13.292V10.021C10.876 9.78501 10.7893 9.58367 10.616 9.41701C10.442 9.25034 10.237 9.16701 10.001 9.16701C9.76497 9.16701 9.55997 9.25367 9.38597 9.42701C9.21264 9.60101 9.12597 9.80601 9.12597 10.042V13.312C9.12597 13.5487 9.21264 13.7503 9.38597 13.917C9.55997 14.0837 9.76497 14.167 10.001 14.167ZM10.001 7.47901C10.237 7.47901 10.442 7.39234 10.616 7.21901C10.7893 7.04501 10.876 6.84001 10.876 6.60401C10.876 6.36801 10.7893 6.16334 10.616 5.99001C10.442 5.81601 10.237 5.72901 10.001 5.72901C9.76497 5.72901 9.55997 5.81601 9.38597 5.99001C9.21264 6.16334 9.12597 6.36801 9.12597 6.60401C9.12597 6.84001 9.21264 7.04501 9.38597 7.21901C9.55997 7.39234 9.76497 7.47901 10.001 7.47901ZM10.001 18.333C8.8483 18.333 7.76497 18.1143 6.75097 17.677C5.73697 17.2397 4.85497 16.646 4.10497 15.896C3.35497 15.146 2.7613 14.264 2.32397 13.25C1.88664 12.236 1.66797 11.1527 1.66797 10C1.66797 8.84734 1.88664 7.76401 2.32397 6.75001C2.7613 5.73601 3.35497 4.85401 4.10497 4.10401C4.85497 3.35401 5.73697 2.76034 6.75097 2.32301C7.76497 1.88567 8.8483 1.66701 10.001 1.66701C11.1536 1.66701 12.237 1.88567 13.251 2.32301C14.265 2.76034 15.147 3.35401 15.897 4.10401C16.647 4.85401 17.2406 5.73601 17.678 6.75001C18.1153 7.76401 18.334 8.84734 18.334 10C18.334 11.1527 18.1153 12.236 17.678 13.25C17.2406 14.264 16.647 15.146 15.897 15.896C15.147 16.646 14.265 17.2397 13.251 17.677C12.237 18.1143 11.1536 18.333 10.001 18.333Z" fill="#1C1B1F"/>
</g>
</svg>
