<svg width="20" height="20" viewBox="0 0 20 20" fill="none" xmlns="http://www.w3.org/2000/svg">
<mask id="mask0_14410_8544" style="mask-type:alpha" maskUnits="userSpaceOnUse" x="0" y="0" width="20" height="20">
<rect width="20" height="20" fill="#D9D9D9"/>
</mask>
<g mask="url(#mask0_14410_8544)">
<path d="M10 11.708C9.764 11.708 9.559 11.6213 9.385 11.448C9.21167 11.2747 9.125 11.0697 9.125 10.833C9.125 10.597 9.21167 10.3923 9.385 10.219C9.559 10.045 9.764 9.95799 10 9.95799C10.236 9.95799 10.441 10.045 10.615 10.219C10.7883 10.3923 10.875 10.597 10.875 10.833C10.875 11.0697 10.7883 11.2747 10.615 11.448C10.441 11.6213 10.236 11.708 10 11.708ZM6.667 11.708C6.43033 11.708 6.22533 11.6213 6.052 11.448C5.87867 11.2747 5.792 11.0697 5.792 10.833C5.792 10.597 5.87867 10.3923 6.052 10.219C6.22533 10.045 6.43033 9.95799 6.667 9.95799C6.903 9.95799 7.10767 10.045 7.281 10.219C7.455 10.3923 7.542 10.597 7.542 10.833C7.542 11.0697 7.455 11.2747 7.281 11.448C7.10767 11.6213 6.903 11.708 6.667 11.708ZM13.333 11.708C13.097 11.708 12.8923 11.6213 12.719 11.448C12.545 11.2747 12.458 11.0697 12.458 10.833C12.458 10.597 12.545 10.3923 12.719 10.219C12.8923 10.045 13.097 9.95799 13.333 9.95799C13.5697 9.95799 13.7747 10.045 13.948 10.219C14.1213 10.3923 14.208 10.597 14.208 10.833C14.208 11.0697 14.1213 11.2747 13.948 11.448C13.7747 11.6213 13.5697 11.708 13.333 11.708ZM10 15.042C9.764 15.042 9.559 14.955 9.385 14.781C9.21167 14.6077 9.125 14.403 9.125 14.167C9.125 13.9303 9.21167 13.7253 9.385 13.552C9.559 13.3787 9.764 13.292 10 13.292C10.236 13.292 10.441 13.3787 10.615 13.552C10.7883 13.7253 10.875 13.9303 10.875 14.167C10.875 14.403 10.7883 14.6077 10.615 14.781C10.441 14.955 10.236 15.042 10 15.042ZM6.667 15.042C6.43033 15.042 6.22533 14.955 6.052 14.781C5.87867 14.6077 5.792 14.403 5.792 14.167C5.792 13.9303 5.87867 13.7253 6.052 13.552C6.22533 13.3787 6.43033 13.292 6.667 13.292C6.903 13.292 7.10767 13.3787 7.281 13.552C7.455 13.7253 7.542 13.9303 7.542 14.167C7.542 14.403 7.455 14.6077 7.281 14.781C7.10767 14.955 6.903 15.042 6.667 15.042ZM13.333 15.042C13.097 15.042 12.8923 14.955 12.719 14.781C12.545 14.6077 12.458 14.403 12.458 14.167C12.458 13.9303 12.545 13.7253 12.719 13.552C12.8923 13.3787 13.097 13.292 13.333 13.292C13.5697 13.292 13.7747 13.3787 13.948 13.552C14.1213 13.7253 14.208 13.9303 14.208 14.167C14.208 14.403 14.1213 14.6077 13.948 14.781C13.7747 14.955 13.5697 15.042 13.333 15.042ZM4.25 18.333C3.764 18.333 3.35067 18.163 3.01 17.823C2.67 17.4823 2.5 17.069 2.5 16.583V5.16699C2.5 4.68099 2.67 4.26766 3.01 3.92699C3.35067 3.58699 3.764 3.41699 4.25 3.41699H4.917V2.54199C4.917 2.30599 5.00367 2.10099 5.177 1.92699C5.351 1.75366 5.556 1.66699 5.792 1.66699C6.028 1.66699 6.23267 1.75366 6.406 1.92699C6.58 2.10099 6.667 2.30599 6.667 2.54199V3.41699H13.333V2.54199C13.333 2.30599 13.42 2.10099 13.594 1.92699C13.7673 1.75366 13.972 1.66699 14.208 1.66699C14.444 1.66699 14.649 1.75366 14.823 1.92699C14.9963 2.10099 15.083 2.30599 15.083 2.54199V3.41699H15.75C16.236 3.41699 16.6493 3.58699 16.99 3.92699C17.33 4.26766 17.5 4.68099 17.5 5.16699V16.583C17.5 17.069 17.33 17.4823 16.99 17.823C16.6493 18.163 16.236 18.333 15.75 18.333H4.25ZM4.25 16.583H15.75V8.37499H4.25V16.583Z" fill="#1C1B1F"/>
</g>
</svg>
