<svg width="20" height="20" viewBox="0 0 20 20" fill="none" xmlns="http://www.w3.org/2000/svg">
<mask id="mask0_14410_8547" style="mask-type:alpha" maskUnits="userSpaceOnUse" x="0" y="0" width="20" height="20">
<rect width="20" height="20" fill="#D9D9D9"/>
</mask>
<g mask="url(#mask0_14410_8547)">
<path d="M7.85497 8.72899L6.08397 6.93799C5.9173 7.17399 5.79597 7.42733 5.71997 7.69799C5.6433 7.96866 5.60497 8.24999 5.60497 8.54199C5.60497 9.36133 5.88964 10.059 6.45897 10.635C7.0283 11.2117 7.72297 11.5 8.54297 11.5C8.70964 11.5 8.87964 11.4897 9.05297 11.469C9.2263 11.4483 9.38964 11.403 9.54297 11.333L12.23 14C12.3966 14.1667 12.6016 14.25 12.845 14.25C13.0876 14.25 13.2923 14.1597 13.459 13.979L13.98 13.458C14.1466 13.2913 14.23 13.0867 14.23 12.844C14.23 12.6007 14.1466 12.3957 13.98 12.229L11.313 9.56199C11.383 9.40933 11.4283 9.24266 11.449 9.06199C11.4696 8.88199 11.48 8.70866 11.48 8.54199C11.48 7.72199 11.1953 7.02733 10.626 6.45799C10.0566 5.88866 9.3623 5.60399 8.54297 5.60399C8.25097 5.60399 7.9663 5.64566 7.68897 5.72899C7.41097 5.81233 7.15397 5.93033 6.91797 6.08299L8.70897 7.87499L7.85497 8.72899ZM10.001 18.333C8.8483 18.333 7.76497 18.1143 6.75097 17.677C5.73697 17.2397 4.85497 16.646 4.10497 15.896C3.35497 15.146 2.7613 14.264 2.32397 13.25C1.88664 12.236 1.66797 11.1527 1.66797 9.99999C1.66797 8.84733 1.88664 7.76399 2.32397 6.74999C2.7613 5.73599 3.35497 4.85399 4.10497 4.10399C4.85497 3.35399 5.73697 2.76033 6.75097 2.32299C7.76497 1.88566 8.8483 1.66699 10.001 1.66699C11.1536 1.66699 12.237 1.88566 13.251 2.32299C14.265 2.76033 15.147 3.35399 15.897 4.10399C16.647 4.85399 17.2406 5.73599 17.678 6.74999C18.1153 7.76399 18.334 8.84733 18.334 9.99999C18.334 11.1527 18.1153 12.236 17.678 13.25C17.2406 14.264 16.647 15.146 15.897 15.896C15.147 16.646 14.265 17.2397 13.251 17.677C12.237 18.1143 11.1536 18.333 10.001 18.333Z" fill="#1C1B1F"/>
</g>
</svg>
