<svg width="16" height="16" viewBox="0 0 16 16" fill="none" xmlns="http://www.w3.org/2000/svg">
<path d="M10.6453 11.7022L11.7031 10.6445C11.7786 10.5689 11.8164 10.4808 11.8164 10.38C11.8164 10.2793 11.7786 10.1911 11.7031 10.1156L9.1342 7.52779C9.18457 7.38927 9.22235 7.25075 9.24753 7.11224C9.27272 6.97372 9.28531 6.81631 9.28531 6.64001C9.28531 5.92224 9.03044 5.30822 8.52069 4.79797C8.01044 4.28822 7.39642 4.03335 6.67865 4.03335C6.46457 4.03335 6.2505 4.06155 6.03642 4.11797C5.82235 4.17489 5.61457 4.25372 5.41309 4.35446L7.18865 6.13001L6.13087 7.18779L4.35531 5.41224C4.25457 5.61372 4.17599 5.82149 4.11958 6.03557C4.06266 6.24964 4.0342 6.46372 4.0342 6.67779C4.0342 7.39557 4.28933 8.00958 4.79958 8.51984C5.30933 9.02958 5.92309 9.28446 6.64087 9.28446C6.80457 9.28446 6.95871 9.27186 7.10327 9.24668C7.24833 9.22149 7.39013 9.18372 7.52865 9.13335L10.1164 11.7022C10.192 11.7778 10.2801 11.8156 10.3809 11.8156C10.4816 11.8156 10.5698 11.7778 10.6453 11.7022ZM8.00087 15.5556C6.95568 15.5556 5.97346 15.3571 5.0542 14.9602C4.13494 14.5638 3.33531 14.0256 2.65531 13.3456C1.97531 12.6656 1.43711 11.8659 1.04069 10.9467C0.643772 10.0274 0.445312 9.0452 0.445312 8.00001C0.445312 6.95483 0.643772 5.97261 1.04069 5.05335C1.43711 4.13409 1.97531 3.33446 2.65531 2.65446C3.33531 1.97446 4.13494 1.436 5.0542 1.03908C5.97346 0.642665 6.95568 0.444458 8.00087 0.444458C9.04605 0.444458 10.0283 0.642665 10.9475 1.03908C11.8668 1.436 12.6664 1.97446 13.3464 2.65446C14.0264 3.33446 14.5646 4.13409 14.961 5.05335C15.358 5.97261 15.5564 6.95483 15.5564 8.00001C15.5564 9.0452 15.358 10.0274 14.961 10.9467C14.5646 11.8659 14.0264 12.6656 13.3464 13.3456C12.6664 14.0256 11.8668 14.5638 10.9475 14.9602C10.0283 15.3571 9.04605 15.5556 8.00087 15.5556Z" fill="url(#paint0_linear_14410_8538)"/>
<defs>
<linearGradient id="paint0_linear_14410_8538" x1="2.1217" y1="-3.53256" x2="7.22324" y2="15.2041" gradientUnits="userSpaceOnUse">
<stop stop-color="#00C164"/>
<stop offset="1" stop-color="#009883"/>
</linearGradient>
</defs>
</svg>
