<svg width="16" height="16" viewBox="0 0 16 16" fill="none" xmlns="http://www.w3.org/2000/svg">
<g clip-path="url(#clip0_14410_8535)">
<mask id="mask0_14410_8535" style="mask-type:alpha" maskUnits="userSpaceOnUse" x="0" y="0" width="16" height="16">
<rect width="16" height="16" fill="#D9D9D9"/>
</mask>
<g mask="url(#mask0_14410_8535)">
<path d="M3.11068 13.7777C2.74401 13.7777 2.43023 13.6364 2.16934 13.3538C1.90801 13.0707 1.77734 12.7305 1.77734 12.3333V3.66661C1.77734 3.26939 1.90801 2.92946 2.16934 2.64683C2.43023 2.36372 2.74401 2.22217 3.11068 2.22217H13.7773C14.144 2.22217 14.458 2.36372 14.7193 2.64683C14.9802 2.92946 15.1107 3.26939 15.1107 3.66661V12.3333C15.1107 12.7305 14.9802 13.0707 14.7193 13.3538C14.458 13.6364 14.144 13.7777 13.7773 13.7777H3.11068ZM9.11068 6.5555H13.7773V3.66661H9.11068V6.5555Z" fill="#777E90"/>
</g>
</g>
<defs>
<clipPath id="clip0_14410_8535">
<rect width="16" height="16" fill="white"/>
</clipPath>
</defs>
</svg>
