<svg width="16" height="16" viewBox="0 0 16 16" fill="none" xmlns="http://www.w3.org/2000/svg">
<mask id="mask0_14422_8571" style="mask-type:alpha" maskUnits="userSpaceOnUse" x="0" y="0" width="16" height="16">
<rect width="16" height="16" fill="#D9D9D9"/>
</mask>
<g mask="url(#mask0_14422_8571)">
<path d="M14.7992 6.4L14.416 5.5832L13.5992 5.2L14.416 4.8168L14.7992 4L15.1824 4.8168L15.9992 5.2L15.1824 5.5832L14.7992 6.4ZM12.3992 4L11.7824 2.6168L10.3992 2L11.7824 1.3832L12.3992 0L13.016 1.3832L14.3992 2L13.016 2.6168L12.3992 4ZM5.99922 14.4C5.66589 14.4 5.38269 14.2832 5.14962 14.0496C4.91602 13.8165 4.79922 13.5333 4.79922 13.2H7.19922C7.19922 13.5333 7.08242 13.8165 6.84882 14.0496C6.61575 14.2832 6.33255 14.4 5.99922 14.4ZM3.59922 12.4V11.2H8.39922V12.4H3.59922ZM3.34962 10.4C2.68295 9.96693 2.15789 9.39467 1.77442 8.6832C1.39095 7.97227 1.19922 7.2112 1.19922 6.4C1.19922 5.06667 1.66589 3.93333 2.59922 3C3.53255 2.06667 4.66589 1.6 5.99922 1.6C7.33255 1.6 8.46589 2.06667 9.39922 3C10.3326 3.93333 10.7992 5.06667 10.7992 6.4C10.7992 7.2112 10.6075 7.97227 10.224 8.6832C9.84055 9.39467 9.31549 9.96693 8.64882 10.4H3.34962Z" fill="#F0B10D"/>
</g>
</svg>
