<svg width="20" height="20" viewBox="0 0 20 20" fill="none" xmlns="http://www.w3.org/2000/svg">
<mask id="mask0_13318_6138" style="mask-type:alpha" maskUnits="userSpaceOnUse" x="0" y="0" width="20" height="20">
<rect width="20" height="20" fill="#D9D9D9"/>
</mask>
<g mask="url(#mask0_13318_6138)">
<path d="M9.99984 11.729C9.7915 11.729 9.61789 11.6559 9.479 11.5098C9.34012 11.3643 9.27067 11.1943 9.27067 10.9998C9.27067 10.7915 9.34012 10.6143 9.479 10.4682C9.61789 10.3226 9.7915 10.2498 9.99984 10.2498C10.2082 10.2498 10.3818 10.3226 10.5207 10.4682C10.6596 10.6143 10.729 10.7915 10.729 10.9998C10.729 11.1943 10.6596 11.3643 10.5207 11.5098C10.3818 11.6559 10.2082 11.729 9.99984 11.729ZM6.6665 11.729C6.45817 11.729 6.28456 11.6559 6.14567 11.5098C6.00678 11.3643 5.93734 11.1943 5.93734 10.9998C5.93734 10.7915 6.00678 10.6143 6.14567 10.4682C6.28456 10.3226 6.45817 10.2498 6.6665 10.2498C6.87484 10.2498 7.04845 10.3226 7.18734 10.4682C7.32623 10.6143 7.39567 10.7915 7.39567 10.9998C7.39567 11.1943 7.32623 11.3643 7.18734 11.5098C7.04845 11.6559 6.87484 11.729 6.6665 11.729ZM13.3332 11.729C13.1248 11.729 12.9512 11.6559 12.8123 11.5098C12.6734 11.3643 12.604 11.1943 12.604 10.9998C12.604 10.7915 12.6734 10.6143 12.8123 10.4682C12.9512 10.3226 13.1248 10.2498 13.3332 10.2498C13.5415 10.2498 13.7151 10.3226 13.854 10.4682C13.9929 10.6143 14.0623 10.7915 14.0623 10.9998C14.0623 11.1943 13.9929 11.3643 13.854 11.5098C13.7151 11.6559 13.5415 11.729 13.3332 11.729ZM9.99984 14.9998C9.7915 14.9998 9.61789 14.9271 9.479 14.7815C9.34012 14.6354 9.27067 14.4651 9.27067 14.2707C9.27067 14.0623 9.34012 13.8854 9.479 13.7398C9.61789 13.5937 9.7915 13.5207 9.99984 13.5207C10.2082 13.5207 10.3818 13.5937 10.5207 13.7398C10.6596 13.8854 10.729 14.0623 10.729 14.2707C10.729 14.4651 10.6596 14.6354 10.5207 14.7815C10.3818 14.9271 10.2082 14.9998 9.99984 14.9998ZM6.6665 14.9998C6.45817 14.9998 6.28456 14.9271 6.14567 14.7815C6.00678 14.6354 5.93734 14.4651 5.93734 14.2707C5.93734 14.0623 6.00678 13.8854 6.14567 13.7398C6.28456 13.5937 6.45817 13.5207 6.6665 13.5207C6.87484 13.5207 7.04845 13.5937 7.18734 13.7398C7.32623 13.8854 7.39567 14.0623 7.39567 14.2707C7.39567 14.4651 7.32623 14.6354 7.18734 14.7815C7.04845 14.9271 6.87484 14.9998 6.6665 14.9998ZM13.3332 14.9998C13.1248 14.9998 12.9512 14.9271 12.8123 14.7815C12.6734 14.6354 12.604 14.4651 12.604 14.2707C12.604 14.0623 12.6734 13.8854 12.8123 13.7398C12.9512 13.5937 13.1248 13.5207 13.3332 13.5207C13.5415 13.5207 13.7151 13.5937 13.854 13.7398C13.9929 13.8854 14.0623 14.0623 14.0623 14.2707C14.0623 14.4651 13.9929 14.6354 13.854 14.7815C13.7151 14.9271 13.5415 14.9998 13.3332 14.9998ZM4.4165 17.9165C3.99984 17.9165 3.64567 17.7707 3.354 17.479C3.06234 17.1873 2.9165 16.8332 2.9165 16.4165V5.24984C2.9165 4.83317 3.06234 4.479 3.354 4.18734C3.64567 3.89567 3.99984 3.74984 4.4165 3.74984H5.58317V1.979H6.854V3.74984H13.1665V1.979H14.4165V3.74984H15.5832C15.9998 3.74984 16.354 3.89567 16.6457 4.18734C16.9373 4.479 17.0832 4.83317 17.0832 5.24984V16.4165C17.0832 16.8332 16.9373 17.1873 16.6457 17.479C16.354 17.7707 15.9998 17.9165 15.5832 17.9165H4.4165ZM4.4165 16.6665H15.5832C15.6387 16.6665 15.6943 16.6387 15.7498 16.5832C15.8054 16.5276 15.8332 16.4721 15.8332 16.4165V8.58317H4.1665V16.4165C4.1665 16.4721 4.19428 16.5276 4.24984 16.5832C4.30539 16.6387 4.36095 16.6665 4.4165 16.6665Z" fill="url(#paint0_linear_13318_6138)"/>
</g>
<defs>
<linearGradient id="paint0_linear_13318_6138" x1="1.86213" y1="0.952446" x2="20.5107" y2="4.83188" gradientUnits="userSpaceOnUse">
<stop offset="0.00972591" stop-color="#44C3F9"/>
<stop offset="1" stop-color="#27E4A0"/>
</linearGradient>
</defs>
</svg>
