<svg width="24" height="20" viewBox="0 0 24 20" fill="none" xmlns="http://www.w3.org/2000/svg">
<g clip-path="url(#clip0_13318_6541)">
<path d="M22.9344 16V16C22.9344 16.1449 22.7776 16.334 22.4853 16.334H12.6989C12.4069 16.334 12.25 16.145 12.25 16V4.31797C12.25 4.17379 12.4073 3.98387 12.6989 3.98387H22.4853C22.7772 3.98387 22.9344 4.1738 22.9344 4.31797V16Z" fill="#F1F5F7" stroke="#1872D9" stroke-width="0.5"/>
<path d="M19.6892 7.07938H12.6989C12.3131 7.07938 12 6.81875 12 6.49523C12 6.17148 12.3131 5.91113 12.6989 5.91113H19.6892C20.075 5.91113 20.3881 6.17277 20.3881 6.49523C20.3881 6.8177 20.075 7.07938 19.6892 7.07938Z" fill="#1B80E4"/>
<path d="M19.6892 9.41603H12.6989C12.3131 9.41603 12 9.15518 12 8.83166C12 8.50814 12.3131 8.24756 12.6989 8.24756H19.6892C20.075 8.24756 20.3881 8.50943 20.3881 8.83166C20.3881 9.15436 20.075 9.41603 19.6892 9.41603Z" fill="#1B80E4"/>
<path d="M19.6892 11.7522H12.6989C12.3131 11.7522 12 11.4918 12 11.1681C12 10.8445 12.3131 10.584 12.6989 10.584H19.6892C20.075 10.584 20.3881 10.8456 20.3881 11.1681C20.3881 11.4905 20.075 11.7522 19.6892 11.7522Z" fill="#1B80E4"/>
<path d="M19.6892 14.0884H12.6989C12.3131 14.0884 12 13.8281 12 13.5044C12 13.1808 12.3131 12.9204 12.6989 12.9204H19.6892C20.075 12.9204 20.3881 13.1821 20.3881 13.5044C20.3881 13.8268 20.075 14.0884 19.6892 14.0884Z" fill="#1B80E4"/>
<path d="M13.145 1.37395C12.9854 1.26188 12.7716 1.21524 12.5703 1.24911L1.38585 3.00142C1.0558 3.0527 0.81543 3.29454 0.81543 3.57489V16.425C0.81543 16.7054 1.05454 16.9473 1.38585 16.9986L12.5703 18.751C12.6137 18.758 12.6555 18.7615 12.6989 18.7615C12.8611 18.7615 13.019 18.7146 13.145 18.6271C13.3059 18.5161 13.3978 18.3513 13.3978 18.1774V1.82263C13.3978 1.64841 13.3058 1.48489 13.145 1.37395Z" fill="#1872D9"/>
<path d="M9.89864 12.986C9.86222 13.2533 9.61055 13.4672 9.29044 13.4999C9.26095 13.5034 9.23301 13.5045 9.20381 13.5045C8.91576 13.5045 8.65275 13.3551 8.54948 13.1261L7.10648 9.91123L5.66376 13.1261C5.55197 13.3761 5.2582 13.529 4.93416 13.5011C4.61662 13.473 4.36219 13.2674 4.31756 13.0022L3.61842 8.91353C3.56391 8.59568 3.82959 8.29923 4.2112 8.25341C4.59417 8.20697 4.94798 8.42998 5.00245 8.74892L5.31426 10.576L6.45108 8.04212C6.65503 7.58646 7.5555 7.58646 7.76091 8.04212L8.83153 10.4274L9.2077 7.59806C9.25101 7.27798 9.60633 7.04802 9.97969 7.08193C10.3639 7.11904 10.6395 7.40767 10.5977 7.72791L9.89864 12.986Z" fill="#FCFCFC"/>
<g clip-path="url(#clip1_13318_6541)">
<path d="M23.5 1.5H12V18.5H23.5V1.5Z" fill="white"/>
<path d="M23.5 19H13.5C13.2236 19 13 18.7764 13 18.5C13 18.2236 13.2236 18 13.5 18H23V2H13.5C13.2236 2 13 1.77637 13 1.5C13 1.22363 13.2236 1 13.5 1H23.5C23.7764 1 24 1.22363 24 1.5V18.5C24 18.7764 23.7764 19 23.5 19Z" fill="#177848"/>
<path d="M14 -2L0 0.608696V19.3913L14 22V-2Z" fill="#177848"/>
<path opacity="0.2" d="M0 0.608704V0.858704L14 -1.75V-2L0 0.608704Z" fill="white"/>
<path d="M17 3H13V5H17V3Z" fill="#177848"/>
<path d="M22 3H18V5H22V3Z" fill="#177848"/>
<path d="M17 6H13V8H17V6Z" fill="#177848"/>
<path d="M22 6H18V8H22V6Z" fill="#177848"/>
<path d="M17 9H13V11H17V9Z" fill="#177848"/>
<path d="M22 9H18V11H22V9Z" fill="#177848"/>
<path d="M17 12H13V14H17V12Z" fill="#177848"/>
<path d="M22 12H18V14H22V12Z" fill="#177848"/>
<path d="M17 15H13V17H17V15Z" fill="#177848"/>
<path d="M22 15H18V17H22V15Z" fill="#177848"/>
<path opacity="0.1" d="M0 19.3911L14 21.9998V21.7498L0 19.1411V19.3911Z" fill="black"/>
<path d="M23.5 19C23.7764 19 24 18.7764 24 18.5V11L14 1V19H23.5Z" fill="url(#paint0_linear_13318_6541)"/>
<path d="M7.35748 10.5L9.65509 6.36426L9.6261 6.34814L7.87946 6.4729L6.49982 8.95624L5.22546 6.66248L3.57568 6.78027L5.64215 10.5L3.57568 14.2197L5.22546 14.3375L6.49982 12.0438L7.87946 14.5271L9.6261 14.6519L9.65509 14.6357L7.35748 10.5Z" fill="white"/>
<path opacity="0.05" d="M14 -2L0 0.608696V19.3913L14 22V-2Z" fill="url(#paint1_linear_13318_6541)"/>
<path d="M23.5 1H14V-2L0 0.608704V19.3913L14 22V19H23.5C23.7764 19 24 18.7764 24 18.5V1.5C24 1.22363 23.7764 1 23.5 1Z" fill="url(#paint2_linear_13318_6541)"/>
</g>
</g>
<defs>
<linearGradient id="paint0_linear_13318_6541" x1="9.5" y1="5.5" x2="23.3536" y2="19.3536" gradientUnits="userSpaceOnUse">
<stop stop-opacity="0.1"/>
<stop offset="1" stop-opacity="0"/>
</linearGradient>
<linearGradient id="paint1_linear_13318_6541" x1="-0.000815525" y1="9.99946" x2="14" y2="9.99946" gradientUnits="userSpaceOnUse">
<stop stop-color="white"/>
<stop offset="1"/>
</linearGradient>
<linearGradient id="paint2_linear_13318_6541" x1="-1.56345" y1="3.96153" x2="25.0454" y2="16.3694" gradientUnits="userSpaceOnUse">
<stop stop-color="white" stop-opacity="0.2"/>
<stop offset="1" stop-color="white" stop-opacity="0"/>
</linearGradient>
<clipPath id="clip0_13318_6541">
<rect width="24" height="20" fill="white"/>
</clipPath>
<clipPath id="clip1_13318_6541">
<rect width="24" height="24" fill="white" transform="translate(0 -2)"/>
</clipPath>
</defs>
</svg>
