<svg width="20" height="21" viewBox="0 0 20 21" fill="none" xmlns="http://www.w3.org/2000/svg">
<g clip-path="url(#clip0_13318_6400)">
<mask id="mask0_13318_6400" style="mask-type:alpha" maskUnits="userSpaceOnUse" x="0" y="0" width="20" height="21">
<rect y="0.5" width="20" height="20" fill="#D9D9D9"/>
</mask>
<g mask="url(#mask0_13318_6400)">
<path d="M13.6457 17.4165L15.8748 15.1873V17.0207H16.604V13.9373H13.5415V14.6665H15.354L13.1248 16.8957L13.6457 17.4165ZM14.9998 19.2915C13.9582 19.2915 13.0726 18.9271 12.3432 18.1982C11.6143 17.4687 11.2498 16.5832 11.2498 15.5415C11.2498 14.4998 11.6143 13.6146 12.3432 12.8857C13.0726 12.1562 13.9582 11.7915 14.9998 11.7915C16.0415 11.7915 16.9271 12.1562 17.6565 12.8857C18.3854 13.6146 18.7498 14.4998 18.7498 15.5415C18.7498 16.5832 18.3854 17.4687 17.6565 18.1982C16.9271 18.9271 16.0415 19.2915 14.9998 19.2915ZM6.0415 7.89567H13.9582V6.64567H6.0415V7.89567ZM9.6665 17.5832H4.4165C3.99984 17.5832 3.64567 17.4373 3.354 17.1457C3.06234 16.854 2.9165 16.4998 2.9165 16.0832V4.9165C2.9165 4.49984 3.06234 4.14567 3.354 3.854C3.64567 3.56234 3.99984 3.4165 4.4165 3.4165H15.5832C15.9998 3.4165 16.354 3.56234 16.6457 3.854C16.9373 4.14567 17.0832 4.49984 17.0832 4.9165V10.1873C16.7498 10.0484 16.4096 9.94428 16.0623 9.87484C15.7151 9.80539 15.3609 9.77067 14.9998 9.77067C14.7776 9.77067 14.5693 9.78095 14.3748 9.8015C14.1804 9.82261 13.9859 9.86095 13.7915 9.9165V9.87484H6.0415V11.1248H11.3332C10.9998 11.3887 10.7048 11.6873 10.4482 12.0207C10.1909 12.354 9.97206 12.7151 9.7915 13.104H6.0415V14.354H9.39567C9.354 14.5484 9.32289 14.7393 9.30234 14.9265C9.28123 15.1143 9.27067 15.3054 9.27067 15.4998C9.27067 15.8609 9.29845 16.2151 9.354 16.5623C9.40956 16.9096 9.51373 17.2498 9.6665 17.5832Z" fill="url(#paint0_linear_13318_6400)"/>
</g>
</g>
<defs>
<linearGradient id="paint0_linear_13318_6400" x1="1.73809" y1="2.39397" x2="22.3591" y2="7.20728" gradientUnits="userSpaceOnUse">
<stop offset="0.00972591" stop-color="#44C3F9"/>
<stop offset="1" stop-color="#27E4A0"/>
</linearGradient>
<clipPath id="clip0_13318_6400">
<rect width="20" height="20" fill="white" transform="translate(0 0.5)"/>
</clipPath>
</defs>
</svg>
