<svg width="14" height="14" viewBox="0 0 14 14" fill="none" xmlns="http://www.w3.org/2000/svg">
<g clip-path="url(#clip0_13417_6407)">
<mask id="mask0_13417_6407" style="mask-type:alpha" maskUnits="userSpaceOnUse" x="-1" y="-1" width="16" height="16">
<rect x="-0.5" y="-0.5" width="15" height="15" fill="#D9D9D9" stroke="black"/>
</mask>
<g mask="url(#mask0_13417_6407)">
<path d="M9.41743 1.0829L9.41718 1.08266C8.75414 0.420063 7.93893 0.0834961 6.99992 0.0834961C6.0609 0.0834961 5.24582 0.420074 4.58312 1.08278C3.9201 1.74579 3.58325 2.56104 3.58325 3.50016V4.16683H3.49992C3.04555 4.16683 2.64409 4.3343 2.3227 4.65569C2.0011 4.97729 1.83325 5.37887 1.83325 5.8335V11.6668C1.83325 12.1215 2.0011 12.523 2.3227 12.8446C2.64409 13.166 3.04555 13.3335 3.49992 13.3335H10.4999C10.9543 13.3335 11.3558 13.166 11.6774 12.8449L11.678 12.8443C11.9991 12.5227 12.1666 12.1212 12.1666 11.6668V5.8335C12.1666 5.37915 11.9991 4.97766 11.678 4.65599L11.6774 4.65539C11.3558 4.33428 10.9543 4.16683 10.4999 4.16683H10.4166V3.50016C10.4166 2.56115 10.08 1.74594 9.41743 1.0829ZM7.47062 9.22086C7.33503 9.35609 7.1871 9.41683 6.99992 9.41683C6.81262 9.41683 6.66497 9.35603 6.52981 9.22086C6.39407 9.08512 6.33325 8.93721 6.33325 8.75016C6.33325 8.56312 6.39407 8.4152 6.52981 8.27947C6.66497 8.1443 6.81262 8.0835 6.99992 8.0835C7.1871 8.0835 7.33503 8.14424 7.47062 8.27947C7.60584 8.41505 7.66659 8.56298 7.66659 8.75016C7.66659 8.93734 7.60584 9.08527 7.47062 9.22086ZM8.24992 4.16683H5.74992V3.50016C5.74992 3.14515 5.86844 2.85958 6.11389 2.61413C6.35933 2.36869 6.6449 2.25016 6.99992 2.25016C7.35494 2.25016 7.6405 2.36869 7.88595 2.61413C8.13139 2.85958 8.24992 3.14515 8.24992 3.50016V4.16683Z" fill="#F0B10D" stroke="white"/>
</g>
</g>
<defs>
<clipPath id="clip0_13417_6407">
<rect width="14" height="14" fill="white"/>
</clipPath>
</defs>
</svg>
