<svg width="20" height="20" viewBox="0 0 20 20" fill="none" xmlns="http://www.w3.org/2000/svg">
<g clip-path="url(#clip0_14370_8592)">
<path d="M4 20L16 20C18.2091 20 20 18.2091 20 16L20 4C20 1.79086 18.2091 0 16 0L4 0C1.79086 0 0 1.79086 0 4L0 16C0 18.2091 1.79086 20 4 20Z" fill="url(#paint0_linear_14370_8592)"/>
<mask id="mask0_14370_8592" style="mask-type:alpha" maskUnits="userSpaceOnUse" x="0" y="0" width="20" height="20">
<path d="M0 0L0 20H20V0H0Z" fill="#D9D9D9"/>
</mask>
<g mask="url(#mask0_14370_8592)">
<path d="M14.416 12.7494C14.2632 12.9021 14.0688 12.9785 13.8327 12.9785C13.5965 12.9785 13.4021 12.9021 13.2493 12.7494L9.99933 9.49931L6.74936 12.7493C6.59658 12.9021 6.40213 12.9785 6.16602 12.9785C5.92991 12.9785 5.73547 12.9021 5.58269 12.7493C5.42991 12.5966 5.35352 12.4021 5.35352 12.166C5.35352 11.9299 5.42991 11.7355 5.58269 11.5827L9.41602 7.74931C9.49936 7.66598 9.58963 7.60681 9.68686 7.57181C9.78408 7.53737 9.88824 7.52014 9.99933 7.52014C10.1104 7.52014 10.2146 7.53737 10.3118 7.57181C10.409 7.60681 10.4993 7.66598 10.5827 7.74931L14.416 11.5827C14.5688 11.7355 14.6452 11.9299 14.6452 12.166C14.6452 12.4021 14.5688 12.5966 14.416 12.7494Z" fill="white"/>
</g>
</g>
<defs>
<linearGradient id="paint0_linear_14370_8592" x1="17.7812" y1="25.2637" x2="9.88677" y2="-8.56081" gradientUnits="userSpaceOnUse">
<stop stop-color="#17E180"/>
<stop offset="1" stop-color="#009883"/>
</linearGradient>
<clipPath id="clip0_14370_8592">
<rect width="20" height="20" fill="white"/>
</clipPath>
</defs>
</svg>
