<svg width="20" height="20" viewBox="0 0 20 20" fill="none" xmlns="http://www.w3.org/2000/svg">
<mask id="mask0_13206_12010" style="mask-type:alpha" maskUnits="userSpaceOnUse" x="0" y="0" width="20" height="20">
<rect width="20" height="20" fill="#D9D9D9"/>
</mask>
<g mask="url(#mask0_13206_12010)">
<path d="M2.5 16C2.08333 16 1.72933 15.854 1.438 15.562C1.146 15.2707 1 14.9167 1 14.5V5.5C1 5.08333 1.146 4.72933 1.438 4.438C1.72933 4.146 2.08333 4 2.5 4H11.5C11.9167 4 12.2707 4.146 12.562 4.438C12.854 4.72933 13 5.08333 13 5.5V14.5C13 14.9167 12.854 15.2707 12.562 15.562C12.2707 15.854 11.9167 16 11.5 16H2.5ZM15 9.25C14.8613 9.25 14.7433 9.20133 14.646 9.104C14.5487 9.00667 14.5 8.88867 14.5 8.75V4.5C14.5 4.36133 14.5487 4.24333 14.646 4.146C14.7433 4.04867 14.8613 4 15 4H18.5C18.6387 4 18.7567 4.04867 18.854 4.146C18.9513 4.24333 19 4.36133 19 4.5V8.75C19 8.88867 18.9513 9.00667 18.854 9.104C18.7567 9.20133 18.6387 9.25 18.5 9.25H15ZM4.25 13H9.75C9.90267 13 10.0137 12.9307 10.083 12.792C10.153 12.6527 10.1393 12.5207 10.042 12.396L8.521 10.396C8.45167 10.2987 8.351 10.25 8.219 10.25C8.087 10.25 7.98633 10.2987 7.917 10.396L6.5 12.229L5.583 11.021C5.51367 10.9097 5.413 10.854 5.281 10.854C5.149 10.854 5.04833 10.9097 4.979 11.021L3.958 12.396C3.86067 12.5207 3.85033 12.6527 3.927 12.792C4.00367 12.9307 4.11133 13 4.25 13ZM15 16C14.8613 16 14.7433 15.9513 14.646 15.854C14.5487 15.7567 14.5 15.6387 14.5 15.5V11.25C14.5 11.1113 14.5487 10.9933 14.646 10.896C14.7433 10.7987 14.8613 10.75 15 10.75H18.5C18.6387 10.75 18.7567 10.7987 18.854 10.896C18.9513 10.9933 19 11.1113 19 11.25V15.5C19 15.6387 18.9513 15.7567 18.854 15.854C18.7567 15.9513 18.6387 16 18.5 16H15Z" fill="#7B52F7"/>
</g>
</svg>
