<svg width="20" height="20" viewBox="0 0 20 20" fill="none" xmlns="http://www.w3.org/2000/svg">
<mask id="mask0_13206_12014" style="mask-type:alpha" maskUnits="userSpaceOnUse" x="0" y="0" width="20" height="20">
<rect width="20" height="20" fill="#7B52F7"/>
</mask>
<g mask="url(#mask0_13206_12014)">
<path d="M12.083 12.542C12.5557 12.542 12.9587 12.3753 13.292 12.042C13.6253 11.7087 13.792 11.3057 13.792 10.833C13.792 10.361 13.6253 9.95833 13.292 9.62499C12.9587 9.29166 12.5557 9.12499 12.083 9.12499C11.875 9.12499 11.6773 9.15966 11.49 9.22899C11.302 9.29833 11.1317 9.39566 10.979 9.52099L8.79199 8.43799V8.22899L10.979 7.12499C11.1317 7.24966 11.302 7.35033 11.49 7.42699C11.6773 7.50366 11.875 7.54199 12.083 7.54199C12.5557 7.54199 12.9587 7.37533 13.292 7.04199C13.6253 6.70866 13.792 6.30566 13.792 5.83299C13.792 5.36099 13.6253 4.95833 13.292 4.62499C12.9587 4.29166 12.5557 4.12499 12.083 4.12499C11.611 4.12499 11.2083 4.29166 10.875 4.62499C10.5417 4.95833 10.375 5.36099 10.375 5.83299V5.93799L8.18799 7.02099C8.03466 6.89566 7.86433 6.79833 7.67699 6.72899C7.48966 6.65966 7.29166 6.62499 7.08299 6.62499C6.61099 6.62499 6.20833 6.79166 5.87499 7.12499C5.54166 7.45833 5.37499 7.86099 5.37499 8.33299C5.37499 8.80566 5.54166 9.20866 5.87499 9.54199C6.20833 9.87533 6.61099 10.042 7.08299 10.042C7.29166 10.042 7.48966 10.0073 7.67699 9.93799C7.86433 9.86799 8.03466 9.77066 8.18799 9.64599L10.375 10.729V10.833C10.375 11.3057 10.5417 11.7087 10.875 12.042C11.2083 12.3753 11.611 12.542 12.083 12.542ZM1.66699 18.333V3.41699C1.66699 2.93099 1.83699 2.51766 2.17699 2.17699C2.51766 1.83699 2.93099 1.66699 3.41699 1.66699H16.583C17.069 1.66699 17.4823 1.83699 17.823 2.17699C18.163 2.51766 18.333 2.93099 18.333 3.41699V13.25C18.333 13.736 18.163 14.1493 17.823 14.49C17.4823 14.83 17.069 15 16.583 15H4.99999L1.66699 18.333Z" fill="#F752DD"/>
</g>
</svg>
