<svg width="20" height="20" viewBox="0 0 20 20" fill="none" xmlns="http://www.w3.org/2000/svg">
<mask id="mask0_12526_4519" style="mask-type:alpha" maskUnits="userSpaceOnUse" x="0" y="0" width="20" height="20">
<rect width="20" height="20" fill="#D9D9D9"/>
</mask>
<g mask="url(#mask0_12526_4519)">
<path d="M3.41699 10.083H16.583V6.62501H3.41699V10.083ZM16.625 18.333C16.389 18.333 16.184 18.2463 16.01 18.073C15.8367 17.899 15.75 17.694 15.75 17.458V15.833H14.125C13.889 15.833 13.684 15.7463 13.51 15.573C13.3367 15.399 13.25 15.194 13.25 14.958C13.25 14.722 13.3367 14.5173 13.51 14.344C13.684 14.17 13.889 14.083 14.125 14.083H15.75V12.458C15.75 12.222 15.8367 12.0173 16.01 11.844C16.184 11.67 16.389 11.583 16.625 11.583C16.861 11.583 17.066 11.67 17.24 11.844C17.4133 12.0173 17.5 12.222 17.5 12.458V14.083H19.125C19.361 14.083 19.566 14.17 19.74 14.344C19.9133 14.5173 20 14.722 20 14.958C20 15.194 19.9133 15.399 19.74 15.573C19.566 15.7463 19.361 15.833 19.125 15.833H17.5V17.458C17.5 17.694 17.4133 17.899 17.24 18.073C17.066 18.2463 16.861 18.333 16.625 18.333ZM3.41699 16.646C2.93099 16.646 2.51766 16.4757 2.17699 16.135C1.83699 15.795 1.66699 15.382 1.66699 14.896V5.08301C1.66699 4.59701 1.83699 4.18401 2.17699 3.84401C2.51766 3.50334 2.93099 3.33301 3.41699 3.33301H16.583C17.069 3.33301 17.4823 3.50334 17.823 3.84401C18.163 4.18401 18.333 4.59701 18.333 5.08301V10.708H15.75C14.8193 10.708 14.0243 11.038 13.365 11.698C12.705 12.358 12.375 13.153 12.375 14.083V16.646H3.41699Z" fill="#55B363"/>
</g>
</svg>
