<svg width="20" height="20" viewBox="0 0 20 20" fill="none" xmlns="http://www.w3.org/2000/svg">
<g clip-path="url(#clip0_13204_11941)">
<path fill-rule="evenodd" clip-rule="evenodd" d="M17 11.7827C17 11.798 16.9997 11.8132 16.9989 11.8285C16.994 11.9237 16.9732 12.293 16.9365 12.4682C16.6966 13.6133 15.5415 16.6138 9.97659 19.3189C9.97536 19.3195 9.97448 19.3207 9.97427 19.322L9.97425 19.3222C9.97383 19.3249 9.97072 19.3262 9.96824 19.3251L9.96813 19.325C9.96712 19.3246 9.96588 19.3246 9.96485 19.325C9.96234 19.326 9.95901 19.3245 9.95849 19.3218C9.95825 19.3206 9.95746 19.3195 9.95635 19.319C4.32229 16.5801 3.20728 13.5378 2.98674 12.4257C2.98638 12.4242 2.91846 11.926 2.91846 11.6315V4.91274C2.91846 4.79496 3.01394 4.69948 3.13171 4.69948C5.80032 4.65443 8.21222 3.14033 9.35983 2.29041C9.77255 1.98475 10.3592 1.98475 10.7719 2.29042C11.7771 3.03488 13.7524 4.28894 16.0205 4.61894C16.5605 4.69751 17 5.13704 17 5.68274V11.7827ZM10.4545 8.19347L11.3018 7.38803H11.2971C10.1345 7.09871 8.90214 7.1941 7.80484 7.65836C6.70755 8.12262 5.81135 8.9278 5.26517 9.9401C5.629 10.6143 6.15559 11.2026 6.7875 11.655L8.10877 10.4107C8.02163 10.1037 8.02153 9.78048 8.1085 9.47346C8.19547 9.16645 8.36644 8.8865 8.6042 8.66176C8.84197 8.43702 9.13815 8.27542 9.46296 8.19322C9.78776 8.11101 10.1297 8.1111 10.4545 8.19347ZM13.1237 8.22709C13.1228 8.22644 13.1219 8.22579 13.121 8.22515H13.1258L13.1237 8.22709ZM14.6529 9.9401C14.2848 9.26684 13.7592 8.67932 13.1237 8.22709L11.8045 9.4695C11.8916 9.77647 11.8917 10.0997 11.8048 10.4067C11.7178 10.7137 11.5468 10.9937 11.3091 11.2184C11.0713 11.4432 10.7751 11.6048 10.4503 11.687C10.1255 11.7692 9.78353 11.7691 9.45877 11.6867L8.61143 12.4922C9.77537 12.7838 11.0099 12.6895 12.1092 12.2251C13.2086 11.7608 14.1063 10.9543 14.6529 9.9401ZM13.3221 6.72289C13.1421 6.55275 12.8605 6.55275 12.6805 6.72289L6.59121 12.4786C6.39628 12.6628 6.39628 12.9731 6.59121 13.1573C6.77121 13.3274 7.05273 13.3274 7.23273 13.1573L13.3221 7.40159C13.517 7.21735 13.517 6.90713 13.3221 6.72289Z" fill="#44C3F9"/>
</g>
<defs>
<clipPath id="clip0_13204_11941">
<rect x="0.393799" y="0.397949" width="19.1312" height="19.1312" rx="9.56562" fill="white"/>
</clipPath>
</defs>
</svg>
