<svg width="20" height="20" viewBox="0 0 20 20" fill="none" xmlns="http://www.w3.org/2000/svg">
<g clip-path="url(#clip0_13204_11972)">
<path d="M18.3833 5.52574C18.5673 5.34188 18.6222 5.06538 18.5227 4.82515C18.4233 4.58493 18.1889 4.42831 17.9288 4.42831L15.5714 4.42825V2.0711C15.5714 1.81108 15.4148 1.57667 15.1747 1.47718C14.9345 1.37767 14.6579 1.43268 14.4741 1.61654L12.3313 3.75945C12.2107 3.88003 12.143 4.04354 12.143 4.21403L12.1431 6.64459L10.4442 8.34345C10.3025 8.30565 10.1537 8.28542 10.0001 8.28542C9.05334 8.28542 8.28585 9.0529 8.28585 9.9997C8.28585 10.9465 9.05334 11.714 10.0001 11.714C10.9469 11.714 11.7144 10.9465 11.7144 9.9997C11.7144 9.8461 11.6942 9.6973 11.6564 9.55571L13.3552 7.85687H15.7859C15.9564 7.85687 16.1199 7.78914 16.2405 7.66859L18.3833 5.52574ZM10.0001 1.42828C11.0309 1.42828 12.0192 1.61024 12.9347 1.94379L11.7251 3.15335C11.6715 3.20708 11.6222 3.26446 11.5777 3.32491C11.0712 3.20566 10.5431 3.14257 10.0001 3.14257C6.21304 3.14257 3.143 6.21261 3.143 9.9997C3.143 13.7868 6.21304 16.8569 10.0001 16.8569C13.7873 16.8569 16.8573 13.7868 16.8573 9.9997C16.8573 9.45679 16.7942 8.92861 16.675 8.42213C16.7354 8.37765 16.7929 8.32844 16.8466 8.27466L18.0561 7.06518C18.3896 7.98062 18.5715 8.96891 18.5715 9.9997C18.5715 14.7335 14.7339 18.5711 10.0001 18.5711C5.26626 18.5711 1.42871 14.7335 1.42871 9.9997C1.42871 5.26583 5.26626 1.42828 10.0001 1.42828ZM10.0001 4.85685C10.4441 4.85685 10.8749 4.9131 11.2858 5.01887L11.2859 6.28956L10.9308 6.64467C10.9167 6.65879 10.9029 6.67309 10.8893 6.68756C10.6058 6.61163 10.3077 6.57113 10.0001 6.57113C8.10659 6.57113 6.57157 8.10616 6.57157 9.9997C6.57157 11.8932 8.10659 13.4283 10.0001 13.4283C11.8937 13.4283 13.4287 11.8932 13.4287 9.9997C13.4287 9.69216 13.3882 9.39404 13.3123 9.1105C13.3268 9.09697 13.341 9.08316 13.3552 9.06901L13.7102 8.71399H14.981C15.0867 9.1249 15.143 9.55579 15.143 9.9997C15.143 12.84 12.8405 15.1426 10.0001 15.1426C7.15981 15.1426 4.85728 12.84 4.85728 9.9997C4.85728 7.15938 7.15981 4.85685 10.0001 4.85685Z" fill="#44C3F9"/>
</g>
<defs>
<clipPath id="clip0_13204_11972">
<rect width="18" height="18" fill="white" transform="translate(1 1)"/>
</clipPath>
</defs>
</svg>
