<svg width="20" height="20" viewBox="0 0 20 20" fill="none" xmlns="http://www.w3.org/2000/svg">
<mask id="mask0_13204_11776" style="mask-type:alpha" maskUnits="userSpaceOnUse" x="0" y="0" width="20" height="20">
<rect width="20" height="20" fill="#D9D9D9"/>
</mask>
<g mask="url(#mask0_13204_11776)">
<path d="M3.86667 18C3.34827 18 2.90738 17.8187 2.544 17.456C2.18133 17.0926 2 16.6517 2 16.1333V3.86667C2 3.34827 2.18133 2.90738 2.544 2.544C2.90738 2.18133 3.34827 2 3.86667 2H16.1333C16.6517 2 17.0926 2.18133 17.456 2.544C17.8187 2.90738 18 3.34827 18 3.86667V16.1333C18 16.6517 17.8187 17.0926 17.456 17.456C17.0926 17.8187 16.6517 18 16.1333 18H3.86667ZM6.4672 14.4448C6.71893 14.4448 6.93724 14.352 7.12213 14.1664C7.30702 13.9815 7.39947 13.7632 7.39947 13.5115V10.9333C7.39947 10.6816 7.30702 10.4629 7.12213 10.2773C6.93724 10.0924 6.71893 10 6.4672 10C6.21476 10 5.99609 10.0924 5.8112 10.2773C5.6256 10.4629 5.5328 10.6816 5.5328 10.9333V13.5115C5.5328 13.7632 5.6256 13.9815 5.8112 14.1664C5.99609 14.352 6.21476 14.4448 6.4672 14.4448ZM13.5328 14.4448C13.7852 14.4448 14.0039 14.352 14.1888 14.1664C14.3744 13.9815 14.4672 13.7632 14.4672 13.5115V6.55573C14.4672 6.304 14.3744 6.08533 14.1888 5.89973C14.0039 5.71484 13.7852 5.6224 13.5328 5.6224C13.2811 5.6224 13.0628 5.71484 12.8779 5.89973C12.693 6.08533 12.6005 6.304 12.6005 6.55573V13.5115C12.6005 13.7632 12.693 13.9815 12.8779 14.1664C13.0628 14.352 13.2811 14.4448 13.5328 14.4448ZM10 14.4448C10.2517 14.4448 10.4704 14.352 10.656 14.1664C10.8409 13.9815 10.9333 13.7632 10.9333 13.5115V12.6891C10.9333 12.4373 10.8409 12.2187 10.656 12.0331C10.4704 11.8482 10.2517 11.7557 10 11.7557C9.74827 11.7557 9.5296 11.8482 9.344 12.0331C9.15911 12.2187 9.06667 12.4373 9.06667 12.6891V13.5115C9.06667 13.7632 9.15911 13.9815 9.344 14.1664C9.5296 14.352 9.74827 14.4448 10 14.4448ZM10 10C10.2517 10 10.4704 9.90756 10.656 9.72267C10.8409 9.53707 10.9333 9.3184 10.9333 9.06667V9.04427C10.9333 8.79253 10.8409 8.57778 10.656 8.4C10.4704 8.22222 10.2517 8.13333 10 8.13333C9.74827 8.13333 9.5296 8.22578 9.344 8.41067C9.15911 8.59627 9.06667 8.81493 9.06667 9.06667V9.08907C9.06667 9.3408 9.15911 9.55556 9.344 9.73333C9.5296 9.91111 9.74827 10 10 10Z" fill="#1877F2"/>
</g>
</svg>
