<svg width="56" height="25" viewBox="0 0 56 25" fill="none" xmlns="http://www.w3.org/2000/svg">
<g opacity="0.92" clip-path="url(#clip0_13102_5829)">
<path d="M31.7113 10.526C31.5531 11.3115 31.3422 12.0972 31.1841 12.8828C30.4462 16.1935 29.761 19.448 29.0231 22.7588C28.9703 23.0954 28.8123 23.2076 28.4959 23.2076C27.8107 23.2076 27.0728 23.2076 26.3876 23.2638C26.0714 23.2638 25.9132 23.1515 25.8606 22.8148C25.0699 18.9991 24.2265 15.2395 23.3832 11.4238C23.2778 11.031 23.1724 10.5821 23.067 10.1893C23.067 14.3978 23.067 18.5502 23.067 22.7026C23.067 23.2076 22.9616 23.3199 22.4872 23.2638C21.4329 23.2076 20.3788 23.2638 19.3246 23.2638C19.0611 23.2638 18.9556 23.2076 18.9556 22.871C18.9556 17.933 18.9556 12.9389 18.9556 8.00085C18.9556 6.31747 20.2206 5.02686 21.8019 5.02686C22.9088 5.02686 24.0684 5.02686 25.1753 5.02686C25.6497 5.02686 25.8077 5.13907 25.9132 5.6441C26.335 8.00085 26.862 10.3576 27.2836 12.7144C27.2836 12.7705 27.3364 12.8267 27.3364 12.9389C27.5472 12.8267 27.5472 12.6583 27.5472 12.49C28.0216 10.1893 28.4959 7.83251 28.9177 5.53186C28.9703 5.1952 29.1285 5.08296 29.4448 5.08296C30.5516 5.08296 31.6585 5.08296 32.7654 5.08296C34.6102 5.08296 35.8225 6.37358 35.8225 8.28143C35.8225 12.1533 35.8225 16.0251 35.8225 19.897C35.8225 20.8509 35.8225 21.8609 35.8225 22.8148C35.8225 23.2076 35.7699 23.3199 35.3481 23.3199C34.294 23.2638 33.1872 23.3199 32.1329 23.3199C31.7639 23.3199 31.7113 23.2076 31.7113 22.871C31.7113 18.9431 31.7639 15.0151 31.7639 11.0871C31.7639 10.9188 31.7639 10.7505 31.7639 10.5821C31.7639 10.526 31.7113 10.526 31.7113 10.526Z" fill="url(#paint0_linear_13102_5829)"/>
<path d="M7.99163 23.0954C6.19948 23.0954 4.40737 23.0954 2.61527 23.0954C1.50838 23.0954 0.770449 22.5343 0.454196 21.412C0.296069 20.8509 0.190651 20.2337 0.0325241 19.6164C-0.0728941 19.2235 0.0852313 19.1675 0.401486 19.1675C2.35173 19.1675 4.30196 19.1675 6.3049 19.1675C8.04428 19.1675 9.78369 19.1675 11.5231 19.1675C12.4192 19.1675 12.7881 18.8308 12.8408 17.8769C12.8935 16.979 12.7881 16.3617 12.1029 16.1373C11.892 16.0812 11.734 16.0812 11.5758 16.0812C8.83492 16.0812 6.14677 16.0812 3.40591 16.0812C1.87734 16.0812 0.928576 15.4078 0.506904 13.8367C-0.125604 11.7043 -0.125604 9.57202 0.454196 7.43977C0.875869 5.75633 1.87734 5.02686 3.51132 5.02686C7.09557 5.02686 10.627 5.02686 14.2112 5.02686C15.5817 5.02686 16.5832 6.03689 16.6886 7.49588C16.794 9.01094 16.794 9.01094 15.3709 9.01094C12.0502 9.01094 8.7822 9.01094 5.46155 9.01094C4.46009 9.01094 4.14384 9.34763 4.14384 10.3576C4.09113 11.5921 4.40737 11.9288 5.56698 11.9288C8.04428 11.9288 10.4689 11.9849 12.9462 11.9288C15.1073 11.8727 16.267 12.6583 16.6886 15.1834C17.0048 17.0352 17.0048 18.8869 16.4778 20.6825C16.0034 22.4222 15.0546 23.1515 13.3679 23.1515C11.5231 23.1515 9.73098 23.1515 7.99163 23.0954Z" fill="url(#paint1_linear_13102_5829)"/>
<path d="M43.4454 5.08252C45.7664 5.08252 48.0875 5.08252 50.4613 5.08252C51.3053 5.08252 52.1492 5.08252 52.9934 5.08252C54.6814 5.08252 55.8946 6.37537 56.0001 8.11792C56.0001 8.5114 56.0001 8.90488 56.0001 9.24211C56.0001 9.57941 55.8946 9.63559 55.6308 9.63559C54.3121 9.63559 52.9934 9.63559 51.7273 9.63559C51.3053 9.63559 51.1998 9.74802 51.1998 10.1977C51.1998 14.4135 51.1998 18.6294 51.1998 22.8451C51.1998 23.2949 51.147 23.4074 50.6723 23.4074C48.404 23.4074 46.1357 23.4074 43.9202 23.4074C43.7619 23.4074 43.6037 23.4074 43.3926 23.4074C43.4454 23.2387 43.3926 23.0701 43.4454 22.9014C44.4477 22.9014 45.4499 22.9014 46.4522 22.9014C46.7686 22.9014 46.8215 22.789 46.8215 22.4518C46.8215 16.9992 46.7686 11.603 46.8741 6.15052C46.8741 5.81325 46.7686 5.75704 46.4522 5.75704C45.4499 5.75704 44.4477 5.75704 43.4454 5.75704C43.4454 5.47599 43.4454 5.25115 43.4454 5.08252Z" fill="url(#paint2_linear_13102_5829)"/>
<path d="M43.4455 22.7896C43.34 22.9581 43.3928 23.1268 43.3928 23.2955C41.9686 23.8013 40.4915 24.3635 39.0671 24.9256C38.7506 25.038 38.698 24.9817 38.698 24.6445C38.698 20.9345 38.7506 17.2809 38.7506 13.5709C38.7506 11.4349 38.8035 9.29891 38.8035 7.16288C38.8035 6.7694 38.909 6.60075 39.2254 6.48834C40.6497 5.98244 42.0741 5.47653 43.4455 5.02686C43.4455 5.25169 43.4455 5.42033 43.4455 5.64517C43.4455 7.8936 43.4455 10.0859 43.4455 12.3343C43.4455 15.8756 43.4455 19.3606 43.4455 22.7896ZM41.441 14.3017C41.441 13.7957 41.1245 13.4585 40.597 13.4585C40.0167 13.4585 39.5419 13.852 39.5419 14.4141C39.5419 14.8638 39.9112 15.2572 40.4387 15.2572C40.9663 15.2572 41.3883 14.8638 41.441 14.3017Z" fill="url(#paint3_linear_13102_5829)"/>
<path d="M40.8134 4.30119C39.6007 4.30119 38.7043 3.51433 38.6515 2.39026C38.5989 1.32241 39.5479 0.198333 40.708 0.0297225C41.8153 -0.138888 42.7645 0.423146 43.1335 1.3786C43.5554 2.67128 42.5534 4.13258 41.1298 4.30119C40.9717 4.30119 40.8663 4.30119 40.8134 4.30119Z" fill="#FF2828"/>
</g>
<defs>
<linearGradient id="paint0_linear_13102_5829" x1="3.75594" y1="11.1589" x2="34.4289" y2="19.8676" gradientUnits="userSpaceOnUse">
<stop stop-color="#066DD5"/>
<stop offset="1" stop-color="#10E349"/>
</linearGradient>
<linearGradient id="paint1_linear_13102_5829" x1="3.75587" y1="11.1589" x2="34.4288" y2="19.8676" gradientUnits="userSpaceOnUse">
<stop stop-color="#066DD5"/>
<stop offset="1" stop-color="#10E349"/>
</linearGradient>
<linearGradient id="paint2_linear_13102_5829" x1="37.6073" y1="8.36671" x2="53.9958" y2="23.0871" gradientUnits="userSpaceOnUse">
<stop stop-color="#FF423A"/>
<stop offset="1" stop-color="#FFE815"/>
</linearGradient>
<linearGradient id="paint3_linear_13102_5829" x1="37.6072" y1="8.36712" x2="53.9956" y2="23.0875" gradientUnits="userSpaceOnUse">
<stop stop-color="#FF423A"/>
<stop offset="1" stop-color="#FFE815"/>
</linearGradient>
<clipPath id="clip0_13102_5829">
<rect width="56" height="25" fill="white"/>
</clipPath>
</defs>
</svg>
