<svg width="26" height="17" viewBox="0 0 26 17" fill="none" xmlns="http://www.w3.org/2000/svg">
<rect width="26" height="17" rx="2" fill="white"/>
<path d="M16.0191 5.2915H12.5814C12.3216 5.2915 11.9922 5.40385 11.8977 5.93917C11.8861 6.00429 10.7485 13.375 10.7485 13.5415C10.7485 13.8029 10.9455 13.9998 11.2066 13.9998H13.7277C13.8398 13.9998 13.9354 13.9188 13.9537 13.8083L14.3801 11.2498H15.1025C16.9976 11.2498 18.5395 9.70789 18.5395 7.81234C18.5395 6.42234 17.4089 5.2915 16.0191 5.2915Z" fill="#009ADA"/>
<path opacity="0.1" d="M13.7778 13.8855H11.1788C10.9881 13.8855 10.8337 13.779 10.7632 13.6206C10.7999 13.8398 10.9733 14.0001 11.2062 14.0001H13.7272C13.8394 14.0001 13.9349 13.919 13.9533 13.8085L13.9554 13.7958C13.9131 13.8495 13.8502 13.8855 13.7778 13.8855Z" fill="black"/>
<path opacity="0.1" d="M15.1024 11.1356H14.3992L14.3794 11.2502H15.1024C16.9975 11.2502 18.5394 9.70824 18.5394 7.81269C18.5394 7.79333 18.537 7.77462 18.5365 7.75537C18.5055 9.62432 16.9782 11.1356 15.1024 11.1356Z" fill="black"/>
<path d="M15.0812 3L10.5202 3C10.2024 3 9.93518 3.24819 9.8394 3.63222C9.82574 3.6875 8.45791 11.8997 8.45746 12.2067C8.45589 12.2947 8.45365 12.4151 8.55033 12.5135C8.64656 12.6116 8.78308 12.625 8.91624 12.625H10.8782L11.3646 9.41667H13.7285C15.8802 9.41667 17.6299 7.66304 17.6239 5.50977C17.62 4.11905 16.4719 3 15.0812 3Z" fill="#273691"/>
<path opacity="0.2" d="M10.4941 3.11458H15.0979C16.1998 3.11458 17.1481 3.80552 17.5079 4.77481C17.186 3.74516 16.2134 3 15.0788 3H10.5177C10.1999 3 9.93272 3.24819 9.83693 3.63222C9.83626 3.63491 9.83148 3.66232 9.82471 3.70191C9.93126 3.34579 10.1871 3.11458 10.4941 3.11458Z" fill="white"/>
<path opacity="0.1" d="M8.85695 12.5106C8.72379 12.5106 8.58728 12.4971 8.49104 12.3991C8.48411 12.392 8.48106 12.3842 8.4751 12.377C8.48791 12.4237 8.50911 12.4708 8.55124 12.5137C8.64748 12.6117 8.78399 12.6251 8.91715 12.6251H10.8792L10.8965 12.5106H8.85695Z" fill="black"/>
<path opacity="0.2" d="M11.3647 9.4165H13.7287C15.7633 9.4165 17.4363 7.84789 17.6074 5.85664C17.1738 5.50386 16.6215 5.2915 16.0201 5.2915H12.5824C12.3226 5.2915 11.9932 5.40385 11.8987 5.93917L11.3647 9.4165Z" fill="black"/>
<path d="M17.6073 5.85681C17.6171 5.74225 17.6242 5.62688 17.6239 5.50976C17.62 4.11903 16.4719 3 15.0812 3H10.5202C10.2024 3 9.93518 3.24819 9.8394 3.63222C9.82574 3.6875 8.45791 11.8997 8.45746 12.2067C8.45589 12.2947 8.45365 12.4151 8.55033 12.5135C8.64656 12.6116 8.78308 12.625 8.91624 12.625H10.8779C10.7994 13.1556 10.7493 13.5069 10.7493 13.5417C10.7493 13.8031 10.9463 14 11.2075 14H13.7285C13.8406 14 13.9362 13.919 13.9545 13.8084L14.3809 11.25H15.1033C16.9984 11.25 18.5403 9.70805 18.5403 7.8125C18.5403 7.0239 18.1759 6.31939 17.6073 5.85681Z" fill="url(#paint0_linear_13971_7023)"/>
<rect width="26" height="17" rx="2" stroke="#D3D3D3"/>
<defs>
<linearGradient id="paint0_linear_13971_7023" x1="8.58764" y1="6.26824" x2="17.646" y2="10.4922" gradientUnits="userSpaceOnUse">
<stop stop-color="white" stop-opacity="0.2"/>
<stop offset="1" stop-color="white" stop-opacity="0"/>
</linearGradient>
</defs>
</svg>
