<svg width="26" height="17" viewBox="0 0 26 17" fill="none" xmlns="http://www.w3.org/2000/svg">
<g clip-path="url(#clip0_13971_7106)">
<rect width="26" height="17" rx="2" fill="white"/>
<path d="M20.1307 7.61145L20.0286 7.11185C19.9515 7.32997 19.8187 7.6805 19.8272 7.66507C19.8272 7.66507 19.3485 8.95144 19.2239 9.28492H20.4816C20.4208 8.9945 20.1307 7.61145 20.1307 7.61145Z" fill="#2D389B"/>
<path d="M23.4336 1H2.56636C2.25319 1 2 1.26678 2 1.59585V15.4041C2 15.7332 2.25319 16 2.56636 16H23.4336C23.7468 16 24 15.7332 24 15.4041V1.59585C24 1.26678 23.7468 1 23.4336 1ZM3.70336 5.53282H6.05138C6.36806 5.54553 6.62319 5.65167 6.71123 6.00779L7.22188 8.59159C6.72018 7.24006 5.51112 6.11556 3.68389 5.65003L3.70336 5.53282ZM6.54451 11.4258L5.18821 6.55077C6.16317 7.20728 6.99363 8.249 7.28615 8.97394L7.4443 9.57594L8.92758 5.58897H10.5324L8.14738 11.4246L6.54451 11.4258ZM11.7119 11.4299H10.1974L11.1443 5.58282H12.6596L11.7119 11.4299ZM14.3473 11.5176C13.6684 11.5102 13.0144 11.3688 12.66 11.2053L12.873 9.89681L13.0682 9.98984C13.5656 10.2083 13.8877 10.2968 14.4942 10.2968C14.9293 10.2968 15.3955 10.1177 15.3998 9.72592C15.4025 9.4698 15.2047 9.28703 14.6149 9.00016C14.04 8.72068 13.2789 8.25186 13.2882 7.41218C13.2964 6.2758 14.3512 5.48283 15.8482 5.48283C16.4348 5.48283 16.9049 5.60987 17.2049 5.7283L17.0004 6.99582L16.8636 6.9282C16.5847 6.81018 16.226 6.69625 15.7301 6.70445C15.1373 6.70445 14.8623 6.96426 14.8623 7.20728C14.8592 7.48103 15.1833 7.66134 15.713 7.93263C16.5867 8.34981 16.9906 8.85591 16.9852 9.52102C16.9735 10.734 15.9401 11.5176 14.3473 11.5176ZM20.9107 11.4323C20.9107 11.4323 20.7724 10.7603 20.7265 10.5562C20.506 10.5562 18.9604 10.5537 18.7867 10.5537C18.7279 10.7115 18.4684 11.4323 18.4684 11.4323H16.878L19.1267 6.07417C19.2864 5.69347 19.5572 5.58897 19.9202 5.58897H21.0903L22.3161 11.4319L20.9107 11.4323Z" fill="#2D389B"/>
<path d="M-2 -1H3V16H-2V-1Z" fill="#2D389B"/>
<path d="M-2 -1H26V3H-2V-1Z" fill="#2D389B"/>
<path d="M-2 13H26V17H-2V13Z" fill="#2D389B"/>
<path d="M23 -1H28V16H23V-1Z" fill="#2D389B"/>
</g>
<defs>
<clipPath id="clip0_13971_7106">
<rect width="26" height="17" rx="2" fill="white"/>
</clipPath>
</defs>
</svg>
