<svg width="18" height="18" viewBox="0 0 18 18" fill="none" xmlns="http://www.w3.org/2000/svg">
<rect x="0.5" y="0.5" width="17" height="17" rx="2.5" fill="url(#paint0_linear_14360_8588)"/>
<mask id="mask0_14360_8588" style="mask-type:alpha" maskUnits="userSpaceOnUse" x="3" y="3" width="12" height="12">
<rect x="3" y="3" width="12" height="12" fill="#D9D9D9"/>
</mask>
<g mask="url(#mask0_14360_8588)">
<path d="M8.9004 12.6497C8.7672 12.6497 8.6506 12.6039 8.5506 12.5123C8.4506 12.4207 8.4006 12.3123 8.4006 12.1871V9.4751L5.5632 6.0251C5.4548 5.8835 5.436 5.7355 5.5068 5.5811C5.5776 5.4271 5.7006 5.3501 5.8758 5.3501H12.1254C12.3006 5.3501 12.4236 5.4271 12.4944 5.5811C12.5652 5.7355 12.5464 5.8835 12.438 6.0251L9.6006 9.4751V12.2627C9.6006 12.3791 9.561 12.4727 9.4818 12.5435C9.4026 12.6143 9.3046 12.6497 9.1878 12.6497H8.9004Z" fill="white"/>
</g>
<rect x="0.5" y="0.5" width="17" height="17" rx="2.5" stroke="white"/>
<defs>
<linearGradient id="paint0_linear_14360_8588" x1="1.99688" y1="-4.73733" x2="9.10191" y2="25.7047" gradientUnits="userSpaceOnUse">
<stop stop-color="#17E180"/>
<stop offset="1" stop-color="#009883"/>
</linearGradient>
</defs>
</svg>
