<svg width="20" height="20" viewBox="0 0 20 20" fill="none" xmlns="http://www.w3.org/2000/svg">
<mask id="mask0_13217_12621" style="mask-type:alpha" maskUnits="userSpaceOnUse" x="0" y="0" width="20" height="20">
<rect width="20" height="20" fill="#D9D9D9"/>
</mask>
<g mask="url(#mask0_13217_12621)">
<path d="M5.83325 18.3332C5.37492 18.3332 4.9827 18.1701 4.65658 17.844C4.32992 17.5173 4.16659 17.1248 4.16659 16.6665C4.16659 16.2082 4.32992 15.8157 4.65658 15.489C4.9827 15.1629 5.37492 14.9998 5.83325 14.9998C6.29158 14.9998 6.68381 15.1629 7.00992 15.489C7.33659 15.8157 7.49992 16.2082 7.49992 16.6665C7.49992 17.1248 7.33659 17.5173 7.00992 17.844C6.68381 18.1701 6.29158 18.3332 5.83325 18.3332ZM14.1666 18.3332C13.7083 18.3332 13.316 18.1701 12.9899 17.844C12.6633 17.5173 12.4999 17.1248 12.4999 16.6665C12.4999 16.2082 12.6633 15.8157 12.9899 15.489C13.316 15.1629 13.7083 14.9998 14.1666 14.9998C14.6249 14.9998 15.0174 15.1629 15.3441 15.489C15.6702 15.8157 15.8333 16.2082 15.8333 16.6665C15.8333 17.1248 15.6702 17.5173 15.3441 17.844C15.0174 18.1701 14.6249 18.3332 14.1666 18.3332ZM5.83325 14.1665C5.20825 14.1665 4.73603 13.8921 4.41659 13.3432C4.09714 12.7948 4.08325 12.2498 4.37492 11.7082L5.49992 9.6665L2.49992 3.33317H1.64575C1.40964 3.33317 1.2152 3.25317 1.06242 3.09317C0.909641 2.93373 0.833252 2.73595 0.833252 2.49984C0.833252 2.26373 0.913252 2.06567 1.07325 1.90567C1.2327 1.74623 1.43047 1.6665 1.66659 1.6665H3.02075C3.17353 1.6665 3.31936 1.70817 3.45825 1.7915C3.59714 1.87484 3.70131 1.99289 3.77075 2.14567L4.33325 3.33317H16.6249C16.9999 3.33317 17.2569 3.47206 17.3958 3.74984C17.5346 4.02762 17.5277 4.31928 17.3749 4.62484L14.4166 9.95817C14.2638 10.2359 14.0624 10.4512 13.8124 10.604C13.5624 10.7568 13.2777 10.8332 12.9583 10.8332H6.74992L5.83325 12.4998H15.0208C15.2569 12.4998 15.4513 12.5796 15.6041 12.739C15.7569 12.899 15.8333 13.0971 15.8333 13.3332C15.8333 13.5693 15.7533 13.7671 15.5933 13.9265C15.4338 14.0865 15.236 14.1665 14.9999 14.1665H5.83325Z" fill="white"/>
</g>
</svg>
