<svg width="24" height="24" viewBox="0 0 24 24" fill="none" xmlns="http://www.w3.org/2000/svg">
<mask id="mask0_13309_6015" style="mask-type:alpha" maskUnits="userSpaceOnUse" x="0" y="0" width="24" height="24">
<rect width="24" height="24" fill="#D9D9D9"/>
</mask>
<g mask="url(#mask0_13309_6015)">
<path d="M4.70588 9.17647C4.50196 9.17647 4.33349 9.10965 4.20047 8.976C4.06682 8.84298 4 8.67451 4 8.47059V4.84706C4 4.61176 4.08251 4.41161 4.24753 4.24659C4.41192 4.0822 4.61176 4 4.84706 4H8.47059C8.67451 4 8.84329 4.06651 8.97694 4.19953C9.10996 4.33318 9.17647 4.50196 9.17647 4.70588C9.17647 4.9098 9.10996 5.07827 8.97694 5.21129C8.84329 5.34494 8.67451 5.41176 8.47059 5.41176H6.4L9.08235 8.09412C9.20784 8.21961 9.27059 8.37647 9.27059 8.56471C9.27059 8.75294 9.2 8.91765 9.05882 9.05882C8.91765 9.2 8.75294 9.27059 8.56471 9.27059C8.37647 9.27059 8.21176 9.2 8.07059 9.05882L5.41176 6.4V8.47059C5.41176 8.67451 5.34494 8.84298 5.21129 8.976C5.07827 9.10965 4.9098 9.17647 4.70588 9.17647ZM14.9412 9.05882C14.8 8.91765 14.7294 8.75294 14.7294 8.56471C14.7294 8.37647 14.8 8.21176 14.9412 8.07059L17.6 5.41176H15.5294C15.3255 5.41176 15.157 5.34494 15.024 5.21129C14.8904 5.07827 14.8235 4.9098 14.8235 4.70588C14.8235 4.50196 14.8904 4.33318 15.024 4.19953C15.157 4.06651 15.3255 4 15.5294 4H19.1529C19.3882 4 19.5884 4.0822 19.7534 4.24659C19.9178 4.41161 20 4.61176 20 4.84706V8.47059C20 8.67451 19.9335 8.84298 19.8005 8.976C19.6668 9.10965 19.498 9.17647 19.2941 9.17647C19.0902 9.17647 18.9214 9.10965 18.7878 8.976C18.6547 8.84298 18.5882 8.67451 18.5882 8.47059V6.4L15.9059 9.08235C15.7804 9.20784 15.6235 9.27059 15.4353 9.27059C15.2471 9.27059 15.0824 9.2 14.9412 9.05882ZM15.5294 20C15.3255 20 15.157 19.9335 15.024 19.8005C14.8904 19.6668 14.8235 19.498 14.8235 19.2941C14.8235 19.0902 14.8904 18.9214 15.024 18.7878C15.157 18.6547 15.3255 18.5882 15.5294 18.5882H17.6L14.9176 15.9059C14.7922 15.7804 14.7294 15.6235 14.7294 15.4353C14.7294 15.2471 14.8 15.0824 14.9412 14.9412C15.0824 14.8 15.2471 14.7294 15.4353 14.7294C15.6235 14.7294 15.7882 14.8 15.9294 14.9412L18.5882 17.6V15.5294C18.5882 15.3255 18.6547 15.1567 18.7878 15.0231C18.9214 14.89 19.0902 14.8235 19.2941 14.8235C19.498 14.8235 19.6668 14.89 19.8005 15.0231C19.9335 15.1567 20 15.3255 20 15.5294V19.1529C20 19.3882 19.9178 19.5884 19.7534 19.7534C19.5884 19.9178 19.3882 20 19.1529 20H15.5294ZM4.84706 20C4.61176 20 4.41192 19.9178 4.24753 19.7534C4.08251 19.5884 4 19.3882 4 19.1529V15.5294C4 15.3255 4.06682 15.1567 4.20047 15.0231C4.33349 14.89 4.50196 14.8235 4.70588 14.8235C4.9098 14.8235 5.07827 14.89 5.21129 15.0231C5.34494 15.1567 5.41176 15.3255 5.41176 15.5294V17.6L8.09412 14.9176C8.21961 14.7922 8.37647 14.7294 8.56471 14.7294C8.75294 14.7294 8.91765 14.8 9.05882 14.9412C9.2 15.0824 9.27059 15.2471 9.27059 15.4353C9.27059 15.6235 9.2 15.7882 9.05882 15.9294L6.4 18.5882H8.47059C8.67451 18.5882 8.84329 18.6547 8.97694 18.7878C9.10996 18.9214 9.17647 19.0902 9.17647 19.2941C9.17647 19.498 9.10996 19.6668 8.97694 19.8005C8.84329 19.9335 8.67451 20 8.47059 20H4.84706Z" fill="url(#paint0_linear_13309_6015)"/>
</g>
<defs>
<linearGradient id="paint0_linear_13309_6015" x1="2.80918" y1="2.96942" x2="23.6416" y2="7.84486" gradientUnits="userSpaceOnUse">
<stop offset="0.00972591" stop-color="#44C3F9"/>
<stop offset="1" stop-color="#27E4A0"/>
</linearGradient>
</defs>
</svg>
