<svg width="24" height="24" viewBox="0 0 24 24" fill="none" xmlns="http://www.w3.org/2000/svg">
<mask id="mask0_14076_7788" style="mask-type:alpha" maskUnits="userSpaceOnUse" x="0" y="0" width="24" height="24">
<rect width="24" height="24" fill="#D9D9D9"/>
</mask>
<g mask="url(#mask0_14076_7788)">
<path d="M16.375 20.3L19.05 17.625V19.825H19.925V16.125H16.25V17H18.425L15.75 19.675L16.375 20.3ZM5.3 20.5C4.8 20.5 4.375 20.325 4.025 19.975C3.675 19.625 3.5 19.2 3.5 18.7V5.3C3.5 4.8 3.675 4.375 4.025 4.025C4.375 3.675 4.8 3.5 5.3 3.5H18.7C19.2 3.5 19.625 3.675 19.975 4.025C20.325 4.375 20.5 4.8 20.5 5.3V11.625C20.25 11.525 20.0043 11.4377 19.763 11.363C19.521 11.2877 19.2667 11.2333 19 11.2V5.3C19 5.23333 18.9667 5.16667 18.9 5.1C18.8333 5.03333 18.7667 5 18.7 5H5.3C5.23333 5 5.16667 5.03333 5.1 5.1C5.03333 5.16667 5 5.23333 5 5.3V18.7C5 18.7667 5.03333 18.8333 5.1 18.9C5.16667 18.9667 5.23333 19 5.3 19H11.175C11.2083 19.2833 11.2627 19.546 11.338 19.788C11.4127 20.0293 11.5 20.2667 11.6 20.5H5.3ZM5 19V5V11.2V11.125V19ZM7.25 16.625H11.275C11.3083 16.375 11.371 16.125 11.463 15.875C11.5543 15.625 11.65 15.375 11.75 15.125H7.25V16.625ZM7.25 12.75H13.6C14.0167 12.3833 14.471 12.075 14.963 11.825C15.4543 11.575 15.9833 11.4 16.55 11.3V11.25H7.25V12.75ZM7.25 8.875H16.75V7.375H7.25V8.875ZM18 22.55C16.75 22.55 15.6873 22.1127 14.812 21.238C13.9373 20.3627 13.5 19.3 13.5 18.05C13.5 16.8 13.9373 15.7377 14.812 14.863C15.6873 13.9877 16.75 13.55 18 13.55C19.25 13.55 20.3127 13.9877 21.188 14.863C22.0627 15.7377 22.5 16.8 22.5 18.05C22.5 19.3 22.0627 20.3627 21.188 21.238C20.3127 22.1127 19.25 22.55 18 22.55Z" fill="#23262F"/>
</g>
</svg>
