<svg width="10" height="6" viewBox="0 0 10 6" fill="none" xmlns="http://www.w3.org/2000/svg">
<path d="M0.197629 0.207852C0.329381 0.0692836 0.485376 -4.15897e-07 0.665613 -4.08019e-07C0.845499 -4.00156e-07 1.00132 0.0692837 1.13307 0.207852L4.99341 4.2679L8.86693 0.193995C8.9899 0.064665 9.14361 -3.7434e-08 9.32806 -2.93713e-08C9.51252 -2.13086e-08 9.67062 0.0692841 9.80237 0.207852C9.93412 0.34642 10 0.510485 10 0.700046C10 0.889238 9.93412 1.05312 9.80237 1.19169L5.36232 5.84757C5.30962 5.903 5.25253 5.94235 5.19104 5.96563C5.12956 5.98854 5.06368 6 4.99341 6C4.92314 6 4.85727 5.98854 4.79578 5.96563C4.7343 5.94235 4.67721 5.903 4.62451 5.84757L0.184454 1.17783C0.0614852 1.0485 -3.88698e-08 0.889237 -3.06e-08 0.700046C-2.2314e-08 0.510484 0.0658769 0.34642 0.197629 0.207852Z" fill="#777E90"/>
</svg>
