<svg width="24" height="24" viewBox="0 0 24 24" fill="none" xmlns="http://www.w3.org/2000/svg">
<mask id="mask0_14076_7060" style="mask-type:alpha" maskUnits="userSpaceOnUse" x="0" y="0" width="24" height="24">
<rect width="24" height="24" fill="#D9D9D9"/>
</mask>
<g mask="url(#mask0_14076_7060)">
<path d="M12.0537 20C9.79866 20 7.89262 19.2267 6.33557 17.68C4.77852 16.1333 4 14.24 4 12C4 9.76 4.77852 7.86667 6.33557 6.32C7.89262 4.77333 9.79866 4 12.0537 4C13.3065 4 14.4923 4.27556 15.6113 4.82667C16.7295 5.37778 17.6555 6.16 18.3893 7.17333V4.8C18.3893 4.56889 18.4698 4.37796 18.6309 4.2272C18.7919 4.07573 18.9799 4 19.1946 4C19.4273 4 19.6199 4.07573 19.7723 4.2272C19.9241 4.37796 20 4.56889 20 4.8V9.54667C20 9.83111 19.9105 10.0668 19.7315 10.2539C19.5526 10.4402 19.3199 10.5333 19.0336 10.5333H14.255C14.0224 10.5333 13.8298 10.4533 13.6773 10.2933C13.5255 10.1333 13.4497 9.94667 13.4497 9.73333C13.4497 9.50222 13.5255 9.31093 13.6773 9.15947C13.8298 9.00871 14.0224 8.93333 14.255 8.93333H17.6913C17.1186 7.90222 16.3311 7.08907 15.3289 6.49387C14.3266 5.89796 13.2349 5.6 12.0537 5.6C10.264 5.6 8.74273 6.22222 7.48993 7.46667C6.23714 8.71111 5.61074 10.2222 5.61074 12C5.61074 13.7778 6.23714 15.2889 7.48993 16.5333C8.74273 17.7778 10.264 18.4 12.0537 18.4C13.3244 18.4 14.492 18.0622 15.5565 17.3867C16.6217 16.7111 17.4049 15.7956 17.906 14.64C17.9597 14.4978 18.0628 14.3776 18.2153 14.2795C18.3671 14.182 18.5235 14.1333 18.6846 14.1333C18.9888 14.1333 19.2215 14.24 19.3826 14.4533C19.5436 14.6667 19.5615 14.9067 19.4362 15.1733C18.8098 16.6311 17.8302 17.7998 16.4972 18.6795C15.1635 19.5598 13.6823 20 12.0537 20Z" fill="#23262F"/>
</g>
</svg>
